<svg width="42" height="53" viewBox="0 0 42 53" fill="none" xmlns="http://www.w3.org/2000/svg">
<path d="M21.0022 0.00103304C20.012 0.00103304 19.0218 0.371264 18.2638 1.11392L1.32757 17.7742C0.479782 18.6089 0 19.7458 0 20.9376V43.5936C0 45.2213 1.3407 46.562 2.96842 46.562H11.7991L11.8013 46.5598C12.0182 46.5598 12.2285 46.4722 12.3819 46.3189C12.5352 46.1633 12.6206 45.9552 12.6206 45.7361C12.6184 45.2848 12.2526 44.9212 11.8013 44.919H2.97066C2.23021 44.919 1.64308 44.334 1.64308 43.5914V20.9371C1.64308 20.1857 1.9454 19.4693 2.47994 18.9435L19.4162 2.28324C20.3034 1.41133 21.6989 1.41133 22.5839 2.28324L39.5224 18.9435C40.0569 19.4693 40.357 20.1856 40.357 20.9371V43.5931C40.357 44.3335 39.7787 44.9207 39.036 44.9207H30.2053V44.9185C29.9884 44.9185 29.7781 45.0039 29.6248 45.1573C29.4692 45.3106 29.3838 45.5187 29.3816 45.7356C29.3816 45.9546 29.467 46.165 29.6226 46.3205C29.7759 46.4739 29.9862 46.5615 30.2053 46.5593H39.036C40.6637 46.5593 41.9978 45.2186 41.9978 43.5909L42 20.9365C42 19.747 41.5224 18.6079 40.6746 17.7732L23.7362 1.11289C22.9803 0.370253 21.9945 0 21.0043 0L21.0022 0.00103304ZM21.0022 19.4699C13.7334 19.4699 7.82064 25.3759 7.82064 32.6402C7.82064 35.6809 9.79663 39.3701 12.1166 42.9212C14.4366 46.4723 17.1575 49.8176 18.8291 51.7827C19.9639 53.1168 22.0385 53.1168 23.1733 51.7827C24.8448 49.8176 27.5634 46.4768 29.8835 42.9257C32.2034 39.3745 34.1795 35.6832 34.1795 32.6402C34.1795 25.3759 28.271 19.4699 21.0022 19.4699ZM21.0022 21.1108C27.3837 21.1108 32.5382 26.2633 32.5382 32.6407C32.5382 34.9103 30.7659 38.5753 28.5095 42.0299C26.2531 45.4847 23.5695 48.7884 21.9244 50.7226C21.3767 51.3667 20.6253 51.3689 20.0754 50.7226C18.4302 48.7883 15.7465 45.4759 13.4903 42.0232C11.234 38.5705 9.46154 34.9097 9.46154 32.6407C9.46154 26.2636 14.6207 21.1108 21.0022 21.1108ZM21.0022 25.284C17.5321 25.284 14.6974 28.1145 14.6974 31.5843C14.6974 35.0542 17.5322 37.8846 21.0022 37.8846C24.4721 37.8846 27.3024 35.0542 27.3024 31.5843C27.3024 28.1145 24.472 25.284 21.0022 25.284ZM21.0022 26.9271C23.5872 26.9271 25.6618 29.0039 25.6618 31.5845C25.6618 34.1674 23.5872 36.2442 21.0022 36.2442C18.4171 36.2442 16.3382 34.1674 16.3382 31.5845C16.3382 29.0017 18.4171 26.9271 21.0022 26.9271Z" fill="white"/>
</svg>
