<svg width="58" height="56" viewBox="0 0 58 56" fill="none" xmlns="http://www.w3.org/2000/svg">
<path fill-rule="evenodd" clip-rule="evenodd" d="M7.73333 10.647H4.0368C4.02051 10.6467 4.00432 10.6496 3.98917 10.6555C3.97401 10.6615 3.96019 10.6704 3.94851 10.6818C3.93719 10.6935 3.92828 10.7073 3.92231 10.7225C3.91634 10.7376 3.91342 10.7538 3.91371 10.7701V12.0674C3.91541 12.4444 4.06593 12.8055 4.33254 13.0721C4.59915 13.3387 4.96025 13.4892 5.33729 13.4909H6.88396L7.73333 10.647ZM51.1173 13.4935H52.664C53.041 13.4918 53.4021 13.3413 53.6688 13.0747C53.9354 12.8081 54.0859 12.447 54.0876 12.0699V10.7727C54.0869 10.7395 54.0736 10.7079 54.0502 10.6844C54.0384 10.673 54.0245 10.664 54.0092 10.658C53.994 10.6521 53.9777 10.6492 53.9613 10.6496H50.2667L51.118 13.4961L51.1173 13.4935ZM49.9992 14.3848L50.315 15.441H7.68436L8.00078 14.3848C8.00916 14.3609 8.01624 14.3364 8.02269 14.3113L9.24713 10.2094C9.2555 10.1858 9.26259 10.1617 9.2684 10.1372L11.0084 4.32306C11.2579 3.45098 11.7872 2.68512 12.5148 2.14349C13.2424 1.60186 14.1279 1.31453 15.0349 1.32575H42.9645C43.8715 1.31453 44.757 1.60186 45.4846 2.14349C46.2122 2.68512 46.7415 3.45098 46.991 4.32306L48.731 10.1372C48.7374 10.1617 48.7445 10.1856 48.7529 10.2094L49.9773 14.3113C49.9838 14.3364 49.9908 14.3609 49.9992 14.3848ZM10.2538 24.0392C9.83204 23.6176 9.27721 23.3553 8.68377 23.2969C8.09033 23.2384 7.49499 23.3876 6.99918 23.7189C6.50336 24.0501 6.13773 24.5431 5.96457 25.1137C5.79141 25.6843 5.82143 26.2973 6.04952 26.8483C6.27761 27.3992 6.68966 27.8541 7.21548 28.1353C7.7413 28.4165 8.34836 28.5068 8.93325 28.3907C9.51814 28.2745 10.0447 27.9592 10.4232 27.4985C10.8017 27.0377 11.0087 26.4599 11.009 25.8636C11.0096 25.5248 10.9431 25.1891 10.8135 24.876C10.6839 24.5629 10.4937 24.2785 10.2538 24.0392ZM8.42933 21.9551C9.33362 21.955 10.2099 22.2686 10.909 22.8422C11.608 23.4159 12.0865 24.2142 12.2629 25.1011C12.4393 25.988 12.3028 26.9086 11.8765 27.7061C11.4502 28.5036 10.7606 29.1287 9.9251 29.4747C9.08964 29.8207 8.16004 29.8664 7.2947 29.6038C6.42937 29.3413 5.68184 28.7868 5.17949 28.0349C4.67714 27.283 4.45106 26.3801 4.53976 25.4802C4.62847 24.5803 5.02647 23.739 5.66596 23.0996C6.02849 22.7362 6.45924 22.4481 6.93347 22.2517C7.40769 22.0552 7.91604 21.9544 8.42933 21.9551ZM51.3951 24.0392C50.9734 23.6176 50.4185 23.3553 49.8251 23.2969C49.2317 23.2384 48.6363 23.3876 48.1405 23.7189C47.6447 24.0501 47.2791 24.5431 47.1059 25.1137C46.9327 25.6843 46.9628 26.2973 47.1909 26.8483C47.4189 27.3992 47.831 27.8541 48.3568 28.1353C48.8826 28.4165 49.4897 28.5068 50.0746 28.3907C50.6595 28.2745 51.186 27.9592 51.5645 27.4985C51.943 27.0377 52.1501 26.4599 52.1504 25.8636C52.151 25.5247 52.0846 25.1891 51.9549 24.876C51.8253 24.5629 51.635 24.2785 51.3951 24.0392ZM49.5707 21.9551C50.4748 21.9551 51.3509 22.2686 52.0498 22.8422C52.7487 23.4158 53.227 24.214 53.4034 25.1007C53.5797 25.9874 53.4432 26.9079 53.0169 27.7053C52.5907 28.5026 51.9012 29.1275 51.0659 29.4735C50.2306 29.8194 49.3012 29.8651 48.436 29.6026C47.5708 29.3401 46.8234 28.7858 46.3212 28.034C45.8189 27.2823 45.5928 26.3796 45.6815 25.4798C45.7701 24.5801 46.168 23.7389 46.8073 23.0996C47.1698 22.7362 47.6006 22.4481 48.0748 22.2517C48.549 22.0552 49.0574 21.9544 49.5707 21.9551ZM4.45569 39.3112V43.1283C4.45569 43.2468 4.47903 43.3641 4.52437 43.4736C4.56971 43.583 4.63617 43.6825 4.71994 43.7663C4.80372 43.85 4.90318 43.9165 5.01265 43.9618C5.12211 44.0072 5.23943 44.0305 5.35791 44.0305H10.7861C10.9045 44.0305 11.0219 44.0072 11.1313 43.9618C11.2408 43.9165 11.3403 43.85 11.424 43.7663C11.5078 43.6825 11.5743 43.583 11.6196 43.4736C11.665 43.3641 11.6883 43.2468 11.6883 43.1283V39.3112H4.45569ZM46.313 39.3112V43.1283C46.313 43.2468 46.3363 43.3641 46.3817 43.4736C46.427 43.583 46.4935 43.6825 46.5773 43.7663C46.661 43.85 46.7605 43.9165 46.87 43.9618C46.9794 44.0072 47.0967 44.0305 47.2152 44.0305H52.6434C52.7619 44.0305 52.8792 44.0072 52.9886 43.9618C53.0981 43.9165 53.1976 43.85 53.2813 43.7663C53.3651 43.6825 53.4316 43.583 53.4769 43.4736C53.5223 43.3641 53.5456 43.2468 53.5456 43.1283V39.3112H46.313ZM21.79 39.3112C23.5283 40.9614 25.8309 41.8859 28.2277 41.8961C30.6246 41.9063 32.9349 41.0014 34.6872 39.366L34.7027 39.3525L34.7459 39.3119L21.79 39.3112ZM19.3933 35.6237C19.6905 36.465 20.1065 37.2595 20.6287 37.983H35.9078C36.4294 37.2594 36.8449 36.4649 37.1419 35.6237H19.3933ZM19.7799 28.4156C18.9058 30.2445 18.6437 32.3061 19.0324 34.2955H37.5067C37.8963 32.3062 37.6344 30.2443 36.7598 28.4156H19.7799ZM21.8467 25.6026L21.8312 25.6155C21.357 26.0609 20.9303 26.5541 20.5578 27.0874H35.9793C35.7266 26.7277 35.4493 26.386 35.1493 26.0647L35.1364 26.0492C33.4324 24.2292 31.0757 23.1599 28.5839 23.0761C26.0921 22.9924 23.669 23.9011 21.8467 25.6026ZM20.9084 24.6643L20.9238 24.6514C22.9988 22.7056 25.761 21.6625 28.6042 21.7512C31.4474 21.8399 34.1393 23.0531 36.0889 25.1244L36.1018 25.1399C36.7376 25.8171 37.2828 26.574 37.7238 27.3916C37.7432 27.4215 37.7601 27.4529 37.7741 27.4857C38.9956 29.8148 39.3216 32.5106 38.6905 35.0637C38.6847 35.1021 38.6752 35.1399 38.6622 35.1765C38.3037 36.5676 37.6681 37.8721 36.7933 39.0116C36.7756 39.0387 36.7557 39.0643 36.734 39.0883C36.396 39.5201 36.0257 39.9255 35.6262 40.3011L35.6107 40.314C33.533 42.2609 30.7672 43.3029 27.9213 43.2108C25.0755 43.1187 22.3828 41.9001 20.4353 39.8229C20.2124 39.5853 20.0023 39.3402 19.8051 39.0876C19.7829 39.063 19.7627 39.0367 19.7445 39.009C18.8696 37.8693 18.2339 36.5646 17.8756 35.1733C17.8639 35.1383 17.8548 35.1026 17.8485 35.0663C17.2183 32.5119 17.5443 29.8151 18.7649 27.4844C18.7788 27.4524 18.7952 27.4216 18.8139 27.3922C19.362 26.3748 20.071 25.4527 20.9135 24.6617L20.9084 24.6643ZM18.8842 22.4732C16.8168 24.4129 15.4004 26.9448 14.8291 29.7214C14.2579 32.4981 14.5598 35.3835 15.6935 37.9818H1.99778C1.8204 37.9807 1.65058 37.9098 1.52521 37.7843C1.39984 37.6588 1.32905 37.4889 1.3282 37.3115V22.5351C1.33313 21.0074 1.94218 19.5437 3.02242 18.4634C4.10266 17.3832 5.56636 16.7741 7.09404 16.7692H50.906C52.4336 16.7741 53.8973 17.3832 54.9776 18.4634C56.0578 19.5437 56.6669 21.0074 56.6718 22.5351V37.3128C56.671 37.4902 56.6002 37.6601 56.4748 37.7856C56.3494 37.9111 56.1796 37.982 56.0022 37.983H40.8397C42.1052 35.0885 42.3331 31.8461 41.4849 28.803C40.6368 25.76 38.7646 23.1028 36.1845 21.2801C33.6043 19.4574 30.4742 18.5809 27.3227 18.7985C24.1712 19.0161 21.1913 20.3145 18.8861 22.4745L18.8842 22.4732ZM38.7691 39.0728C37.6242 40.8898 36.0301 42.381 34.1407 43.4022C34.0053 43.4209 33.8791 43.4816 33.7798 43.5755C33.7703 43.5841 33.7613 43.5931 33.7528 43.6026C30.8741 45.0183 27.5591 45.2647 24.5028 44.29C21.4465 43.3153 18.8863 41.1952 17.3588 38.3742C17.3463 38.3458 17.3317 38.3185 17.3149 38.2924C16.3143 36.4034 15.8192 34.2878 15.8777 32.151C15.9362 30.0142 16.5464 27.9288 17.6489 26.0975C18.7514 24.2662 20.3088 22.7511 22.1698 21.6994C24.0309 20.6478 26.1322 20.0953 28.2698 20.0957C30.4074 20.0961 32.5086 20.6493 34.3693 21.7016C36.2299 22.7539 37.7868 24.2695 38.8887 26.1012C39.9906 27.933 40.6 30.0186 40.6577 32.1554C40.7155 34.2922 40.2196 36.4077 39.2183 38.2962C39.2029 38.3208 39.1893 38.3464 39.1777 38.3729C39.1216 38.476 39.0643 38.5792 39.005 38.681C38.9915 38.6919 38.9786 38.7035 38.9657 38.7151C38.8651 38.811 38.7975 38.9362 38.7724 39.0728H38.7691ZM38.8278 46.1514C39.0074 46.0393 39.1756 45.9098 39.3298 45.7647L40.7933 44.3933L40.8094 44.3798C40.9588 44.2385 41.0939 44.0828 41.2129 43.9152L48.5267 51.7194C48.8013 52.0391 48.9418 52.4525 48.919 52.8734C48.8962 53.2943 48.7118 53.6901 48.4043 53.9783C48.0968 54.2665 47.6899 54.4249 47.2685 54.4204C46.847 54.416 46.4436 54.249 46.1422 53.9543L38.8278 46.1514ZM41.7658 42.5644L49.4933 50.8114C50.0181 51.3861 50.2954 52.1443 50.2653 52.922C50.2352 53.6996 49.9002 54.4342 49.3326 54.9666C48.7651 55.4991 48.0107 55.7867 47.2327 55.7672C46.4547 55.7477 45.7157 55.4226 45.1756 54.8623L37.4487 46.6134C37.3097 46.627 37.17 46.6315 37.0304 46.627C36.6091 46.6146 36.1943 46.519 35.81 46.3458C35.4257 46.1726 35.0794 45.9252 34.791 45.6178L34.1143 44.896C30.9944 46.3613 27.4375 46.6001 24.1497 45.565C20.8619 44.5298 18.0834 42.2964 16.3657 39.308H13.0178V43.1251C13.0166 43.7161 12.7813 44.2825 12.3634 44.7004C11.9455 45.1183 11.379 45.3537 10.788 45.3548H5.35727C4.76626 45.3537 4.1998 45.1183 3.78189 44.7004C3.36399 44.2825 3.12868 43.7161 3.12749 43.1251V39.3112H1.99778C1.4683 39.31 0.96085 39.0992 0.586452 38.7248C0.212054 38.3504 0.00119156 37.8429 0 37.3135V22.5351C0.00524669 20.7949 0.647742 19.1169 1.80606 17.8182C2.96439 16.5195 4.55829 15.6902 6.28656 15.4868L6.48569 14.8217H5.33471C4.60542 14.82 3.90648 14.5295 3.39079 14.0139C2.8751 13.4982 2.58464 12.7992 2.58293 12.0699V10.7727C2.58376 10.3881 2.7372 10.0195 3.00956 9.748C3.28125 9.47588 3.64969 9.32248 4.03422 9.32137H8.12838L9.73562 3.94735C10.0687 2.80256 10.7662 1.7977 11.7223 1.08532C12.6783 0.372934 13.8407 -0.00807376 15.033 0.000129748H42.9645C44.1567 -0.00807376 45.3191 0.372934 46.2751 1.08532C47.2312 1.7977 47.9287 2.80256 48.2618 3.94735L49.869 9.32137H53.9626C54.3479 9.32238 54.7172 9.47628 54.9892 9.74928C55.1243 9.88416 55.2316 10.0444 55.3048 10.2208C55.378 10.3971 55.4157 10.5862 55.4158 10.7772V12.0744C55.4141 12.8037 55.1236 13.5027 54.6079 14.0184C54.0922 14.5341 53.3933 14.8245 52.664 14.8262H51.5143L51.7134 15.4913C53.4409 15.6946 55.0342 16.5233 56.1924 17.821C57.3507 19.1188 57.9937 20.7957 58 22.5351V37.3128C57.9988 37.8423 57.7879 38.3497 57.4136 38.7241C57.0392 39.0985 56.5317 39.3094 56.0022 39.3106H54.8725V43.1276C54.8713 43.7187 54.636 44.2851 54.2181 44.703C53.8002 45.1209 53.2337 45.3562 52.6427 45.3574H47.2146C46.6236 45.3562 46.0571 45.1209 45.6392 44.703C45.2213 44.2851 44.986 43.7187 44.9848 43.1276V39.3112H40.4337L40.928 39.8384L40.9409 39.8545C41.2293 40.1621 41.454 40.5236 41.6022 40.9184C41.7504 41.3131 41.8191 41.7332 41.8045 42.1545C41.8001 42.2923 41.787 42.4296 41.7652 42.5657L41.7658 42.5644ZM40.4022 42.6005C40.4022 42.5857 40.4099 42.5708 40.4144 42.5567C40.4998 42.2482 40.5056 41.9232 40.4315 41.6118C40.3573 41.3005 40.2056 41.0129 39.9904 40.7761L39.9775 40.7606L39.5463 40.3005C38.4331 41.9003 36.9944 43.247 35.3246 44.2522L35.7564 44.7123C35.9795 44.9492 36.2599 45.1246 36.5706 45.2215C36.8812 45.3185 37.2116 45.3338 37.5299 45.2659L37.5692 45.2575C37.8888 45.1828 38.1831 45.0252 38.4224 44.8006L39.8744 43.4408L39.8898 43.428C40.1316 43.2027 40.3095 42.9174 40.4054 42.6011L40.4022 42.6005ZM21.3163 30.521C21.3163 30.3448 21.3863 30.1758 21.5109 30.0512C21.6355 29.9266 21.8045 29.8566 21.9807 29.8566C22.1569 29.8566 22.3259 29.9266 22.4505 30.0512C22.5751 30.1758 22.6451 30.3448 22.6451 30.521V32.6883C22.6451 32.8645 22.5751 33.0335 22.4505 33.1581C22.3259 33.2827 22.1569 33.3527 21.9807 33.3527C21.8045 33.3527 21.6355 33.2827 21.5109 33.1581C21.3863 33.0335 21.3163 32.8645 21.3163 32.6883V30.521ZM25.444 30.521C25.4493 30.3485 25.5217 30.1848 25.6456 30.0646C25.7696 29.9445 25.9354 29.8773 26.1081 29.8773C26.2807 29.8773 26.4465 29.9445 26.5705 30.0646C26.6945 30.1848 26.7668 30.3485 26.7722 30.521V32.6883C26.7668 32.8608 26.6945 33.0245 26.5705 33.1447C26.4465 33.2648 26.2807 33.332 26.1081 33.332C25.9354 33.332 25.7696 33.2648 25.6456 33.1447C25.5217 33.0245 25.4493 32.8608 25.444 32.6883V30.521ZM29.5684 30.521C29.5738 30.3485 29.6461 30.1848 29.7701 30.0646C29.894 29.9445 30.0599 29.8773 30.2325 29.8773C30.4051 29.8773 30.571 29.9445 30.6949 30.0646C30.8189 30.1848 30.8912 30.3485 30.8966 30.521V32.6883C30.8912 32.8608 30.8189 33.0245 30.6949 33.1447C30.571 33.2648 30.4051 33.332 30.2325 33.332C30.0599 33.332 29.894 33.2648 29.7701 33.1447C29.6461 33.0245 29.5738 32.8608 29.5684 32.6883V30.521ZM33.6928 30.521C33.6982 30.3485 33.7705 30.1848 33.8945 30.0646C34.0185 29.9445 34.1843 29.8773 34.3569 29.8773C34.5296 29.8773 34.6954 29.9445 34.8194 30.0646C34.9433 30.1848 35.0157 30.3485 35.021 30.521V32.6883C35.0157 32.8608 34.9433 33.0245 34.8194 33.1447C34.6954 33.2648 34.5296 33.332 34.3569 33.332C34.1843 33.332 34.0185 33.2648 33.8945 33.1447C33.7705 33.0245 33.6982 32.8608 33.6928 32.6883V30.521Z" fill="white"/>
</svg>
