<svg width="96" height="25" viewBox="0 0 96 25" fill="none" xmlns="http://www.w3.org/2000/svg">
<mask id="mask0_136_3960" style="mask-type:luminance" maskUnits="userSpaceOnUse" x="0" y="0" width="96" height="25">
<path d="M2.18557e-06 25L96 25L96 0L0 8.39259e-06L2.18557e-06 25Z" fill="white"/>
</mask>
<g mask="url(#mask0_136_3960)">
<path d="M1.3205 11.2366L91.7005 11.2366L83.0895 2.62764C82.9696 2.51333 82.8741 2.37586 82.8089 2.22356C82.7436 2.07127 82.71 1.90731 82.71 1.74163C82.71 1.57596 82.7436 1.412 82.8089 1.25971C82.8741 1.10741 82.9696 0.969941 83.0895 0.855632C83.2038 0.735706 83.3413 0.640233 83.4936 0.575C83.6459 0.509767 83.8098 0.476138 83.9755 0.476138C84.1412 0.476138 84.3051 0.509767 84.4574 0.575C84.6097 0.640233 84.7472 0.735705 84.8615 0.855632L95.6205 11.6166C95.7404 11.7309 95.8359 11.8684 95.9011 12.0207C95.9664 12.173 96 12.337 96 12.5026C96 12.6683 95.9664 12.8323 95.9011 12.9846C95.8359 13.1369 95.7404 13.2743 95.6205 13.3886L84.8615 24.1476C84.6263 24.3813 84.308 24.5123 83.9764 24.5117C83.6448 24.5112 83.3269 24.3792 83.0924 24.1447C82.8579 23.9102 82.726 23.5924 82.7254 23.2608C82.7249 22.9292 82.8558 22.6109 83.0895 22.3756L91.7005 13.7686L1.3205 13.7686C0.984742 13.7686 0.662729 13.6353 0.425309 13.3978C0.18789 13.1604 0.0545056 12.8384 0.0545055 12.5026C0.0545055 12.1669 0.18789 11.8449 0.425309 11.6074C0.662728 11.37 0.984742 11.2366 1.3205 11.2366Z" fill="white"/>
</g>
</svg>
