<svg width="40" height="40" viewBox="0 0 40 40" fill="none" xmlns="http://www.w3.org/2000/svg">
<rect width="40" height="40" rx="20" fill="white"/>
<path fill-rule="evenodd" clip-rule="evenodd" d="M24.9706 13.5167L20.4342 10.1456C20.1726 9.95146 19.8286 9.95146 19.5669 10.1456L9.48607 17.6355C8.95201 18.0323 8.84092 18.7865 9.23826 19.3189C9.6356 19.8522 10.3908 19.9632 10.9238 19.5664L19.5658 13.1454C19.8275 12.9512 20.1714 12.9512 20.4331 13.1454L29.0762 19.5664C29.6103 19.9632 30.3654 19.8523 30.7617 19.3189C31.1591 18.7855 31.048 18.0313 30.5139 17.6355L27.3139 15.2577V12.181C27.3139 11.781 26.9881 11.4556 26.5876 11.4556H25.6968C25.2962 11.4556 24.9705 11.781 24.9705 12.181L24.9706 13.5167ZM27.7605 19.61V27.2287C27.7605 27.6533 27.4134 28 26.9882 28L23.1377 27.9989V23.08C23.1377 22.2084 22.4231 21.4947 21.5505 21.4947L18.4508 21.4937C17.5781 21.4937 16.8635 22.2073 16.8635 23.0789V27.9979L13.013 27.9989C12.5878 27.9989 12.2407 27.6522 12.2407 27.2277V19.6097L20.0006 13.845L27.7605 19.61Z" fill="#010D3B"/>
</svg>
