<svg width="58" height="61" viewBox="0 0 58 61" fill="none" xmlns="http://www.w3.org/2000/svg">
<path d="M6.60132 50.1048C7.00046 53.1563 8.49458 55.9545 10.8031 57.9628C13.1144 59.9735 16.0729 61.0525 19.1205 60.998C22.1681 60.9435 25.0861 59.7584 27.3247 57.6686C28.2687 56.8076 29.7034 56.8076 30.6474 57.6686C37.8318 64.5782 50.1516 60.0444 51.3708 50.1049C51.7484 47.2659 51.1497 44.3832 49.6745 41.9365C48.1993 39.4898 45.9392 37.6316 43.2693 36.6671C40.3674 35.6099 41.9316 32.4385 40.8529 30.0517C36.3004 16.472 16.8071 19.5892 16.5696 33.8335C16.664 35.0977 15.8954 36.2666 14.7033 36.6671C12.0334 37.6316 9.77336 39.4898 8.29815 41.9365C6.82294 44.3832 6.22373 47.2656 6.60132 50.1048ZM15.4366 38.716C17.4647 37.9912 18.7808 36.005 18.6729 33.8335C18.6729 30.8037 19.9863 27.9238 22.2652 25.9538C27.5511 21.1149 36.7314 23.7741 38.7053 30.7055C39.0586 31.809 39.2204 32.967 39.18 34.1276C39.18 36.2174 40.515 38.0701 42.481 38.7158C44.6898 39.5114 46.5615 41.0508 47.7805 43.0752C48.9995 45.0996 49.4958 47.4836 49.1802 49.8322C48.8431 52.3416 47.6079 54.6384 45.7092 56.2896C43.8079 57.938 41.3753 58.8262 38.8699 58.7853C36.3644 58.7444 33.9614 57.7772 32.114 56.0662C30.3421 54.4314 27.629 54.4314 25.8571 56.0662C19.9238 61.7661 9.74008 58.0497 8.73691 49.8214C8.42407 47.4755 8.91761 45.0915 10.1366 43.0698C11.3556 41.0454 13.2278 39.5088 15.4366 38.716Z" fill="white"/>
<path d="M51.0806 17.7139C48.3351 19.4604 46.3933 22.2422 45.6867 25.4408L45.5896 25.8768C44.8372 29.2226 46.9084 32.5521 50.2175 33.3205C50.6706 33.4295 51.1345 33.484 51.5984 33.484C54.4625 33.4812 56.9464 31.4787 57.5856 28.6559L57.6826 28.22C58.4216 25.0131 57.8579 21.6428 56.1184 18.8582C55.6087 18.0244 54.7862 17.4304 53.8368 17.2152C52.8902 16.9999 51.895 17.1799 51.0806 17.7139ZM55.5251 27.7405L55.428 28.1655C54.9345 30.3371 52.7877 31.6939 50.6383 31.1953C48.4888 30.6968 47.1457 28.5279 47.6392 26.3564L47.7363 25.9314C48.3377 23.2994 49.9532 21.0162 52.224 19.5884C52.456 19.4386 52.7256 19.3596 53.0007 19.3596C53.1086 19.3432 53.2165 19.3432 53.3244 19.3596C53.7046 19.444 54.0363 19.6784 54.2413 20.0135C55.6761 22.3131 56.1373 25.095 55.5251 27.7405Z" fill="white"/>
<path d="M3.17011 32.5366C7.64704 35.5119 13.7638 31.1199 12.4369 25.8777C11.8543 21.6709 5.96422 13.6282 1.90803 18.8594C-0.55157 22.8592 -1.12337 29.6706 3.17011 32.5366ZM3.73107 20.0249C4.17067 19.3464 5.07144 19.1503 5.74839 19.5889C8.14869 21.1093 9.81266 23.575 10.3332 26.3896C10.6972 27.9835 10.077 29.6428 8.76088 30.5936C7.44481 31.5472 5.69178 31.6072 4.31364 30.7489C1.18524 28.5475 1.90793 22.8588 3.73107 20.0249Z" fill="white"/>
<path d="M35.6423 1.11388C30.5936 5.81113 29.3854 17.4619 38.3824 17.8971C40.2298 17.8862 41.9909 17.107 43.2504 15.7392C44.5098 14.3742 45.1571 12.546 45.0384 10.6823C45.2326 6.14858 41.0575 -3.21271 35.6423 1.11388ZM42.8806 11.1732C42.7619 13.6009 40.7824 15.5053 38.3768 15.5053C35.9711 15.5053 33.9915 13.6008 33.8729 11.1732C33.73 8.00177 34.9031 4.91205 37.1092 2.65047C37.7835 1.98567 38.8623 1.98567 39.5365 2.65047C41.783 4.8928 42.9965 7.98524 42.8806 11.1732Z" fill="white"/>
<path d="M19.5895 17.9026C28.5863 17.4557 27.3781 5.81629 22.3297 1.11932C20.7978 -0.35199 18.3922 -0.35199 16.8603 1.11932C11.8116 5.81656 10.6465 17.4122 19.5895 17.9026ZM15.0911 10.6876C15.083 7.67422 16.2669 4.78064 18.3813 2.65521C19.0555 1.99041 20.1343 1.99041 20.8085 2.65521C23.0146 4.91665 24.1878 8.00637 24.0449 11.178C23.8291 17.4991 14.7569 17.0196 15.0911 10.6876Z" fill="white"/>
</svg>
