<svg width="60" height="58" viewBox="0 0 60 58" fill="none" xmlns="http://www.w3.org/2000/svg">
<path fill-rule="evenodd" clip-rule="evenodd" d="M31.7649 52.4799L33.1692 48.1546C33.2732 47.8344 33.6186 47.6574 33.9388 47.7642L33.9641 47.7726L35.169 48.1602C35.4667 47.2137 35.683 46.4216 35.874 45.7251C36.902 41.9812 37.225 40.7958 43.1038 37.1443C43.1262 37.1303 43.1459 37.119 43.1684 37.1106C43.8284 36.7511 44.3789 36.4758 44.8592 36.2343C46.4658 35.4282 47.2466 35.0377 49.3755 32.7487C49.6704 32.4313 49.9738 31.9314 50.2827 31.4286C51.1534 29.999 52.0409 28.5469 53.4902 29.3839C53.5576 29.4232 53.6166 29.4625 53.6671 29.4962C53.7907 29.5861 53.8974 29.6872 53.9957 29.8024C54.4198 28.4036 54.653 27.0807 54.8552 25.9516C55.2568 23.6738 55.5377 22.0841 57.001 21.7751C57.0207 21.7723 57.0403 21.7667 57.0572 21.7667C57.1976 21.7499 57.3324 21.7471 57.4588 21.7583C58.2705 21.8229 58.8351 22.3397 59.2171 23.1036C59.5429 23.7496 59.731 24.581 59.8265 25.4349C59.9445 26.4713 59.9305 27.5526 59.8659 28.3559C59.7928 29.2631 59.6721 30.2237 59.467 31.3162C59.2648 32.392 58.9783 33.5913 58.5739 34.9872C57.5964 38.3604 55.6219 41.3432 54.7316 42.6857C54.5378 42.9778 54.8467 42.5088 54.5855 42.9048C54.4619 43.093 54.2625 43.3345 54.0491 43.5705C53.6474 44.0227 53.1475 44.5226 53.1391 44.531C53.1306 44.5394 53.1194 44.5479 53.111 44.5535C52.1363 45.514 51.0073 46.3257 49.9484 47.0841C48.3784 48.2103 46.9825 49.2102 46.7325 50.241C46.6735 50.4882 46.6791 50.873 46.6819 51.2578C46.6847 51.4684 46.6875 51.6763 46.6819 51.8785L47.6959 52.2071C48.0161 52.311 48.193 52.6537 48.0891 52.9739V52.9767L46.6848 57.302C46.5809 57.6222 46.2354 57.7991 45.9152 57.6924L45.8899 57.684L32.161 53.2519C31.8408 53.148 31.6638 52.8053 31.7677 52.4851V52.4823L31.7649 52.4799ZM42.5337 27.7356C42.2416 24.6123 40.8036 21.8205 38.6437 19.7839C36.3967 17.669 33.369 16.3714 30.0377 16.3714C26.7066 16.3714 23.6788 17.669 21.4317 19.7839C19.2719 21.8174 17.8338 24.612 17.5417 27.7356C21.6648 29.3618 25.8047 30.1735 29.9613 30.1735C34.1294 30.1763 38.3171 29.3646 42.5327 27.7356H42.5337ZM39.4807 18.8966C38.9105 18.3602 38.2954 17.8715 37.641 17.4362C38.1241 15.7594 39.1212 14.3017 40.4553 13.2428C41.8652 12.125 43.6488 11.4565 45.5923 11.4565C47.7887 11.4565 49.7829 12.3103 51.263 13.7063C52.6505 15.0151 53.5886 16.7986 53.8105 18.7955C51.5748 19.6438 49.3476 20.1493 47.1315 20.3151C44.8396 20.4836 42.5589 20.2898 40.2924 19.728C40.0312 19.4416 39.7615 19.1634 39.4807 18.8966ZM41.458 21.225C43.3735 21.5733 45.2918 21.6772 47.2157 21.534C49.679 21.3514 52.1562 20.7672 54.6418 19.7786C54.9002 19.6943 55.0799 19.4444 55.0631 19.1607C54.917 16.6637 53.8048 14.4253 52.0943 12.8159C50.3951 11.2149 48.106 10.2319 45.5866 10.2319C43.3593 10.2319 41.3118 11.0014 39.6912 12.285C38.2476 13.431 37.1437 14.9926 36.5595 16.7873C34.6187 15.7397 32.397 15.1471 30.0378 15.1471C27.6785 15.1471 25.4568 15.7425 23.5161 16.7873C22.9319 14.9926 21.828 13.4338 20.3844 12.285C18.7638 10.9986 16.7134 10.2319 14.489 10.2319C11.9724 10.2319 9.68334 11.2121 7.98128 12.8159C6.2708 14.4253 5.15855 16.6638 5.01251 19.1607C4.99566 19.4275 5.15576 19.6662 5.39168 19.7617C7.84649 20.7616 10.3181 21.3542 12.8012 21.534C14.7336 21.6744 16.6771 21.5649 18.6292 21.2054C17.281 23.1939 16.4412 25.5532 16.2896 28.1006C16.2727 28.3674 16.4328 28.6062 16.6687 28.7017C21.0699 30.4964 25.499 31.3924 29.962 31.3924C34.4193 31.3924 38.8965 30.4964 43.399 28.7017C43.649 28.6034 43.7979 28.3562 43.7838 28.1006C43.6378 25.5644 42.8005 23.2108 41.458 21.225ZM19.8061 19.7083C17.4917 20.2813 15.1886 20.4863 12.8911 20.3178C10.6779 20.1577 8.47032 19.6494 6.27113 18.7983C6.49582 16.7986 7.43112 15.0151 8.81862 13.7062C10.2988 12.3131 12.2929 11.4565 14.4893 11.4565C16.4329 11.4565 18.2164 12.1249 19.6264 13.2428C20.9577 14.3017 21.9576 15.7594 22.4407 17.4361C21.7862 17.8715 21.1712 18.3602 20.601 18.8966C20.3229 19.1578 20.0589 19.4275 19.8061 19.7083ZM45.5895 0C46.9123 0 48.1116 0.536454 48.9795 1.40432C49.8474 2.27218 50.3838 3.4687 50.3838 4.79435C50.3838 6.11721 49.8474 7.31653 48.9795 8.18439C48.1116 9.05225 46.9151 9.58871 45.5895 9.58871C44.2666 9.58871 43.0673 9.05226 42.1994 8.18439C41.3316 7.31653 40.7951 6.12001 40.7951 4.79435C40.7951 3.4715 41.3316 2.27218 42.1994 1.40432C43.0673 0.536461 44.2666 0 45.5895 0ZM48.1144 2.26937C47.4684 1.62337 46.5753 1.22456 45.5895 1.22456C44.6036 1.22456 43.7104 1.6234 43.0645 2.26937C42.4185 2.91537 42.0197 3.80851 42.0197 4.79435C42.0197 5.7802 42.4185 6.67337 43.0645 7.31934C43.7105 7.96534 44.6036 8.36415 45.5895 8.36415C46.5753 8.36415 47.4685 7.96531 48.1144 7.31934C48.7604 6.67334 49.1593 5.7802 49.1593 4.79435C49.1593 3.8057 48.7604 2.91534 48.1144 2.26937ZM14.4887 0C15.8116 0 17.0109 0.536454 17.8788 1.40432C18.7466 2.27218 19.2831 3.4687 19.2831 4.79435C19.2831 6.11721 18.7466 7.31653 17.8788 8.18439C17.0109 9.05225 15.8144 9.58871 14.4887 9.58871C13.1659 9.58871 11.9666 9.05226 11.0987 8.18439C10.2308 7.31653 9.69438 6.12001 9.69438 4.79435C9.69438 3.4715 10.2308 2.27218 11.0987 1.40432C11.9666 0.536461 13.1659 0 14.4887 0ZM17.0137 2.26937C16.3677 1.62337 15.4746 1.22456 14.4887 1.22456C13.5029 1.22456 12.6097 1.6234 11.9638 2.26937C11.3178 2.91537 10.9189 3.80851 10.9189 4.79435C10.9189 5.7802 11.3178 6.67337 11.9638 7.31934C12.6098 7.96534 13.5029 8.36415 14.4887 8.36415C15.4746 8.36415 16.3678 7.96531 17.0137 7.31934C17.6597 6.67334 18.0585 5.7802 18.0585 4.79435C18.0585 3.8057 17.6597 2.91534 17.0137 2.26937ZM30.0373 1.20486C31.9164 1.20486 33.6184 1.96602 34.8514 3.19899C36.0844 4.43197 36.8455 6.13403 36.8455 8.01305C36.8455 9.89207 36.0844 11.5941 34.8514 12.8271C33.6184 14.0601 31.9164 14.8212 30.0373 14.8212C28.1583 14.8212 26.4563 14.0601 25.2233 12.8271C23.9903 11.5941 23.2291 9.89207 23.2291 8.01305C23.2291 6.13403 23.9903 4.43197 25.2233 3.19899C26.4563 1.96602 28.1583 1.20486 30.0373 1.20486ZM33.9891 4.06412C35.0002 5.0752 35.6238 6.47118 35.6238 8.01312C35.6238 9.55506 34.9974 10.951 33.9891 11.9621C32.9781 12.9732 31.5821 13.5967 30.0401 13.5967C28.4982 13.5967 27.1023 12.9704 26.0911 11.9621C25.08 10.951 24.4565 9.55506 24.4565 8.01312C24.4565 6.47118 25.0828 5.07528 26.0911 4.06412C27.1022 3.05303 28.4982 2.4295 30.0401 2.4295C31.5821 2.4295 32.978 3.05302 33.9891 4.06412ZM16.1596 38.178L16.1624 38.1808C21.6393 41.585 21.9314 42.6551 22.8611 46.0455C23.0605 46.7729 23.2852 47.5958 23.5801 48.5367L14.4435 51.4859C14.4435 51.4157 14.4463 51.3426 14.4463 51.2696C14.4519 50.809 14.4604 50.3455 14.3649 49.9524C14.0082 48.4778 12.4381 47.3543 10.6743 46.0904C9.54241 45.2787 8.32626 44.4052 7.37413 43.3969L6.84329 42.8352C6.83767 42.8296 6.82925 42.8211 6.82363 42.8155L6.77588 42.7622C6.5877 42.5515 6.41918 42.3521 6.34615 42.2397L6.2001 42.0151C5.34066 40.7174 3.43353 37.8386 2.50952 34.6508C2.11911 33.3027 1.84105 32.1399 1.64446 31.0923C1.45067 30.0615 1.33551 29.1403 1.2653 28.2611C1.20631 27.5168 1.19227 26.5169 1.299 25.5704C1.38045 24.843 1.53212 24.152 1.7849 23.6493C1.9787 23.2617 2.22867 23.0033 2.54886 22.978C2.59661 22.9752 2.64435 22.9752 2.6921 22.978C3.32125 23.1437 3.54033 24.3907 3.8549 26.163C4.13015 27.7247 4.47 29.6401 5.27612 31.6765C5.24803 32.1006 5.2705 32.5499 5.32667 33.0022C5.49239 34.3195 5.96705 35.7098 6.43612 36.5243C6.51477 36.6619 6.5906 36.7799 6.66082 36.8753C7.172 37.5747 8.25898 38.7965 9.42171 40.0183C10.5705 41.2232 11.7979 42.4365 12.618 43.1359C12.8736 43.3549 13.2583 43.324 13.4774 43.0684C13.6965 42.8129 13.6656 42.4281 13.41 42.209C12.6207 41.5349 11.4271 40.3553 10.3036 39.1756C9.17455 37.9904 8.12693 36.8107 7.64382 36.1535C7.59046 36.0805 7.5399 35.999 7.48935 35.9147C7.08771 35.2182 6.68045 34.0077 6.53442 32.8449C6.48667 32.4685 6.46701 32.1006 6.48105 31.7692C6.50914 31.6821 6.51757 31.5922 6.50352 31.4995C6.5597 31.0389 6.70013 30.671 6.96415 30.4772C6.98943 30.4575 7.0119 30.4435 7.02594 30.435C7.44724 30.1935 8.0202 31.1344 8.58478 32.0584C8.92463 32.6145 9.26167 33.1679 9.64087 33.5751C11.9131 36.0187 12.7613 36.4456 14.5055 37.3191C14.9717 37.5522 15.5023 37.8185 16.1596 38.178ZM5.91644 29.8C6.01474 29.6849 6.12147 29.5837 6.24505 29.4939C6.2956 29.4574 6.35458 29.418 6.42199 29.3787C7.87405 28.5417 8.75881 29.9966 9.62947 31.4235C9.93561 31.9262 10.2418 32.4261 10.5367 32.7435C12.6656 35.0326 13.4465 35.423 15.053 36.2291C15.5333 36.4706 16.0838 36.7459 16.7438 37.1054C16.7663 37.1167 16.7859 37.1279 16.8084 37.1391C22.687 40.7932 23.0128 41.9757 24.0382 45.7199C24.2291 46.4165 24.4454 47.2085 24.7431 48.155L25.9453 47.7674L25.9706 47.759C26.2907 47.6551 26.6362 47.8292 26.7401 48.1494L28.1444 52.4748V52.4776C28.2484 52.7978 28.0714 53.1404 27.7512 53.2443L14.0222 57.6764L13.997 57.6849C13.6768 57.7888 13.3313 57.6147 13.2274 57.2945L11.8231 52.9691V52.9663C11.7192 52.6461 11.8961 52.3035 12.2163 52.1996L13.2303 51.8709C13.2246 51.6687 13.2275 51.4581 13.2303 51.2502C13.2359 50.8654 13.2415 50.4807 13.1825 50.2335C12.9325 49.2055 11.5338 48.2028 9.96655 47.0765C8.90765 46.3182 7.77857 45.5093 6.80401 44.5459C6.79559 44.5375 6.78435 44.5319 6.77593 44.5235C6.7675 44.515 6.26756 44.0151 5.86594 43.5629C5.65528 43.3242 5.45306 43.0826 5.32948 42.8973C5.08232 42.5209 5.36319 42.9506 5.18343 42.6782C4.29307 41.3356 2.31857 38.3529 1.34113 34.9796C0.936685 33.5837 0.650198 32.3844 0.447967 31.3087C0.242931 30.2189 0.122157 29.2555 0.0491337 28.3483C-0.0154659 27.5451 -0.0295131 26.4637 0.0884551 25.4273C0.183948 24.5735 0.37213 23.7421 0.69794 23.0961C1.07992 22.3322 1.64446 21.8154 2.45616 21.7508C2.58255 21.7395 2.71737 21.7423 2.8578 21.7592C2.87746 21.762 2.89712 21.7648 2.91397 21.7676C4.37444 22.0738 4.65817 23.6663 5.05981 25.9441C5.25923 27.0788 5.49233 28.4013 5.91644 29.8ZM6.20011 42.009C6.11304 41.877 6.25909 42.096 6.20011 42.009V42.009ZM14.1935 52.8446C14.1345 52.8811 14.0671 52.9064 13.994 52.9204C13.9772 52.9233 13.9575 52.9261 13.9407 52.9289L13.1739 53.176L14.2019 56.3414L26.7991 52.2773L25.7712 49.1119L14.1935 52.8446ZM43.7517 38.178L43.7489 38.1808C38.2719 41.585 37.9799 42.6551 37.0502 46.0455C36.8508 46.7729 36.6261 47.5958 36.3312 48.5367L45.4677 51.4859C45.4677 51.4157 45.4649 51.3426 45.4649 51.2696C45.4593 50.809 45.4509 50.3455 45.5464 49.9524C45.9031 48.4778 47.4731 47.3543 49.237 46.0904C50.3689 45.2787 51.585 44.4052 52.5371 43.3969L53.068 42.8352C53.0736 42.8296 53.082 42.8211 53.0876 42.8155L53.1382 42.7593C53.3264 42.5487 53.4949 42.3493 53.5679 42.2369L53.714 42.0151C53.6859 42.06 53.6971 42.0403 53.714 42.0151C54.5734 40.7174 56.4805 37.8386 57.4046 34.6508C57.795 33.3027 58.073 32.1399 58.2696 31.0923C58.4634 30.0615 58.5786 29.1403 58.6488 28.2611C58.7078 27.5168 58.7218 26.5197 58.6151 25.5704C58.5336 24.843 58.382 24.152 58.1292 23.6493C57.9354 23.2617 57.6854 23.0033 57.3652 22.978C57.3203 22.9752 57.2697 22.9752 57.222 22.978C56.5928 23.1437 56.3737 24.3907 56.0592 26.163C55.7839 27.7247 55.4441 29.6402 54.638 31.6765C54.666 32.1006 54.6436 32.55 54.5874 33.0022C54.4217 34.3195 53.947 35.7126 53.4779 36.5243C53.3993 36.6619 53.3235 36.7799 53.2533 36.8753C52.7421 37.5747 51.6551 38.7965 50.4924 40.0183C49.3436 41.2232 48.1162 42.4365 47.2961 43.1359C47.0405 43.3549 46.6557 43.324 46.4367 43.0684C46.2176 42.8129 46.2485 42.4281 46.5041 42.209C47.2933 41.5349 48.487 40.3553 49.6104 39.1756C50.7395 37.9904 51.7871 36.8107 52.2702 36.1535C52.3236 36.0805 52.3742 36.0018 52.4247 35.9176C52.8264 35.221 53.2336 34.0105 53.3797 32.8477C53.4274 32.4713 53.4471 32.1034 53.433 31.772C53.4049 31.6849 53.3965 31.595 53.4105 31.5023C53.3544 31.0417 53.2139 30.6738 52.9499 30.48C52.9246 30.4603 52.9022 30.4463 52.8881 30.4378C52.4668 30.1963 51.8939 31.1372 51.3293 32.0612C50.9895 32.6174 50.6524 33.1707 50.2732 33.5779C48.001 36.0215 47.1528 36.4484 45.4086 37.3219C44.9395 37.5522 44.4089 37.8185 43.7517 38.178ZM53.7137 42.009C53.7362 41.9725 53.7699 41.9248 53.7137 42.009V42.009ZM45.9698 52.9266C45.953 52.9238 45.9333 52.921 45.9165 52.9182C45.8434 52.9042 45.776 52.8789 45.7171 52.8424L34.1423 49.1069L33.1143 52.2722L45.7115 56.3363L46.7395 53.171L45.9698 52.9266Z" fill="white"/>
</svg>
