<svg width="58" height="57" viewBox="0 0 58 57" fill="none" xmlns="http://www.w3.org/2000/svg">
<path d="M18.4595 17.8799C23.3907 17.8799 27.3994 13.8712 27.3994 8.93994C27.3994 4.00868 23.3907 0 18.4595 0C13.5282 0 9.51953 4.00868 9.51953 8.93994C9.51953 13.8712 13.5282 17.8799 18.4595 17.8799ZM18.4595 1.52681C22.5461 1.52681 25.8726 4.85329 25.8726 8.93994C25.8726 13.0266 22.5461 16.3531 18.4595 16.3531C14.3728 16.3531 11.0463 13.0266 11.0463 8.93994C11.0463 4.85329 14.3728 1.52681 18.4595 1.52681Z" fill="white"/>
<path d="M40.9616 21.3295C45.3147 21.3295 48.849 17.7886 48.849 13.4421C48.849 9.09558 45.3082 5.55469 40.9616 5.55469C36.6151 5.55469 33.0742 9.09558 33.0742 13.4421C33.0742 17.7886 36.6151 21.3295 40.9616 21.3295ZM40.9616 7.08149C44.47 7.08149 47.3222 9.9337 47.3222 13.4421C47.3222 16.9505 44.47 19.8027 40.9616 19.8027C37.4532 19.8027 34.601 16.9505 34.601 13.4421C34.601 9.9337 37.4532 7.08149 40.9616 7.08149Z" fill="white"/>
<path d="M56.3056 30.3566C55.7339 28.9533 54.9023 27.6928 53.8432 26.6078C52.7712 25.5163 51.5173 24.6587 50.1204 24.061C48.6651 23.4373 47.1253 23.1189 45.5335 23.1189H36.0089C34.7679 23.1189 33.5465 23.3203 32.377 23.7101C31.9742 23.8466 31.7598 24.2819 31.8962 24.6782C32.0067 24.9965 32.299 25.198 32.6239 25.198C32.7019 25.198 32.7863 25.185 32.8708 25.159C33.8778 24.8211 34.9368 24.6457 36.0153 24.6457H45.54C46.9174 24.6457 48.2623 24.9186 49.5227 25.4578C50.7377 25.9776 51.8292 26.7248 52.7582 27.6733C53.6808 28.6154 54.402 29.7069 54.8958 30.9284C55.409 32.1953 55.6624 33.5272 55.6364 34.9045C55.5585 38.9782 54.5644 42.4281 52.6738 45.1569C51.4588 46.9176 49.8736 48.3534 47.9764 49.4254C45.9363 50.5819 43.4999 51.3226 40.7387 51.6344C40.6283 51.6474 40.5178 51.6539 40.4074 51.6539C39.8291 51.6539 39.2964 51.485 38.8416 51.1926C38.8221 51.1796 38.8026 51.1667 38.7831 51.1537C38.1074 50.6924 37.6331 49.9517 37.5357 49.0811C37.3537 47.4958 38.5037 46.06 40.089 45.8781C43.7728 45.4622 46.3262 44.1498 47.9114 41.8564C49.1394 40.0827 49.7891 37.7048 49.8476 34.7876C49.8541 34.3653 49.5227 34.0145 49.1004 34.008C48.6781 34.0015 48.3273 34.3328 48.3208 34.7551C48.2688 37.3669 47.71 39.459 46.6575 40.9858C45.3386 42.8894 43.1361 43.9939 39.9201 44.3577C39.5627 44.3967 39.2249 44.4812 38.9 44.5981C38.1854 42.3891 36.1063 40.8234 33.7024 40.8234H26.2763C23.7489 40.8234 21.6179 42.5321 20.9942 44.8775C20.5719 44.7086 20.1236 44.5916 19.6623 44.5397C15.933 44.1174 13.3796 42.8374 11.8463 40.6219C10.6249 38.8548 9.97518 36.4249 9.91671 33.4102C9.91021 32.9944 9.56587 32.6566 9.15006 32.6566H9.13706C8.71476 32.6631 8.37691 33.0139 8.3899 33.4362C8.45487 36.7627 9.19554 39.472 10.5924 41.4861C12.3921 44.0849 15.3028 45.5792 19.4934 46.0535C20.4029 46.1574 21.2216 46.6057 21.7933 47.3269C22.3651 48.0416 22.6249 48.9447 22.521 49.8543C22.4105 50.8288 21.9038 51.6734 21.1696 52.2192C21.1436 52.2322 21.1176 52.2517 21.0981 52.2712C20.5394 52.6675 19.8507 52.9014 19.1165 52.9014C18.9866 52.9014 18.8566 52.8949 18.7267 52.8819C15.5432 52.5245 12.7364 51.6669 10.378 50.335C8.182 49.0941 6.34983 47.4309 4.94647 45.3973C2.76996 42.2462 1.61998 38.2635 1.52902 33.5662C1.49654 31.9744 1.7889 30.4216 2.38663 28.9597C2.95837 27.5499 3.79649 26.283 4.8685 25.1915C5.94701 24.0935 7.20744 23.2294 8.6173 22.6251C10.0791 21.9949 11.6319 21.6831 13.2302 21.6831H24.0088C25.6266 21.6831 27.1924 22.0079 28.6607 22.6576C28.7581 22.7031 28.8621 22.7226 28.9661 22.7226C29.2584 22.7226 29.5378 22.5537 29.6677 22.2678C29.8367 21.878 29.6677 21.4297 29.2779 21.2607C27.6147 20.5331 25.841 20.1562 24.0153 20.1562H13.2367C11.4305 20.1562 9.66982 20.5136 8.01957 21.2218C6.4213 21.904 4.99844 22.8785 3.777 24.1259C2.56855 25.3604 1.61998 26.7962 0.970275 28.388C0.294582 30.0448 -0.0302697 31.799 0.00221551 33.5986C0.0996712 38.6014 1.34061 42.8699 3.69254 46.2679C4.99195 48.1455 6.62271 49.7373 8.53934 50.9977V55.7276C8.53934 56.1499 8.88368 56.4942 9.30599 56.4942C9.72829 56.4942 10.0726 56.1499 10.0726 55.7276V51.9073C12.5155 53.2002 15.3677 54.0448 18.5643 54.4022C18.7527 54.4217 18.9411 54.4347 19.1295 54.4347C19.7273 54.4347 20.299 54.3307 20.8317 54.1358V55.7341C20.8317 56.1564 21.1761 56.5007 21.5984 56.5007C22.0207 56.5007 22.3651 56.1564 22.3651 55.7341V53.2392C23.2876 52.4466 23.9178 51.3226 24.0608 50.0297C24.2102 48.7108 23.8334 47.4114 23.0083 46.3783C22.8198 46.1444 22.6184 45.93 22.3975 45.7416C22.6639 43.812 24.3077 42.3567 26.2893 42.3567H33.7154C35.5671 42.3567 37.1393 43.6431 37.5486 45.4038C36.4766 46.3264 35.8659 47.7492 36.0348 49.2565C36.1713 50.452 36.7755 51.4915 37.6526 52.2062V55.7471C37.6526 56.1694 37.9969 56.5137 38.4193 56.5137C38.8416 56.5137 39.1859 56.1694 39.1859 55.7471V53.0118C39.5822 53.1288 39.998 53.1937 40.4333 53.1937C40.6023 53.1937 40.7647 53.1872 40.9336 53.1677C43.6754 52.8559 46.1248 52.1477 48.2363 51.0497V55.7536C48.2363 56.1759 48.5806 56.5202 49.0029 56.5202C49.4253 56.5202 49.7696 56.1759 49.7696 55.7536V50.1466C51.4263 49.0421 52.8297 47.6647 53.9602 46.0405C56.0198 43.0583 57.1113 39.329 57.1892 34.95C57.2217 33.3712 56.9358 31.8249 56.3381 30.3696L56.3056 30.3566Z" fill="white"/>
<path d="M23.6836 32.6081C23.6836 36.0776 26.5098 38.9038 29.9792 38.9038C33.4487 38.9038 36.2749 36.0776 36.2749 32.6081C36.2749 29.1387 33.4487 26.3125 29.9792 26.3125C26.5098 26.3125 23.6836 29.1387 23.6836 32.6081ZM29.9792 27.8458C32.604 27.8458 34.7416 29.9833 34.7416 32.6081C34.7416 35.2329 32.604 37.3705 29.9792 37.3705C27.3544 37.3705 25.2169 35.2329 25.2169 32.6081C25.2169 29.9833 27.3544 27.8458 29.9792 27.8458Z" fill="white"/>
</svg>
