<svg width="72" height="72" viewBox="0 0 72 72" fill="none" xmlns="http://www.w3.org/2000/svg">
<path d="M41.0337 33.609C43.0741 32.0727 44.4034 29.6421 44.4034 26.8966C44.4034 22.2637 40.6347 18.4922 35.999 18.4922C31.3661 18.4922 27.5946 22.264 27.5946 26.8966C27.5946 29.6421 28.9209 32.0757 30.9643 33.609C25.0261 35.5174 20.7109 41.0895 20.7109 47.6547V49.9801C20.7109 50.6433 21.248 51.1804 21.9112 51.1804H50.0872C50.7503 51.1804 51.2874 50.6433 51.2874 49.9801V47.6547C51.2874 41.0894 46.9752 35.5171 41.0337 33.609ZM29.9946 26.8966C29.9946 23.5839 32.6891 20.8924 35.9988 20.8924C39.3085 20.8924 42.003 23.5869 42.003 26.8966C42.003 30.2093 39.3085 32.9008 35.9988 32.9008C32.6891 32.9008 29.9946 30.2063 29.9946 26.8966ZM48.8866 48.7829H23.1111V47.6577C23.1111 40.8463 28.6532 35.3011 35.4677 35.3011H36.5329C43.3443 35.3011 48.8895 40.8432 48.8895 47.6577V48.7829H48.8866Z" fill="white"/>
<path d="M70.7968 34.798H66.908C66.2838 18.6967 53.3032 5.71639 37.1987 5.09802V1.20024C37.1987 0.53711 36.6616 0 35.9985 0C35.3354 0 34.7983 0.53711 34.7983 1.20024V5.09802C18.6939 5.71615 5.71048 18.6967 5.08904 34.798H1.20024C0.53711 34.798 0 35.3351 0 35.9983C0 36.6614 0.53711 37.1985 1.20024 37.1985H5.08904C5.70416 53.3091 18.6877 66.2986 34.7983 66.917V70.7998C34.7983 71.4629 35.3354 72 35.9985 72C36.6616 72 37.1987 71.4629 37.1987 70.7998V66.917C53.3093 66.2988 66.2927 53.3091 66.908 37.1985H70.7968C71.4599 37.1985 71.997 36.6614 71.997 35.9983C71.997 35.3351 71.4599 34.798 70.7968 34.798ZM37.1991 64.5165V60.0876C37.1991 59.4244 36.662 58.8873 35.9989 58.8873C35.3358 58.8873 34.7986 59.4244 34.7986 60.0876V64.5165C20.0116 63.9013 8.10213 51.9863 7.48991 37.1993H11.9098C12.5729 37.1993 13.1101 36.6622 13.1101 35.999C13.1101 35.3359 12.5729 34.7988 11.9098 34.7988H7.48991C8.10804 20.0179 20.0178 8.11457 34.7986 7.49928V11.9102C34.7986 12.5733 35.3358 13.1104 35.9989 13.1104C36.662 13.1104 37.1991 12.5733 37.1991 11.9102V7.49928C51.98 8.1144 63.8864 20.021 64.5079 34.7988H60.088C59.4248 34.7988 58.8877 35.3359 58.8877 35.999C58.8877 36.6622 59.4248 37.1993 60.088 37.1993H64.5079C63.8957 51.9863 51.9861 63.9019 37.1991 64.5165Z" fill="white"/>
</svg>
