<svg width="58" height="61" viewBox="0 0 58 61" fill="none" xmlns="http://www.w3.org/2000/svg">
<path fill-rule="evenodd" clip-rule="evenodd" d="M24.9015 20.9554L24.8809 20.9583H24.7545L24.7428 20.9554L24.7252 20.9525H24.7163L24.7046 20.9495C24.5459 20.9231 24.4049 20.8467 24.2991 20.7409L24.2668 20.7086L24.255 20.6939L24.2492 20.6851L24.2433 20.6792L24.2374 20.6704L24.2315 20.6645L24.2198 20.6498L24.2139 20.641L24.208 20.6351L24.2021 20.6263L24.1963 20.6204L24.1904 20.6116L24.1845 20.6057L24.1786 20.5969L24.1757 20.5911L24.1698 20.5822L24.1669 20.5734L24.161 20.5646L24.1581 20.5558L24.1493 20.5382L24.1434 20.5293L24.1346 20.5029L24.1257 20.4853L24.1052 20.4236L24.1169 20.4206L24.1111 20.403C24.0993 20.3531 24.0905 20.3031 24.0876 20.2532V13.4099L20.5411 11.3619V28.257L28.2248 32.6937L28.2277 32.6966V32.6937L35.165 36.6985L35.162 19.8065L30.6635 17.2091V22.9093C30.6635 23.3236 30.3256 23.6615 29.9113 23.6615C29.6616 23.6615 29.4412 23.541 29.3061 23.3559L27.0612 20.7732L24.9221 20.9583L24.9015 20.9554ZM30.3461 57.6866C30.3079 57.6807 30.2726 57.6748 30.2373 57.6631C28.5714 57.1665 27.0023 56.6699 25.0131 55.9882C23.118 55.3418 20.8144 54.5191 17.6381 53.3585L15.5607 54.5573C15.7194 55.0715 15.7223 55.6121 15.5872 56.1117C15.4021 56.808 14.9467 57.4339 14.2767 57.8246C14.262 57.8335 14.2473 57.8393 14.2326 57.8481L10.9917 59.7198V59.7228C10.3189 60.1106 9.54903 60.1899 8.85265 60.0048C8.15628 59.8197 7.5275 59.3643 7.13967 58.6944L0.375788 46.9797C0.366973 46.9621 0.355221 46.9444 0.349344 46.9268C-0.0150042 46.2657 -0.0855152 45.5194 0.0966513 44.8407C0.281759 44.1443 0.737191 43.5184 1.40713 43.1277L1.413 43.1247L4.69212 41.2325C5.36498 40.8447 6.13483 40.7653 6.83121 40.9504C7.33366 41.0856 7.80087 41.3589 8.16809 41.7526L13.216 38.8378C14.6646 37.9563 16.1983 37.4363 17.8202 37.2806C19.4157 37.1278 21.0876 37.3276 22.833 37.8859L33.202 40.6625H33.2049C34.1069 40.9034 34.8268 41.4941 35.2617 42.2463C35.6966 43.0014 35.8464 43.9211 35.6055 44.8231V44.8261L35.6025 44.8319C35.4204 45.5077 35.0443 46.0807 34.5477 46.5068L35.4997 46.7624L52.4008 36.9929V36.9958L52.4037 36.9929C53.817 36.1761 55.195 36.5022 56.2029 37.3514C56.5761 37.6628 56.8904 38.0477 57.1343 38.4679C57.3782 38.8881 57.5516 39.3523 57.6397 39.8254C57.8748 41.0977 57.4899 42.4169 56.1677 43.1956L40.0278 55.4451L39.9985 55.4715C38.6351 56.5587 37.1395 57.2874 35.5118 57.6576C33.9045 58.0219 32.1825 58.0303 30.3461 57.6866ZM14.8704 53.2233L17.1887 51.8835C17.3738 51.7778 17.603 51.7484 17.8204 51.8277C21.1142 53.0324 23.5001 53.8874 25.492 54.5662C27.4401 55.2331 28.9885 55.7239 30.631 56.2145C32.2647 56.5171 33.7808 56.5113 35.1795 56.1939C36.4517 55.906 37.6358 55.3565 38.7348 54.5456L38.9728 54.3663L39.0609 54.2958C39.0815 54.2811 39.1021 54.2664 39.1227 54.2518L55.3069 41.9639C55.3304 41.9463 55.3568 41.9286 55.3833 41.914V41.911C56.0884 41.5026 56.2912 40.7886 56.1619 40.0922C56.1061 39.7925 55.9915 39.4928 55.8328 39.2166C55.6712 38.9404 55.4685 38.6906 55.2364 38.4938C54.6811 38.0266 53.923 37.8444 53.1502 38.2881V38.291L35.9791 48.2162C35.7999 48.3191 35.5942 48.3396 35.4091 48.2926L31.4425 47.2231L25.7482 45.6982C25.3486 45.5924 25.1106 45.1781 25.2163 44.7784C25.3221 44.3788 25.7364 44.1408 26.136 44.2466L31.8304 45.7715C32.3211 45.9038 32.8206 45.8274 33.2349 45.6011L33.2643 45.5835C33.6844 45.3396 34.0135 44.9371 34.1487 44.4347V44.4317C34.2839 43.9293 34.2016 43.4151 33.9577 42.9949C33.7138 42.5747 33.3113 42.2456 32.8089 42.1105L22.4429 39.3338V39.3309L22.4076 39.3191C20.8445 38.8167 19.3606 38.6345 17.9591 38.7697C16.5692 38.9048 15.247 39.3514 13.9954 40.1154V40.1125L13.9777 40.1213L8.97686 43.0096L14.8704 53.2233ZM7.31611 43.1334L7.30142 43.1099L7.26616 43.0482L7.24266 43.01C7.06048 42.6956 6.76666 42.484 6.44052 42.3959C6.11437 42.3077 5.75297 42.343 5.44153 42.5252L2.15948 44.4203C1.84508 44.6025 1.63353 44.8963 1.54832 45.2225C1.46311 45.5398 1.49543 45.8865 1.65997 46.1921L1.6776 46.2215L8.44149 57.9362C8.62366 58.2506 8.91749 58.4622 9.24363 58.5503C9.56977 58.6385 9.93118 58.6032 10.2426 58.421V58.4239L10.2456 58.421L13.4865 56.5493L13.5247 56.5258C13.8391 56.3436 14.0506 56.0498 14.1358 55.7237C14.224 55.3946 14.1887 55.0361 14.0065 54.7218L7.31611 43.1334ZM21.2844 10.0632L28.2246 6.05539L35.9113 1.61865L39.4636 3.66958L24.8372 12.1115L21.2844 10.0632ZM40.9618 4.5304L43.6003 6.05239L44.5347 6.59303L42.1106 7.99166L42.0959 8.00047L29.5786 15.2286C29.326 15.3491 29.1555 15.6076 29.1555 15.9044V20.8965L27.9744 19.539C27.8245 19.3363 27.5748 19.2129 27.3044 19.2364L25.5855 19.3833V13.4039L28.703 11.6028L28.7059 11.5999L40.9618 4.5304ZM46.3976 5.93783L46.427 5.95546L52.4093 9.41089L52.4122 9.41383C52.5209 9.47847 52.6179 9.56955 52.6855 9.68708C52.7618 9.81931 52.7942 9.96622 52.7854 10.1073L52.6884 28.7474C52.6854 29.006 52.5532 29.2557 52.3123 29.3938L42.375 35.1293L42.3368 35.1528L36.334 38.62C36.2135 38.7022 36.0695 38.7493 35.9138 38.7493C35.7581 38.7493 35.6141 38.7022 35.4936 38.62L27.4752 33.9893V33.9864L19.4741 29.3674C19.2126 29.2499 19.0334 28.9855 19.0334 28.6828V10.063H19.0363C19.0363 9.80443 19.1715 9.55174 19.4095 9.41364L27.4723 4.7565V4.75944L27.4752 4.7565L35.4966 0.125842C35.7258 -0.0269435 36.0343 -0.047516 36.2899 0.102336L44.3527 4.75654L46.3976 5.93783ZM46.0391 7.46275L50.5406 10.0631L35.9141 18.508L31.4127 15.9076L46.0391 7.46275ZM51.284 11.3648L36.6658 19.8066V36.6957L41.5845 33.8544C41.5992 33.8456 41.6139 33.8397 41.6286 33.8309L51.1927 28.3099L51.284 11.3648Z" fill="white"/>
</svg>
