<svg width="65" height="52" viewBox="0 0 65 52" fill="none" xmlns="http://www.w3.org/2000/svg">
<path d="M64.5399 38.2813C64.5399 37.8194 64.5399 37.3574 64.4736 36.829C64.4736 35.8388 64.4736 34.7821 64.2745 33.728C63.2178 27.6561 58.5318 23.1692 52.3933 22.3087C52.1942 22.3087 52.064 22.2424 51.8649 22.2424C54.966 21.1857 57.1456 18.2812 57.1456 14.7846C57.0793 10.2977 53.5826 6.86489 49.2919 6.86489C44.9351 6.86489 41.3055 10.3641 41.2395 14.7186C41.2395 16.8294 42.0971 18.8763 43.5494 20.3949C43.945 20.8569 44.4734 21.1861 44.9353 21.518C42.9548 20.9233 41.3059 19.8692 40.0502 18.2842C38.136 15.908 37.212 13.0699 36.4208 10.2979C35.8261 8.25092 34.31 6.99772 32.3958 6.9314H32.1967C30.3489 6.9314 28.8303 8.1846 28.2356 10.1651L28.0365 10.6935C27.5745 12.013 27.1125 13.3989 26.5842 14.6546C25.331 17.6255 23.6133 19.6699 21.2371 20.8593C20.7088 21.1222 20.1141 21.3212 19.522 21.5203C21.7655 20.1344 23.2841 17.6918 23.2841 14.9198C23.2841 10.3001 19.7848 6.80078 15.2317 6.80078C10.8749 6.80078 7.31198 10.3638 7.31198 14.7871C7.31198 18.2864 9.55546 21.1883 12.7228 22.3116C12.4599 22.3116 12.2609 22.3779 11.998 22.4443C5.53555 23.432 0.915837 28.1818 0.191229 34.4529C-0.0716551 36.3671 -0.00785176 38.3477 0.0585129 40.2619V42.3088C0.0585129 44.4859 1.70727 46.27 4.01968 46.4002H4.21876C5.20903 46.4002 6.06661 46.0046 6.72764 45.4099V48.1817C6.72764 50.0959 7.71792 51.0862 9.63215 51.0862H22.1053C24.0859 51.0862 25.0098 50.1622 25.0098 48.1817L25.0073 28.3148V28.1821H25.14C27.6489 26.9289 29.6933 25.1474 31.3446 22.9677C31.6739 22.5057 32.0057 22.0437 32.2686 21.5818C34.1828 24.4863 36.559 26.7298 39.5271 28.1823V28.2487V48.3789C39.5271 50.2268 40.451 51.1507 42.2989 51.1507H54.9047C56.8853 51.1507 57.8092 50.2268 57.8092 48.2462V45.6071C58.4702 46.2018 59.3278 46.5311 60.3181 46.5311C62.7607 46.5311 64.4758 44.7495 64.4758 42.3734L64.5399 38.2813ZM42.5619 14.6522C42.6283 11.0228 45.5966 8.11832 49.2951 8.11832C52.9244 8.11832 55.7626 11.0228 55.8289 14.7188C55.8289 18.4145 52.9244 21.3194 49.1624 21.3194C45.5969 21.3857 42.5619 18.2847 42.5619 14.6529V14.6522ZM8.63929 14.7186C8.63929 11.0229 11.5438 8.05204 15.2398 8.05204C19.1346 8.05204 21.973 10.9565 21.973 14.8486C21.973 18.3478 19.0021 21.3161 15.3725 21.3161C11.6741 21.385 8.63929 18.3507 8.63929 14.7186ZM63.2201 42.2399C63.2201 43.9551 62.0333 45.0781 60.3819 45.0781C58.7969 45.0781 57.873 43.8913 57.873 42.1736V37.0256C57.873 36.7627 57.873 36.4973 57.8067 36.3008C57.7403 35.9715 57.4774 35.6397 57.0155 35.6397H56.9491C56.6199 35.6397 56.4871 36.1017 56.4871 36.3646V48.1125C56.4871 49.3657 56.0915 49.6975 54.9021 49.6975H42.2963C41.1733 49.6975 40.844 49.3682 40.844 48.2452V28.115C40.844 27.5867 40.7777 27.191 40.2494 26.9919C36.8829 25.3432 34.3765 22.7015 32.5923 19.4675C32.5259 19.3348 32.4596 19.2046 32.3294 19.0055C31.5382 20.0622 30.9435 21.1163 30.2186 22.0402C28.7 24.151 26.7858 25.7359 24.476 26.8589C23.8149 27.1218 23.6184 27.52 23.6184 28.1785V48.1094C23.6184 49.2962 23.2891 49.6944 22.0334 49.6944H9.56021C8.37339 49.6944 7.97522 49.2988 7.97522 48.1094V36.7568C7.97522 36.5577 7.97522 36.2948 7.90886 36.0958C7.8425 35.8329 7.64598 35.5011 7.38054 35.5011H7.31418C6.78586 35.5011 6.71949 35.963 6.71949 36.2259V40.7129C6.71949 41.3076 6.71949 41.8997 6.65313 42.4944C6.45405 43.9467 5.53009 45.0033 4.14425 45.0033H4.01153C2.42654 44.8706 1.30611 43.7501 1.30611 42.2315C1.30611 39.6588 1.10703 37.0835 1.43883 34.5111C2.09986 28.7021 6.25757 24.5443 12.1969 23.5537C13.4501 23.2909 14.7696 23.2909 16.0253 23.2245C18.0723 23.1581 19.9865 22.7625 21.8343 21.905C24.7388 20.4527 26.5867 17.9438 27.8399 15.0418C28.5009 13.5232 28.9629 11.9407 29.4887 10.4221C29.9506 9.03624 30.9409 8.11228 32.1941 8.11228H32.3268C33.7127 8.17864 34.703 9.03624 35.0986 10.5548C36.0225 13.5257 37.0128 16.494 38.9934 18.9365C40.9739 21.4454 43.613 22.6986 46.7138 23.0942C48.5617 23.2933 50.4095 23.2933 52.191 23.5562C57.801 24.3474 62.0252 28.3749 62.9491 33.8523C63.1481 35.3046 63.0818 36.7568 63.1482 38.2754C63.2196 39.6 63.2196 40.9196 63.2196 42.2391L63.2201 42.2399Z" fill="white"/>
<path d="M32.3316 4.35928C32.7272 4.35928 32.9926 4.09639 32.9926 3.69824L32.99 0.661033C32.99 0.265426 32.7271 0 32.329 0C31.9334 0 31.668 0.262885 31.668 0.661033V3.69569C31.6705 4.09386 31.936 4.35928 32.3316 4.35928Z" fill="white"/>
<path d="M36.2267 6.2055C36.3595 6.2055 36.556 6.13914 36.6887 6.07278L39.1976 3.89569C39.4605 3.63281 39.5268 3.23466 39.2639 2.97173C39.0011 2.70885 38.6029 2.64249 38.34 2.90538L35.8311 5.08246C35.5682 5.34535 35.5019 5.7435 35.7648 6.00642C35.8949 6.13914 36.0277 6.2055 36.2267 6.2055Z" fill="white"/>
<path d="M27.9073 6.0033C28.04 6.13601 28.1702 6.13602 28.3693 6.13602C28.5683 6.13602 28.7649 6.06966 28.8976 5.93693C29.1605 5.67405 29.0967 5.2759 28.8312 5.01298L26.3223 2.83589C26.0595 2.573 25.6613 2.63681 25.3984 2.90225C25.1355 3.16513 25.1993 3.56328 25.4647 3.8262L27.9073 6.0033Z" fill="white"/>
</svg>
