<svg width="49" height="64" viewBox="0 0 49 64" fill="none" xmlns="http://www.w3.org/2000/svg">
<path d="M10.0519 22.7734H9.31941C6.32305 22.7734 3.85938 25.2371 3.85938 28.2335V28.9659C3.85938 31.9623 6.32305 34.426 9.31941 34.426H10.0519C13.0482 34.426 15.5119 31.9623 15.5119 28.9659V28.2335C15.5785 25.2371 13.1148 22.7734 10.0519 22.7734ZM13.1148 29.0325C13.1148 30.6971 11.7831 32.0954 10.0519 32.0954H9.31941C7.65476 32.0954 6.25646 30.7637 6.25646 29.0325V28.3001C6.25646 26.6354 7.58818 25.2371 9.31941 25.2371H10.0519C11.7165 25.2371 13.1148 26.5688 13.1148 28.3001V29.0325Z" fill="white"/>
<path d="M24.4972 22.7734H23.7647C20.7684 22.7734 18.3047 25.2371 18.3047 28.2335V28.9659C18.3047 31.9623 20.7684 34.426 23.7647 34.426H24.4972C27.4935 34.426 29.9572 31.9623 29.9572 28.9659V28.2335C29.9572 25.2371 27.4935 22.7734 24.4972 22.7734ZM27.4935 29.0325C27.4935 30.6971 26.1618 32.0954 24.4306 32.0954H23.6981C22.0335 32.0954 20.6352 30.7637 20.6352 29.0325V28.3001C20.6352 26.6354 21.9669 25.2371 23.6981 25.2371H24.4306C26.0952 25.2371 27.4935 26.5688 27.4935 28.3001V29.0325Z" fill="white"/>
<path d="M38.8839 22.7734H38.1514C35.1551 22.7734 32.6914 25.2371 32.6914 28.2335V28.9659C32.6914 31.9623 35.1551 34.426 38.1514 34.426H38.8839C41.8802 34.426 44.3439 31.9623 44.3439 28.9659V28.2335C44.3439 25.2371 41.8802 22.7734 38.8839 22.7734ZM41.8802 29.0325C41.8802 30.6971 40.5485 32.0954 38.8173 32.0954H38.0849C36.4202 32.0954 35.0219 30.7637 35.0219 29.0325V28.3001C35.0219 26.6354 36.3536 25.2371 38.0849 25.2371H38.8173C40.4819 25.2371 41.8802 26.5688 41.8802 28.3001V29.0325Z" fill="white"/>
<path d="M10.0519 37.1562H9.31941C6.32305 37.1562 3.85938 39.6199 3.85938 42.6163V43.3487C3.85938 46.3451 6.32305 48.8088 9.31941 48.8088H10.0519C13.0482 48.8088 15.5119 46.3451 15.5119 43.3487V42.6163C15.5785 39.6199 13.1148 37.1562 10.0519 37.1562ZM13.1148 43.4153C13.1148 45.08 11.7831 46.4783 10.0519 46.4783H9.31941C7.65476 46.4783 6.25646 45.1465 6.25646 43.4153V42.6829C6.25646 41.0182 7.58818 39.6199 9.31941 39.6199H10.0519C11.7165 39.6199 13.1148 40.9516 13.1148 42.6829V43.4153Z" fill="white"/>
<path d="M24.4972 37.1562H23.7647C20.7684 37.1562 18.3047 39.6199 18.3047 42.6163V43.3487C18.3047 46.3451 20.7684 48.8088 23.7647 48.8088H24.4972C27.4935 48.8088 29.9572 46.3451 29.9572 43.3487V42.6163C29.9572 39.6199 27.4935 37.1562 24.4972 37.1562ZM27.4935 43.4153C27.4935 45.08 26.1618 46.4783 24.4306 46.4783H23.6981C22.0335 46.4783 20.6352 45.1465 20.6352 43.4153V42.6829C20.6352 41.0182 21.9669 39.6199 23.6981 39.6199H24.4306C26.0952 39.6199 27.4935 40.9516 27.4935 42.6829V43.4153Z" fill="white"/>
<path d="M38.8839 37.1562H38.1514C35.1551 37.1562 32.6914 39.6199 32.6914 42.6163V43.3487C32.6914 46.3451 35.1551 48.8088 38.1514 48.8088H38.8839C41.8802 48.8088 44.3439 46.3451 44.3439 43.3487V42.6163C44.3439 39.6199 41.8802 37.1562 38.8839 37.1562ZM41.8802 43.4153C41.8802 45.08 40.5485 46.4783 38.8173 46.4783H38.0849C36.4202 46.4783 35.0219 45.1465 35.0219 43.4153V42.6829C35.0219 41.0182 36.3536 39.6199 38.0849 39.6199H38.8173C40.4819 39.6199 41.8802 40.9516 41.8802 42.6829V43.4153Z" fill="white"/>
<path d="M10.0519 51.6016H9.31941C6.32305 51.6016 3.85938 54.0652 3.85938 57.0616V57.794C3.85938 60.7904 6.32305 63.2541 9.31941 63.2541H10.0519C13.0482 63.2541 15.5119 60.7904 15.5119 57.794V57.0616C15.5785 53.9986 13.1148 51.6016 10.0519 51.6016ZM13.1148 57.794C13.1148 59.4587 11.7831 60.857 10.0519 60.857H9.31941C7.65476 60.857 6.25646 59.5253 6.25646 57.794V57.0616C6.25646 55.397 7.58818 53.9986 9.31941 53.9986H10.0519C11.7165 53.9986 13.1148 55.3304 13.1148 57.0616V57.794Z" fill="white"/>
<path d="M24.4972 51.6016H23.7647C20.7684 51.6016 18.3047 54.0652 18.3047 57.0616V57.794C18.3047 60.7904 20.7684 63.2541 23.7647 63.2541H24.4972C27.4935 63.2541 29.9572 60.7904 29.9572 57.794V57.0616C29.9572 53.9986 27.4935 51.6016 24.4972 51.6016ZM27.4935 57.794C27.4935 59.4587 26.1618 60.857 24.4306 60.857H23.6981C22.0335 60.857 20.6352 59.5253 20.6352 57.794V57.0616C20.6352 55.397 21.9669 53.9986 23.6981 53.9986H24.4306C26.0952 53.9986 27.4935 55.3304 27.4935 57.0616V57.794Z" fill="white"/>
<path d="M38.8839 51.6016H38.1514C35.1551 51.6016 32.6914 54.0652 32.6914 57.0616V57.794C32.6914 60.7904 35.1551 63.2541 38.1514 63.2541H38.8839C41.8802 63.2541 44.3439 60.7904 44.3439 57.794V57.0616C44.3439 53.9986 41.8802 51.6016 38.8839 51.6016ZM41.8802 57.794C41.8802 59.4587 40.5485 60.857 38.8173 60.857H38.0849C36.4202 60.857 35.0219 59.5253 35.0219 57.794V57.0616C35.0219 55.397 36.3536 53.9986 38.0849 53.9986H38.8173C40.4819 53.9986 41.8802 55.3304 41.8802 57.0616V57.794Z" fill="white"/>
<path d="M24.1041 0C10.5871 0 0 5.1271 0 11.6525C0 12.7845 0.332929 15.8474 0.998787 17.5786C1.59806 19.1101 3.06295 20.1089 4.72759 20.1089C4.86076 20.1089 5.06052 20.1089 5.19369 20.1089L12.3184 19.2433C14.4491 18.9769 15.9806 17.1125 15.8474 14.9818C15.7142 13.184 15.6477 12.385 15.6477 12.1852C15.6477 10.7869 21.5738 10.7869 24.1041 10.7869C26.6343 10.7869 32.5605 10.7869 32.5605 12.1852C32.5605 12.385 32.4939 13.3837 32.3607 14.9818C32.2275 17.1125 33.759 18.9769 35.8897 19.2433L43.0144 20.1089C44.8122 20.3087 46.4769 19.3099 47.1427 17.6452C47.8086 15.914 48.1415 12.9176 48.1415 11.7191C48.2081 5.12711 37.621 0 24.1041 0ZM44.8788 16.6464C44.6125 17.3123 43.9466 17.7118 43.2808 17.6452L36.1561 16.8462C35.3571 16.7796 34.7578 16.0472 34.8244 15.1816C34.8909 14.0496 35.0241 12.6513 35.0241 12.2518C35.0241 8.38981 29.2312 8.38981 24.1706 8.38981C19.1101 8.38981 13.3172 8.38981 13.3172 12.2518C13.3172 12.5847 13.3837 13.7167 13.5169 15.1816C13.5835 15.9806 12.9842 16.713 12.1852 16.8462L4.92735 17.6452C4.26149 17.7118 3.59563 17.3123 3.32929 16.6464C2.7966 15.3147 2.46367 12.6513 2.46367 11.6525C2.46367 7.19126 11.1864 2.39709 24.1041 2.39709C37.0883 2.39709 45.7444 7.19126 45.7444 11.6525C45.7444 12.6513 45.4115 15.3147 44.8788 16.6464Z" fill="white"/>
</svg>
