<svg width="56" height="45" viewBox="0 0 56 45" fill="none" xmlns="http://www.w3.org/2000/svg">
<path d="M24.1093 36.8755C24.4664 36.8478 24.7441 36.5467 24.7441 36.1841V7.58052C24.7441 7.34392 24.622 7.12268 24.4236 6.99363C24.2253 6.86765 23.975 6.84922 23.7614 6.95061L17.0293 10.1309C16.7882 10.2446 16.6325 10.4904 16.6325 10.7577V36.7191C16.6325 36.9127 16.7119 37.097 16.8553 37.2292C16.9835 37.349 17.1513 37.4135 17.3222 37.4135C17.3406 37.4135 17.3589 37.4135 17.3772 37.4105L24.1093 36.8755ZM23.3647 21.3525L21.378 21.9025V18.7622L23.3647 18.0831V21.3525ZM19.9986 22.2835L18.0119 22.8335V19.9145L19.9986 19.2354V22.2835ZM18.0119 24.2684L19.9986 23.7184V26.7911L18.0119 27.209V24.2684ZM21.378 23.3405L23.3647 22.7905V26.0844L21.378 26.5023V23.3405ZM23.3647 27.504V30.8164L21.378 31.1052V27.9249L23.3647 27.504ZM23.3647 16.6173L21.378 17.2964V14.1868L23.3647 13.3787V16.6173ZM19.9986 17.7665L18.0119 18.4455V15.5541L19.9986 14.746V17.7665ZM18.0119 28.6312L19.9986 28.2133V31.3044L18.0119 31.5933V28.6312ZM18.0119 32.9944L19.9986 32.7056V35.809L18.0119 35.9657V32.9944ZM21.378 35.7015V32.5059L23.3647 32.217V35.5417L21.378 35.7015ZM23.3647 11.8789L21.378 12.687V9.61117L23.3647 8.67093V11.8789ZM19.9986 10.2626V13.2493L18.0119 14.0574V11.1998L19.9986 10.2626ZM55.5695 22.99L47.9951 19.9081V15.5879C47.9951 15.3175 47.8394 15.0747 47.5983 14.961L42.3432 12.4814V11.0065C42.4043 11.0249 42.4622 11.0495 42.5233 11.0495C42.6484 11.0495 42.7735 11.0157 42.8834 10.9481C43.0879 10.8221 43.213 10.5978 43.213 10.3551L43.216 8.50219C43.216 8.24715 43.0756 8.01055 42.8529 7.89072L28.3264 0.0798904C28.3173 0.0737454 28.3081 0.0768181 28.2959 0.0706723C28.2745 0.0614547 28.2562 0.0522364 28.2349 0.0460906C28.2013 0.0338006 28.1647 0.0276548 28.1311 0.021509C28.0975 0.0153639 28.067 0.00614541 28.0334 0.00614541C28.0243 0.00614541 28.0151 0 28.0029 0C27.9907 0 27.9846 0.00614541 27.9724 0.00614541C27.9388 0.00614541 27.9083 0.0153639 27.8748 0.021509C27.8381 0.0276548 27.8046 0.0338006 27.7679 0.0460906C27.7466 0.0553089 27.7252 0.0614547 27.7069 0.0706723C27.6978 0.0737456 27.6856 0.0737454 27.6764 0.0798904L13.1499 7.89072C12.9241 8.01055 12.7868 8.24715 12.7868 8.50219V10.3551C12.7868 10.5978 12.9119 10.8221 13.1164 10.9481C13.2262 11.0157 13.3514 11.0495 13.4765 11.0495C13.5375 11.0495 13.5986 11.0218 13.6565 11.0065V11.7255L8.40142 14.2051C8.16033 14.3188 8.00469 14.5646 8.00469 14.835V18.129L0.430294 21.2109C0.170897 21.3185 0 21.5704 0 21.8531V42.9013C0 44.0598 1.09859 45 2.44748 45H41.6535H41.6565H53.5525C54.9014 45 56 44.0598 56 42.9013V23.6324C56 23.3497 55.8289 23.0945 55.5695 22.99ZM46.6156 16.0303V19.3489L42.3431 17.6098V14.0116L46.6156 16.0303ZM41.8366 9.2181L28.6898 2.43662V1.84974L41.8366 8.91698V9.2181ZM14.1634 8.91697L27.3101 1.84972V2.43661L14.1634 9.21808V8.91697ZM9.38433 15.2744L13.6568 13.2587V15.8305L9.38433 17.5696V15.2744ZM1.3797 42.901V22.3201L13.657 17.3238V43.6077L2.44766 43.6108C1.819 43.6108 1.3797 43.2359 1.3797 42.901ZM15.0335 10.3305L27.3108 3.99765V43.6107H23.9722V38.4946C23.9722 38.3041 23.8959 38.1228 23.7586 37.9907C23.6212 37.8586 23.4412 37.791 23.2489 37.8002L18.064 38.0522C17.6978 38.0706 17.4079 38.3748 17.4079 38.7466V43.6107H15.0367L15.0335 10.3305ZM22.5927 43.6113H18.7841V39.411L22.5927 39.2266V43.6113ZM37.2168 43.6113H33.4082V39.2235L37.2168 39.4079V43.6113ZM38.5961 43.6113V38.7472C38.5961 38.3785 38.3062 38.0712 37.94 38.0528L32.7551 37.8008C32.5659 37.7916 32.3828 37.8592 32.2455 37.9913C32.1082 38.1235 32.0319 38.3048 32.0319 38.4953V43.6113H28.6903V3.99827L40.9675 10.3311V43.6119L38.5961 43.6113ZM54.621 42.9015C54.621 43.2365 54.1816 43.6113 53.5529 43.6113H42.3436V19.1068L47.0372 21.0149L54.6207 24.0999L54.621 42.9015ZM45.8961 22.9255C45.6855 22.8548 45.4536 22.8886 45.2735 23.0177C45.0935 23.1467 44.9867 23.3587 44.9867 23.5831V39.0235C44.9867 39.3861 45.2644 39.6872 45.6214 39.7148L52.3536 40.2495C52.3719 40.2495 52.3902 40.2526 52.4085 40.2526C52.5825 40.2526 52.7472 40.188 52.8754 40.0682C53.0158 39.9361 53.0982 39.7517 53.0982 39.5581V25.8813C53.0982 25.5832 52.909 25.319 52.6313 25.2237L45.8961 22.9255ZM51.7188 31.8638L49.9793 31.4981V29.3595L51.7188 29.8388V31.8638ZM48.5999 31.2093L46.363 30.7392V28.364L48.5999 28.9816V31.2093ZM46.363 32.1557L48.5999 32.6258V34.9119L46.363 34.5861V32.1557ZM49.9793 32.9177L51.7188 33.2833V35.3666L49.9793 35.1147V32.9177ZM51.7188 28.4008L49.9793 27.9215V25.786L51.7188 26.379V28.4008ZM48.5999 25.3127V27.5373L46.363 26.9197V24.5507L48.5999 25.3127ZM46.363 35.9902L48.5999 36.3159V38.556L46.363 38.3777V35.9902ZM49.9793 38.6665V36.5156L51.7188 36.7676V38.8047L49.9793 38.6665ZM38.9715 10.1305L32.2394 6.95026C32.0258 6.84886 31.7755 6.86423 31.5772 6.99328C31.3788 7.11927 31.2567 7.3405 31.2567 7.58017V36.1838C31.2567 36.5464 31.5344 36.8475 31.8915 36.8751L38.6236 37.4098C38.6419 37.4098 38.6603 37.4129 38.6786 37.4129C38.8525 37.4129 39.0173 37.3483 39.1455 37.2285C39.2859 37.0964 39.3683 36.912 39.3683 36.7184V10.7602C39.3683 10.4898 39.2157 10.2442 38.9715 10.1305ZM37.9889 22.8304L36.0022 22.2804V19.2323L37.9889 19.9113V22.8304ZM34.6228 21.9024L32.6361 21.3524V18.0831L34.6228 18.7622V21.9024ZM32.6361 22.7904L34.6228 23.3405V26.5023L32.6361 26.0844V22.7904ZM36.0022 23.7215L37.9889 24.2715V27.2152L36.0022 26.7973V23.7215ZM37.9889 18.4457L36.0022 17.7666V14.7462L37.9889 15.5543V18.4457ZM34.6228 17.2965L32.6361 16.6174V13.3757L34.6228 14.1838V17.2965ZM32.6361 27.5044L34.6228 27.9223V31.1026L32.6361 30.8137V27.5044ZM36.0022 28.2142L37.9889 28.6321V31.5941L36.0022 31.3053V28.2142ZM37.9889 14.0583L36.0022 13.2502V10.2635L37.9889 11.2037V14.0583ZM34.6228 9.61212V12.6879L32.6361 11.8798V8.67196L34.6228 9.61212ZM32.6361 32.2178L34.6228 32.5066V35.7023L32.6361 35.5455V32.2178ZM36.0022 35.8129V32.7094L37.9889 32.9983V35.9726L36.0022 35.8129ZM10.7274 21.2393C10.5473 21.1072 10.3154 21.0734 10.1048 21.1471L3.37267 23.4455C3.09191 23.5408 2.90575 23.805 2.90575 24.1031V37.7799C2.90575 37.9735 2.98509 38.1578 3.12853 38.29C3.2567 38.4098 3.42455 38.4743 3.59545 38.4743C3.61376 38.4743 3.63207 38.4743 3.65038 38.4713L10.3825 37.9366C10.7396 37.909 11.0173 37.6078 11.0173 37.2453V21.8017C11.0142 21.5804 10.9074 21.3683 10.7274 21.2393ZM9.63792 28.9579L7.40098 29.428V27.1973L9.63792 26.5797V28.9579ZM6.02162 29.72L4.2821 30.0856V28.0607L6.02162 27.5814V29.72ZM4.2821 31.5052L6.02162 31.1395V33.3365L4.2821 33.5885V31.5052ZM7.40098 30.8476L9.63792 30.3775V32.8111L7.40098 33.1368V30.8476ZM9.63792 25.1416L7.40098 25.7592V23.5346L9.63792 22.7726V25.1416ZM6.02162 24.0047V26.1402L4.2821 26.6195V24.5977L6.02162 24.0047ZM4.2821 34.9898L6.02162 34.7378V36.8887L4.2821 37.027V34.9898ZM7.40098 36.778V34.538L9.63792 34.2123V36.5998L7.40098 36.778Z" fill="white"/>
</svg>
