<svg width="50" height="50" viewBox="0 0 50 50" fill="none" xmlns="http://www.w3.org/2000/svg">
<g clip-path="url(#clip0_517_4081)">
<path d="M25 50C38.8071 50 50 38.8071 50 25C50 11.1929 38.8071 0 25 0C11.1929 0 0 11.1929 0 25C0 38.8071 11.1929 50 25 50Z" fill="white"/>
<path d="M26.1344 26.1305C25.5086 26.1305 23.8645 26.1305 23.8645 26.1305H13.4357C12.8099 26.1305 12.3008 25.6214 12.3008 24.9956C12.3008 24.3698 12.8099 23.8606 13.4357 23.8606H23.8645C23.8645 23.8571 26.1344 23.862 26.1344 23.862V23.8606H36.5631C37.1889 23.8606 37.698 24.3698 37.698 24.9956C37.698 25.6214 37.1889 26.1305 36.5631 26.1305H26.1344Z" fill="#1A1A65"/>
</g>
<defs>
<clipPath id="clip0_517_4081">
<rect width="50" height="50" fill="white"/>
</clipPath>
</defs>
</svg>
