<svg width="50" height="50" viewBox="0 0 50 50" fill="none" xmlns="http://www.w3.org/2000/svg">
<path d="M25 50C38.8071 50 50 38.8071 50 25C50 11.1929 38.8071 0 25 0C11.1929 0 0 11.1929 0 25C0 38.8071 11.1929 50 25 50Z" fill="white"/>
<path d="M24.9994 37.6941C24.3736 37.6941 23.8645 37.185 23.8645 36.5592V26.1304H13.4357C12.8099 26.1304 12.3008 25.6213 12.3008 24.9955C12.3008 24.3697 12.8099 23.8605 13.4357 23.8605H23.8645V13.4318C23.8645 12.806 24.3736 12.2969 24.9994 12.2969C25.6252 12.2969 26.1344 12.806 26.1344 13.4318V23.8605H36.5631C37.1889 23.8605 37.698 24.3697 37.698 24.9955C37.698 25.6213 37.1889 26.1304 36.5631 26.1304H26.1344V36.5592C26.1344 37.185 25.6252 37.6941 24.9994 37.6941Z" fill="#1A1A65"/>
</svg>
