<svg width="55" height="55" viewBox="0 0 55 55" fill="none" xmlns="http://www.w3.org/2000/svg">
<rect width="55" height="55" rx="27.5" fill="white"/>
<rect width="55" height="55" rx="27.5" fill="white" fill-opacity="0.1"/>
<g clip-path="url(#clip0_1_690)">
<path d="M33.3203 34.2198C33.4624 34.2138 33.6037 34.2664 33.7092 34.3674C34.7101 35.3306 35.291 36.5468 35.2911 37.8194C35.2911 39.4676 34.3431 40.9159 32.9263 41.9152C31.5102 42.9161 29.601 43.51 27.5031 43.51C25.4049 43.51 23.4936 42.9146 22.0763 41.9152C20.6594 40.9161 19.7108 39.4678 19.7108 37.8194C19.7109 36.5482 20.2905 35.3349 21.2899 34.3719C21.3967 34.2679 21.5386 34.2144 21.6831 34.2235C21.8272 34.2298 21.962 34.297 22.0586 34.4102L22.094 34.4559C22.224 34.6437 22.2293 34.892 22.1202 35.0862H22.1598L22.0211 35.2196C21.2 36.0116 20.7985 36.9175 20.7985 37.8194C20.7985 38.9967 21.472 40.1091 22.6781 40.9604C23.8837 41.8125 25.6008 42.3612 27.5045 42.3612C29.4079 42.3611 31.1205 41.8111 32.326 40.9604C33.5334 40.1077 34.2071 38.9967 34.2071 37.8194C34.207 36.9165 33.8032 36.0124 32.9808 35.2203V35.2196C32.8728 35.117 32.8098 34.9737 32.8026 34.8216C32.7969 34.6694 32.8466 34.5189 32.9447 34.4056C33.0413 34.2942 33.1763 34.2274 33.3203 34.2198ZM27.5038 11.4648C33.0829 11.4648 37.6141 16.2469 37.6141 22.1348C37.6141 23.3535 37.2322 24.7191 36.6291 26.1384C36.0255 27.5587 35.1982 29.0384 34.3018 30.486C32.5095 33.382 30.4063 36.1143 29.114 37.7183C28.2646 38.7719 26.7403 38.7719 25.8908 37.7183C24.5985 36.1131 22.4916 33.3808 20.6995 30.486C19.8031 29.0384 18.9762 27.5589 18.3736 26.1384C17.7714 24.7189 17.3907 23.3529 17.3906 22.1348C17.3906 16.2483 21.925 11.4648 27.5038 11.4648ZM27.5031 12.6153C22.5096 12.6153 18.4747 16.8754 18.4747 22.1363C18.4748 23.0875 18.8177 24.3076 19.3834 25.649C19.9484 26.9887 20.7322 28.4418 21.6075 29.8557C23.3584 32.6843 25.4397 35.3899 26.7153 36.9733C26.9458 37.259 27.2272 37.3961 27.5031 37.396C27.779 37.3957 28.0596 37.2584 28.2887 36.9733L28.8022 36.3288C30.0787 34.7122 31.863 32.3347 33.3952 29.8595C34.2712 28.4455 35.0563 26.9912 35.6221 25.6505C36.1886 24.3081 36.5315 23.0867 36.5315 22.1356C36.5315 16.895 32.5278 12.6481 27.5611 12.6153H27.5031ZM27.5031 16.2201C30.1404 16.2202 32.289 18.4835 32.2892 21.2699C32.2892 24.0553 30.1406 26.3242 27.5031 26.3243C24.8668 26.3243 22.7149 24.0566 22.7149 21.2699C22.715 18.4846 24.8657 16.2201 27.5031 16.2201ZM27.5031 17.3705C25.4506 17.3705 23.7997 19.1104 23.7997 21.2699C23.7997 23.4297 25.4508 25.1731 27.5031 25.1731C29.5541 25.1731 31.2023 23.4298 31.2023 21.2699C31.2022 19.1117 29.5553 17.3706 27.5031 17.3705Z" fill="black" stroke="black" stroke-width="0.2"/>
</g>
<defs>
<clipPath id="clip0_1_690">
<rect width="21" height="33" fill="white" transform="translate(17 11)"/>
</clipPath>
</defs>
</svg>
