<svg width="55" height="55" viewBox="0 0 55 55" fill="none" xmlns="http://www.w3.org/2000/svg">
<rect width="55" height="55" rx="27.5" fill="white"/>
<rect width="55" height="55" rx="27.5" fill="white" fill-opacity="0.1"/>
<path d="M43.2928 19.5153C43.065 19.0922 42.7395 18.7342 42.349 18.4413C41.7631 18.0182 41.0797 17.7578 40.2985 17.7578H15.2376C14.4565 17.7578 13.773 18.0182 13.1872 18.4413C12.7966 18.7342 12.4711 19.0922 12.2433 19.5153C11.9504 20.0035 11.8202 20.5568 11.8202 21.1752V35.6585C11.8202 36.3094 12.0155 36.8953 12.3084 37.416C12.5688 37.8391 12.8942 38.1646 13.2848 38.4575C13.8381 38.8481 14.5216 39.0759 15.2376 39.0759H40.2985C41.0146 39.0759 41.698 38.8481 42.2513 38.4575C42.6419 38.1971 42.9674 37.8391 43.2277 37.416C43.5532 36.8953 43.7159 36.3094 43.7159 35.6585V21.1752C43.7159 20.5894 43.5532 20.0361 43.2928 19.5153ZM15.2376 19.1899H40.2985C40.624 19.1899 40.9169 19.255 41.1773 19.3851L28.6143 29.1492C28.3864 29.3444 28.0935 29.4421 27.8006 29.4421C27.5077 29.4421 27.2148 29.3444 26.9869 29.1492L14.4239 19.3851C14.6192 19.255 14.9121 19.1899 15.2376 19.1899ZM13.2197 35.691V21.2078C13.2197 20.9474 13.2848 20.6545 13.3824 20.4266L22.8535 27.7822L13.3824 36.4721C13.2848 36.2118 13.2197 35.9514 13.2197 35.691ZM40.2985 37.6764H15.2376C14.9121 37.6764 14.6192 37.6113 14.3588 37.4811L23.9601 28.6284L26.0431 30.2557C26.5313 30.6137 27.1171 30.8416 27.7355 30.8416C28.3539 30.8416 28.9397 30.6463 29.4279 30.2557L31.5109 28.6284L41.1122 37.4811C40.9169 37.6113 40.624 37.6764 40.2985 37.6764ZM32.6826 27.7496L42.1537 20.3941C42.2513 20.6219 42.3164 20.8823 42.3164 21.1752V35.6585C42.3164 35.9189 42.2513 36.2118 42.1537 36.4396L32.6826 27.7496Z" fill="black"/>
</svg>
