<svg width="1674" height="908" viewBox="0 0 1674 908" fill="none" xmlns="http://www.w3.org/2000/svg">
<g opacity="0.5">
<path d="M181.999 617.648L223.55 657.62L216.805 664.622L181.532 630.69L172.918 639.647L166.641 633.608L181.999 617.678V617.648Z" fill="white"/>
<path d="M605.62 210.32L633.039 236.696L628.6 241.306L605.328 218.927L599.635 224.821L595.488 220.824L605.62 210.32Z" fill="white"/>
<path d="M438.69 730.855L457.552 749.003L454.486 752.183L438.485 736.778L434.572 740.834L431.711 738.091L438.69 730.855Z" fill="white"/>
<path d="M223.665 314.945L230.965 352.262L224.687 353.487L218.467 321.802L210.438 323.377L209.328 317.746L223.665 314.945Z" fill="white"/>
<g opacity="0.5" style="mix-blend-mode:overlay">
<path d="M115.133 478.449L85.1157 526.152L77.0859 521.105L102.548 480.608L92.2696 474.16L96.7955 466.953L115.103 478.449H115.133Z" fill="white"/>
</g>
<path d="M180.481 430.628L165.006 455.224L160.859 452.627L173.999 431.766L168.685 428.44L171.021 424.734L180.452 430.657L180.481 430.628Z" fill="white"/>
<g opacity="0.5" style="mix-blend-mode:overlay">
<path d="M260.486 396.148C263.172 393.639 262.705 390.021 259.289 386.403C256.515 383.427 251.697 381.414 246.5 380.976L248.66 374.703C255.026 375.637 260.807 378.233 264.866 382.581C270.91 389.029 271.757 396.44 266.676 401.195C263.377 404.288 257.245 405.163 250.091 405.076L232.513 404.58L248.281 421.415L243.288 426.083L220.688 401.954L224.775 398.132L249.536 398.54C254.354 398.686 258.588 397.928 260.457 396.148H260.486Z" fill="white"/>
</g>
<g style="mix-blend-mode:overlay">
<path d="M0 335.719L6.21945 340.504L8.2926 337.819L0 331.43V335.719Z" fill="white"/>
<path d="M13.2857 317.424C10.9497 315.644 7.88381 314.827 4.70109 314.886L4.1463 318.124C6.71584 317.92 9.25618 318.533 10.8621 319.758C12.8185 321.246 13.3441 322.997 12.2345 324.456C11.4461 325.477 9.46057 326.206 7.06623 326.498L0 327.548V330.729L7.85461 329.649C11.3585 329.124 14.3077 328.19 15.68 326.41C17.7824 323.668 16.7604 320.108 13.2857 317.424Z" fill="white"/>
</g>
<g opacity="0.5" style="mix-blend-mode:overlay">
<path d="M367.937 347.447C363.382 354.216 354.768 355.238 346.037 349.373C341.219 346.164 337.248 341.233 335.555 336.652L341.424 333.384C342.65 337.732 345.395 341.525 349.074 343.975C354.563 347.652 359.411 347.331 361.951 343.538C364.579 339.599 362.681 335.427 357.162 331.721L351.877 328.191L354.242 324.69L371.674 321.626L355.556 310.831L359.148 305.375L382.916 321.305L380.346 325.127L361.192 328.541L363.206 330.117C369.601 335.223 371.82 341.729 367.966 347.477L367.937 347.447Z" fill="white"/>
</g>
<g opacity="0.45" style="mix-blend-mode:overlay">
<path d="M146.52 273.052C144.038 276.962 139.133 277.662 134.081 274.453C131.307 272.673 128.971 269.96 127.949 267.363L131.249 265.437C132.008 267.888 133.614 270.018 135.745 271.36C138.899 273.373 141.673 273.111 143.045 270.952C144.476 268.676 143.337 266.312 140.155 264.299L137.118 262.374L138.403 260.331L148.272 258.347L138.957 252.424L140.914 249.273L154.637 257.997L153.236 260.215L142.403 262.403L143.571 263.278C147.279 266.079 148.622 269.755 146.52 273.081V273.052Z" fill="white"/>
</g>
<g opacity="0.5" style="mix-blend-mode:overlay">
<path d="M36.9059 391.596C38.8915 394.922 37.6067 398.832 33.3144 401.399C30.9492 402.829 28.0585 403.529 25.7226 403.354L25.489 400.174C27.5913 400.524 29.7813 400.116 31.5916 399.007C34.278 397.402 35.1247 395.243 33.986 393.376C32.818 391.45 30.6281 391.421 27.9125 393.055L25.343 394.601L24.2918 392.88L26.4818 384.769L18.5688 389.525L16.9336 386.87L28.5841 379.867L29.7229 381.734L27.3285 390.662L28.4089 390.108C31.8836 388.387 35.1539 388.737 36.8475 391.567L36.9059 391.596Z" fill="white"/>
</g>
<g opacity="0.5" style="mix-blend-mode:overlay">
<path d="M78.484 351.739L54.3654 364.314L64.4391 371.025L69.549 363.264L74.7173 366.707L69.6074 374.468L74.4253 377.677L71.0965 382.637L66.2203 379.398L60.8476 387.451L55.6793 384.008L61.052 375.956L45.0508 365.277L47.7955 361.163L73.0821 348.18L78.4256 351.739H78.484Z" fill="white"/>
</g>
<path d="M97.0563 308.324L91.596 325.772L99.5966 324.167L98.3118 318.04L102.4 317.223L103.685 323.35L107.51 322.591L108.298 326.53L104.444 327.318L105.728 333.708L101.641 334.525L100.356 328.135L87.6833 330.673L87.0117 327.406L92.8224 309.17L97.0563 308.324Z" fill="white"/>
<g opacity="0.5" style="mix-blend-mode:overlay">
<path d="M499.657 539.778C509.848 552.383 509.235 566.241 499.57 574.031C488.211 583.193 474.05 580.742 463.538 567.729C458.019 560.902 454.107 550.865 453.289 542.083L463.976 539.749C464.034 547.423 466.575 554.95 470.779 560.173C477.057 567.934 484.649 569.538 490.839 564.549C496.562 559.939 496.27 552.441 490.109 544.826C487.219 541.266 480.62 533.739 476.94 530.179L506.373 506.43L534.813 541.646L526.404 548.444L504.943 521.893L492.883 531.638C494.956 534.031 497.906 537.678 499.628 539.808L499.657 539.778Z" fill="white"/>
</g>
<path d="M54.9496 281.333C58.3367 277.744 62.5414 277.336 65.2862 279.932C68.5273 282.967 68.3813 287.343 64.9066 291.049C63.067 293.003 60.2055 294.608 57.6068 295.221L56.4388 292.099C58.7455 291.749 60.9063 290.669 62.3078 289.181C64.381 286.964 64.5562 284.6 62.775 282.937C61.1399 281.42 58.8915 281.8 56.8476 283.988C55.884 285.009 53.8985 287.314 52.9641 288.568L44.5547 280.691L53.9861 270.625L56.3804 272.872L49.2558 280.457L52.7013 283.696C53.3437 282.967 54.3072 281.945 54.8912 281.333H54.9496Z" fill="white"/>
<g opacity="0.5" style="mix-blend-mode:overlay">
<path d="M715.936 539.859C730.243 532.215 743.733 535.395 749.603 546.365C756.494 559.203 751.442 572.653 736.696 580.56C728.959 584.703 718.33 586.687 709.57 585.841L709.278 574.9C716.841 576.271 724.696 575.192 730.652 572.011C739.47 567.285 742.449 560.136 738.711 553.134C735.236 546.657 727.82 545.548 719.177 550.158C715.118 552.317 706.504 557.394 702.3 560.341L684.43 527.021L724.345 505.664L729.455 515.176L699.321 531.281L706.65 544.936C709.395 543.36 713.512 541.143 715.965 539.83L715.936 539.859Z" fill="white"/>
</g>
<path d="M412.933 583.342C419.181 579.987 425.079 581.388 427.649 586.173C430.657 591.804 428.437 597.668 422.014 601.111C418.626 602.92 413.984 603.795 410.159 603.416L410.013 598.631C413.312 599.244 416.758 598.748 419.356 597.376C423.211 595.305 424.525 592.183 422.889 589.119C421.371 586.289 418.13 585.793 414.363 587.836C412.582 588.769 408.815 590.987 406.976 592.3L399.18 577.711L416.641 568.375L418.86 572.547L405.691 579.608L408.903 585.589C410.1 584.889 411.911 583.926 412.962 583.372L412.933 583.342Z" fill="white"/>
<g opacity="0.45" style="mix-blend-mode:overlay">
<path d="M616.544 122.468C626.501 117.129 635.932 119.346 640.02 126.99C644.809 135.947 641.305 145.342 631.027 150.827C625.625 153.716 618.237 155.087 612.106 154.504L611.901 146.889C617.186 147.851 622.646 147.093 626.793 144.875C632.925 141.578 635.027 136.589 632.399 131.717C629.975 127.194 624.807 126.436 618.792 129.645C615.96 131.162 609.974 134.693 607.025 136.735L594.586 113.482L622.413 98.6016L625.975 105.254L604.981 116.487L610.091 125.998C611.989 124.89 614.879 123.343 616.573 122.439L616.544 122.468Z" fill="white"/>
</g>
<path d="M260.02 320.928C264.955 318.273 269.627 319.381 271.671 323.174C274.065 327.609 272.313 332.277 267.203 334.991C264.517 336.42 260.867 337.121 257.801 336.8L257.684 333.007C260.312 333.473 263.028 333.123 265.072 332.015C268.108 330.381 269.159 327.901 267.845 325.479C266.648 323.233 264.079 322.853 261.1 324.458C259.699 325.217 256.721 326.967 255.261 327.988L249.07 316.464L262.882 309.082L264.634 312.379L254.209 317.952L256.75 322.678C257.684 322.124 259.115 321.365 259.962 320.928H260.02Z" fill="white"/>
<path d="M563.722 470.866C571.168 466.869 578.235 468.532 581.3 474.25C584.892 480.961 582.264 487.963 574.555 492.077C570.526 494.236 564.978 495.257 560.394 494.82L560.248 489.13C564.19 489.86 568.307 489.276 571.402 487.642C575.986 485.191 577.563 481.457 575.607 477.81C573.796 474.425 569.913 473.842 565.416 476.263C563.314 477.401 558.817 480.027 556.627 481.574L547.312 464.184L568.132 453.039L570.789 457.999L555.08 466.402L558.905 473.521C560.335 472.704 562.496 471.537 563.752 470.866H563.722Z" fill="white"/>
<g opacity="0.45" style="mix-blend-mode:overlay">
<path d="M403.679 666.49C411.562 661.618 419.359 662.931 423.125 669C427.505 676.09 425.111 683.938 416.994 688.956C412.73 691.582 406.745 693.099 401.693 692.924L401.138 686.71C405.489 687.235 409.957 686.33 413.227 684.317C418.074 681.312 419.534 677.14 417.14 673.259C414.92 669.7 410.657 669.321 405.898 672.267C403.679 673.639 398.948 676.848 396.642 678.686L385.254 660.305L407.241 646.68L410.482 651.931L393.897 662.202L398.569 669.729C400.087 668.737 402.365 667.307 403.679 666.49Z" fill="white"/>
</g>
<path d="M306.998 277.225C312.955 273.549 318.853 274.541 321.685 279.122C325.014 284.461 323.175 290.413 317.043 294.206C313.831 296.19 309.305 297.328 305.48 297.211L305.042 292.514C308.341 292.893 311.699 292.222 314.181 290.705C317.86 288.429 318.941 285.278 317.13 282.36C315.466 279.676 312.225 279.384 308.633 281.602C306.94 282.652 303.377 285.074 301.626 286.445L293.012 272.557L309.626 262.258L312.079 266.226L299.523 273.987L303.056 279.676C304.195 278.918 305.918 277.867 306.94 277.225H306.998Z" fill="white"/>
<path d="M439.92 435.595C433.934 429.818 426.809 431.568 420.561 438.454C424.999 437.141 429.321 438.454 433.204 442.159C439.365 448.111 439.423 455.581 433.613 461.591C427.452 467.951 419.334 467.747 412.794 461.416C405.027 453.918 405.64 443.793 414.75 434.34C424.269 424.508 435.598 423.078 443.745 430.927C446.782 433.844 449.526 438.308 450.665 442.13L444.855 444.085C444.154 441.022 442.256 437.812 439.92 435.566V435.595ZM416.006 444.844C413.378 447.47 412.385 452.459 416.823 456.748C420.561 460.366 425.233 460.628 428.853 456.894C432.24 453.392 432.036 448.928 428.328 445.34C424.152 441.313 419.072 441.663 416.035 444.844H416.006Z" fill="white"/>
<path d="M447.684 259.63C441.464 263.131 441.172 269.404 445.289 276.202C445.289 272.234 447.421 268.996 451.45 266.749C457.845 263.161 464.006 264.911 467.51 271.155C471.218 277.778 469.057 284.372 462.283 288.194C454.195 292.746 446.048 289.77 440.53 279.966C434.777 269.754 436.383 260.097 444.822 255.341C447.975 253.562 452.297 252.395 455.713 252.395L455.889 257.617C453.202 257.442 450.107 258.23 447.684 259.572V259.63ZM449.435 281.513C450.954 284.314 454.808 286.356 459.422 283.759C463.305 281.571 464.677 277.807 462.488 273.927C460.444 270.28 456.735 269.346 452.852 271.534C448.53 273.956 447.567 278.245 449.435 281.483V281.513Z" fill="white"/>
<path d="M758.305 433.047L754.947 441.654L703.878 489.095L691.906 484.426L741.808 438.299L713.455 427.241L709.689 436.577L699.644 432.667L707.265 413.148L758.305 433.047Z" fill="white"/>
<path d="M321.807 460.506L318.507 464.124L284.286 478.012L279.234 473.46L312.638 460.01L300.696 449.214L297.075 453.124L292.841 449.302L300.287 441.074L321.807 460.535V460.506Z" fill="white"/>
<path d="M260.339 461.819L257.39 465.057L226.76 477.486L222.234 473.402L252.134 461.352L241.448 451.665L238.206 455.166L234.41 451.724L241.068 444.371L260.339 461.789V461.819Z" fill="white"/>
<path d="M148.097 554.312L145.323 557.375L116.562 569.046L112.328 565.224L140.418 553.932L130.373 544.859L127.337 548.155L123.774 544.946L130.052 538.031L148.126 554.399L148.097 554.312Z" fill="white"/>
<path d="M370.361 475.484L374.945 478.956L394.684 517.469L389.866 523.83L370.712 486.25L359.324 501.306L364.288 505.128L360.258 510.467L349.863 502.618L370.39 475.514L370.361 475.484Z" fill="white"/>
<g opacity="0.45" style="mix-blend-mode:overlay">
<path d="M39.5932 494.849L42.5131 497.038L55.0688 521.517L52.0029 525.572L39.8268 501.677L32.5854 511.247L35.7389 513.668L33.1693 517.053L26.5703 512.064L39.6224 494.82L39.5932 494.849Z" fill="white"/>
</g>
<g opacity="0.45" style="mix-blend-mode:overlay">
<path d="M540.886 296.303L538.959 300.679L511.628 324.079L505.555 321.424L532.243 298.666L517.848 292.364L515.716 297.091L510.606 294.873L514.957 284.953L540.857 296.274L540.886 296.303Z" fill="white"/>
</g>
<g opacity="0.45" style="mix-blend-mode:overlay">
<path d="M340.609 207.469L333.331 204.742L292.862 162.535L296.615 152.438L335.983 193.661L344.892 169.726L337.028 166.7L340.159 158.206L356.653 164.358L340.653 207.419L340.609 207.469Z" fill="white"/>
</g>
<path d="M514.171 58.7147L512.243 63.0912L484.825 86.5782L478.723 83.9232L505.528 61.078L491.103 54.7759L488.972 59.5317L483.862 57.2851L488.212 47.3359L514.2 58.7147H514.171Z" fill="white"/>
<g opacity="0.45" style="mix-blend-mode:overlay">
<path d="M13.4609 424.418L5.13907 432.354L9.22697 436.643L13.2565 432.879L24.8194 444.929L0 452.894V459.546L30.5716 449.656L34.2508 446.154L13.4609 424.418Z" fill="white"/>
</g>
<g opacity="0.45" style="mix-blend-mode:overlay">
<path d="M264.164 259.629L259.93 263.976L216.861 279.556L210.816 273.663L252.834 258.578L238.527 244.632L233.855 249.3L228.774 244.34L238.41 234.508L264.134 259.629H264.164Z" fill="white"/>
</g>
<path d="M888.767 86.3177C892.475 92.0655 892.096 98.8344 888.241 104.699C897.059 102.54 905.177 105.195 909.819 112.401C916.71 123.109 912.126 135.392 898.081 144.437C884.007 153.482 870.984 152.665 864.152 142.045C859.451 134.751 860.531 126.085 866.4 118.791C859.013 119.929 852.384 117.391 848.647 111.555C842.632 102.219 846.603 91.4236 858.779 83.6043C871.13 75.6683 882.577 76.6603 888.796 86.3469L888.767 86.3177ZM872.941 134.809C877.204 141.403 884.445 141.957 892.942 136.472C901.352 131.074 903.95 124.189 899.746 117.682C895.716 111.439 888.358 110.943 879.89 116.399C871.481 121.796 868.911 128.536 872.941 134.809ZM857.786 106.975C861.378 112.547 867.685 113.102 874.868 108.463C882.08 103.824 884.095 97.9299 880.503 92.3572C876.912 86.7845 870.692 86.1718 863.509 90.8109C856.297 95.4499 854.195 101.402 857.786 106.975Z" fill="white"/>
<g opacity="0.5" style="mix-blend-mode:overlay">
<path d="M615.024 301.294C615.433 306.896 612.484 311.622 607.403 314.336C614.586 316.261 619.404 321.367 619.9 328.369C620.63 338.815 612.484 345.846 598.789 346.809C585.095 347.772 576.043 342.053 575.313 331.696C574.817 324.606 579.021 318.77 586.117 315.824C580.335 313.723 576.598 309.288 576.189 303.599C575.547 294.496 582.642 288.281 594.526 287.464C606.556 286.618 614.382 291.841 615.053 301.265L615.024 301.294ZM584.511 329.974C584.978 336.393 589.971 339.661 598.264 339.048C606.439 338.465 611.024 334.526 610.586 328.194C610.148 322.097 605.067 318.858 596.775 319.441C588.599 320.025 584.073 323.876 584.511 329.945V329.974ZM584.598 303.978C584.978 309.405 589.299 312.293 596.307 311.797C603.315 311.301 607.111 307.829 606.731 302.432C606.352 297.005 602.118 294.116 595.11 294.612C588.102 295.108 584.219 298.58 584.628 304.007L584.598 303.978Z" fill="white"/>
</g>
<g opacity="0.5" style="mix-blend-mode:overlay">
<path d="M537.884 411.282C533.116 408.313 531.034 403.145 531.834 397.441C526.047 402.111 519.083 402.997 513.132 399.273C504.261 393.71 503.378 382.985 510.667 371.351C517.956 359.718 527.909 355.772 536.709 361.284C542.73 365.059 544.969 371.894 543.171 379.364C548.274 375.929 554.059 375.521 558.897 378.542C566.632 383.386 567.474 392.78 561.134 402.865C554.731 413.084 545.901 416.332 537.89 411.323L537.884 411.282ZM532.682 369.73C527.22 366.327 521.638 368.436 517.248 375.498C512.903 382.449 513.386 388.474 518.76 391.849C523.946 395.087 529.556 392.89 533.969 385.845C538.313 378.894 537.867 372.968 532.705 369.747L532.682 369.73ZM553.637 385.114C549.028 382.224 544.149 384.015 540.421 389.97C536.694 395.925 537.264 401.038 541.849 403.911C546.458 406.801 551.286 405.081 555.013 399.126C558.741 393.171 558.223 387.987 553.596 385.121L553.637 385.114Z" fill="white"/>
</g>
<path d="M956.944 831.72C952.943 840.327 944.709 844.937 934.957 844.791C944.038 853.514 946.958 865.01 941.965 875.805C934.519 891.852 916.678 895.616 895.596 885.842C874.514 876.068 865.813 860.196 873.2 844.265C878.252 833.353 889.26 828.16 902.166 829.59C895.333 821.741 893.406 812.113 897.465 803.389C903.947 789.385 919.569 786 937.818 794.461C956.331 803.039 963.66 817.19 956.915 831.72H956.944ZM888.238 849.196C883.654 859.087 888.413 868.015 901.144 873.909C913.729 879.744 923.744 877.673 928.299 867.898C932.65 858.533 927.744 849.546 915.043 843.653C902.458 837.818 892.618 839.831 888.267 849.196H888.238ZM909.67 810.742C905.787 819.086 909.845 826.876 920.62 831.895C931.424 836.884 939.862 834.871 943.717 826.526C947.6 818.182 943.687 810.45 932.884 805.432C922.08 800.442 913.524 802.397 909.641 810.742H909.67Z" fill="white"/>
<path d="M730.563 199.67C727.935 202.558 724.168 203.346 720.372 202.092C722.854 206.614 722.591 211.457 719.321 215.075C714.445 220.444 706.999 219.743 699.962 213.324C692.925 206.935 691.465 199.641 696.283 194.331C699.611 190.684 704.546 189.983 709.422 192.142C707.7 188.233 708.138 184.236 710.795 181.318C715.058 176.65 721.569 177.233 727.672 182.777C733.862 188.379 735.001 194.827 730.592 199.67H730.563ZM701.568 198.124C698.56 201.42 699.349 205.505 703.583 209.356C707.787 213.179 711.963 213.587 714.941 210.319C717.803 207.197 716.985 203.084 712.722 199.203C708.517 195.381 704.429 194.973 701.568 198.094V198.124ZM714.649 185.694C712.109 188.495 712.722 192.026 716.343 195.293C719.963 198.561 723.496 198.795 726.037 196.023C728.577 193.222 727.993 189.721 724.372 186.453C720.752 183.185 717.16 182.893 714.649 185.694Z" fill="white"/>
<path d="M402.481 246.055C402.714 249.265 401.021 251.978 398.101 253.554C402.218 254.662 404.992 257.609 405.284 261.636C405.722 267.617 401.021 271.672 393.166 272.227C385.282 272.781 380.085 269.484 379.676 263.532C379.384 259.447 381.808 256.092 385.866 254.429C382.538 253.233 380.377 250.665 380.143 247.398C379.764 242.175 383.852 238.615 390.684 238.119C397.605 237.623 402.101 240.629 402.481 246.055ZM384.932 262.54C385.195 266.246 388.086 268.113 392.816 267.763C397.517 267.442 400.145 265.166 399.911 261.519C399.649 258.018 396.729 256.15 391.969 256.501C387.268 256.822 384.669 259.039 384.932 262.54ZM384.99 247.602C385.224 250.724 387.706 252.387 391.736 252.095C395.765 251.803 397.955 249.819 397.721 246.697C397.488 243.575 395.064 241.912 391.035 242.204C387.005 242.496 384.786 244.48 384.99 247.602Z" fill="white"/>
<g opacity="0.5" style="mix-blend-mode:overlay">
<path d="M167.398 336.948C168.974 339.194 168.945 341.937 167.514 344.358C171.018 343.337 174.347 344.271 176.333 347.101C179.282 351.302 177.647 356.321 172.157 360.201C166.668 364.082 161.383 363.965 158.433 359.822C156.419 356.963 156.711 353.461 158.93 350.427C155.981 351.011 153.265 350.106 151.659 347.801C149.09 344.154 150.491 339.719 155.251 336.364C160.098 332.95 164.711 333.155 167.398 336.948ZM161.85 356.758C163.689 359.355 166.609 359.443 169.938 357.079C173.237 354.745 174.172 351.944 172.361 349.377C170.639 346.926 167.66 346.868 164.332 349.202C161.032 351.536 160.127 354.278 161.85 356.729V356.758ZM155.28 345.817C156.827 348.006 159.368 348.122 162.2 346.138C165.032 344.154 165.733 341.733 164.186 339.544C162.638 337.356 160.127 337.21 157.295 339.223C154.462 341.207 153.732 343.658 155.28 345.846V345.817Z" fill="white"/>
</g>
<g opacity="0.45" style="mix-blend-mode:overlay">
<path d="M126.694 371.776C128.271 374.022 128.242 376.765 126.811 379.187C130.315 378.165 133.644 379.099 135.629 381.929C138.579 386.131 136.943 391.149 131.454 395.029C125.935 398.91 120.679 398.793 117.73 394.65C115.716 391.791 116.008 388.29 118.227 385.255C115.278 385.839 112.562 384.934 110.956 382.629C108.387 378.982 109.788 374.548 114.548 371.192C119.395 367.779 124.008 367.983 126.694 371.776ZM121.147 391.587C122.986 394.183 125.906 394.271 129.235 391.907C132.534 389.573 133.469 386.772 131.658 384.205C129.936 381.754 126.957 381.696 123.629 384.03C120.329 386.364 119.424 389.107 121.147 391.557V391.587ZM114.577 380.645C116.124 382.834 118.665 382.95 121.497 380.966C124.329 378.982 125.03 376.561 123.483 374.372C121.935 372.184 119.424 372.038 116.592 374.051C113.759 376.035 113.029 378.486 114.577 380.675V380.645Z" fill="white"/>
</g>
<path d="M469.728 812.315C471.129 814.299 471.1 816.75 469.815 818.909C472.94 818.004 475.889 818.821 477.641 821.33C480.269 825.065 478.809 829.5 473.932 832.943C469.056 836.386 464.384 836.298 461.756 832.593C459.975 830.054 460.209 826.932 462.194 824.248C459.566 824.773 457.172 823.956 455.741 821.943C453.464 818.705 454.69 814.766 458.924 811.79C463.216 808.755 467.333 808.96 469.698 812.315H469.728ZM464.793 829.879C466.399 832.184 469.027 832.242 471.976 830.171C474.896 828.099 475.714 825.619 474.137 823.344C472.589 821.155 469.961 821.097 467.012 823.198C464.092 825.269 463.275 827.691 464.822 829.879H464.793ZM458.953 820.163C460.326 822.089 462.574 822.206 465.085 820.426C467.596 818.675 468.209 816.516 466.866 814.591C465.494 812.665 463.275 812.519 460.764 814.299C458.252 816.05 457.61 818.238 458.953 820.163Z" fill="white"/>
<path d="M718.772 299.104C718.509 305.027 714.859 309.666 709.165 311.883C716.495 314.771 720.933 320.723 720.612 328.134C720.144 339.192 710.742 345.611 696.201 344.998C681.689 344.386 672.871 337.267 673.338 326.296C673.659 318.769 678.769 313.138 686.594 310.92C680.784 308.003 677.368 302.897 677.63 296.886C678.039 287.258 686.273 281.569 698.829 282.123C711.589 282.677 719.181 289.096 718.772 299.104ZM683.237 325.567C682.945 332.365 687.821 336.391 696.581 336.771C705.253 337.15 710.538 333.561 710.83 326.851C711.093 320.403 706.129 316.376 697.369 315.997C688.697 315.618 683.499 319.119 683.207 325.567H683.237ZM686.448 298.228C686.215 303.976 690.39 307.536 697.836 307.857C705.282 308.178 709.662 304.997 709.925 299.25C710.158 293.502 706.07 289.972 698.625 289.651C691.179 289.33 686.711 292.51 686.448 298.258V298.228Z" fill="white"/>
<path d="M491.539 455.487C489.699 458.346 486.575 459.572 483.129 459.047C485.933 462.577 486.4 466.778 484.122 470.367C480.706 475.706 474.224 476.173 467.216 471.709C460.208 467.245 457.901 461.206 461.288 455.925C463.595 452.307 467.741 450.994 472.238 452.132C470.194 449.039 469.99 445.538 471.829 442.62C474.808 437.981 480.502 437.514 486.546 441.395C492.678 445.304 494.605 450.673 491.51 455.487H491.539ZM466.369 458.376C464.267 461.643 465.522 465.028 469.756 467.741C473.932 470.396 477.582 470.163 479.655 466.924C481.64 463.802 480.356 460.389 476.122 457.704C471.946 455.049 468.355 455.283 466.369 458.376ZM475.8 445.8C474.019 448.572 475.07 451.519 478.662 453.824C482.253 456.1 485.319 455.808 487.101 453.036C488.882 450.265 487.86 447.347 484.268 445.042C480.677 442.766 477.552 443.029 475.8 445.8Z" fill="white"/>
<g opacity="0.5" style="mix-blend-mode:overlay">
<path d="M538.373 162.12C538.052 169.327 533.614 174.958 526.723 177.671C535.629 181.172 541.031 188.408 540.651 197.453C540.067 210.903 528.621 218.693 510.984 217.935C493.348 217.176 482.603 208.54 483.187 195.206C483.566 186.074 489.815 179.217 499.305 176.504C492.239 172.974 488.092 166.759 488.384 159.436C488.881 147.707 498.896 140.821 514.167 141.463C529.672 142.134 538.928 149.953 538.403 162.12H538.373ZM495.158 194.302C494.808 202.588 500.735 207.46 511.393 207.927C521.934 208.365 528.387 204.017 528.738 195.848C529.088 188 523.044 183.098 512.386 182.66C501.845 182.223 495.509 186.453 495.188 194.302H495.158ZM499.071 161.07C498.779 168.072 503.86 172.361 512.912 172.769C521.963 173.149 527.307 169.297 527.599 162.295C527.891 155.293 522.898 151.004 513.875 150.595C504.823 150.216 499.392 154.067 499.1 161.07H499.071Z" fill="white"/>
</g>
<path d="M94.4004 417.622C96.2692 419.635 96.6196 422.348 95.5392 424.945C98.8679 423.457 102.284 423.924 104.649 426.433C108.153 430.197 107.219 435.39 102.313 440C97.3788 444.61 92.1521 445.223 88.6774 441.488C86.283 438.95 86.0786 435.419 87.889 432.093C85.0275 433.085 82.2243 432.56 80.3264 430.518C77.2604 427.25 78.0488 422.669 82.3119 418.701C86.6334 414.646 91.2469 414.237 94.4296 417.622H94.4004ZM91.6265 437.987C93.7872 440.292 96.7072 440 99.6855 437.199C102.635 434.457 103.16 431.539 101.029 429.263C98.9847 427.075 96.0356 427.425 93.0573 430.197C90.1081 432.94 89.5825 435.799 91.6265 437.987ZM83.5967 428.038C85.4362 429.993 87.9766 429.759 90.4877 427.396C92.9989 425.033 93.3785 422.553 91.5681 420.598C89.7285 418.643 87.2466 418.847 84.7063 421.211C82.1951 423.574 81.7863 426.083 83.5967 428.038Z" fill="white"/>
<path d="M671.172 423.6C668.34 428.152 663.434 430.165 657.974 429.406C662.442 434.921 663.288 441.544 659.755 447.233C654.47 455.694 644.25 456.569 633.126 449.655C622.001 442.74 618.234 433.258 623.461 424.855C627.052 419.107 633.564 416.948 640.688 418.64C637.418 413.797 637.009 408.253 639.871 403.673C644.455 396.291 653.448 395.474 663.055 401.455C672.807 407.524 675.932 415.956 671.172 423.6ZM631.549 428.648C628.308 433.87 630.352 439.18 637.067 443.353C643.696 447.496 649.448 447 652.66 441.865C655.726 436.934 653.623 431.565 646.908 427.393C640.279 423.25 634.644 423.717 631.549 428.648ZM646.178 408.633C643.433 413.038 645.156 417.677 650.85 421.208C656.543 424.738 661.39 424.184 664.135 419.807C666.88 415.402 665.216 410.821 659.522 407.261C653.828 403.731 648.893 404.227 646.178 408.633Z" fill="white"/>
<path d="M775.945 748.976C790.807 742.294 792.705 727.969 784.763 711.426C783.945 720.529 778.485 727.473 768.791 731.82C753.49 738.676 739.767 733.191 733.051 718.224C725.868 702.264 732.116 687.559 748.41 680.265C767.798 671.571 785.931 680.09 796.559 703.752C807.626 728.406 801.961 750.26 781.697 759.363C774.105 762.776 764.031 764.527 756.177 763.797L756.848 751.718C762.98 752.681 770.163 751.572 775.974 748.947L775.945 748.976ZM745.198 712.914C749.14 721.725 757.345 724.643 766.601 720.5C777.054 715.802 780.062 706.261 776.383 698.384C773.463 691.615 765.17 686.101 754.045 691.09C744.789 695.233 740.993 703.548 745.198 712.914Z" fill="white"/>
<path d="M638.029 642.423C650.059 638.221 652.512 627.192 647.431 613.771C646.176 620.803 641.446 625.85 633.591 628.593C621.181 632.911 610.874 627.718 606.64 615.58C602.143 602.655 607.983 591.626 621.181 587.017C636.89 581.561 650.439 589.438 657.096 608.607C664.046 628.564 658.147 645.223 641.737 650.942C635.576 653.072 627.605 653.772 621.532 652.664L622.875 643.298C627.576 644.465 633.241 644.086 637.971 642.452L638.029 642.423ZM616.509 612.225C618.991 619.344 625.181 622.203 632.686 619.577C641.153 616.631 644.132 609.395 641.825 603.005C640.015 597.549 633.912 592.677 624.919 595.799C617.415 598.395 613.881 604.639 616.539 612.196L616.509 612.225Z" fill="white"/>
<g opacity="0.5" style="mix-blend-mode:overlay">
<path d="M647.729 799.539C658.27 806.717 668.606 802.107 676.373 790.028C669.979 793.208 663.088 792.42 656.226 787.752C645.364 780.37 643.407 768.992 650.649 758.371C658.357 747.051 670.709 745.184 682.272 753.061C696.025 762.398 697.747 777.978 686.33 794.754C674.417 812.231 657.54 817.395 643.174 807.65C637.772 803.974 632.487 797.993 629.742 792.479L638.064 787.985C639.933 792.449 643.612 796.797 647.758 799.598L647.729 799.539ZM659.175 764.294C654.912 770.538 656.314 777.19 662.883 781.654C670.3 786.702 677.892 784.776 681.629 779.116C684.958 774.418 685.221 766.599 677.337 761.26C670.767 756.796 663.672 757.671 659.146 764.294H659.175Z" fill="white"/>
</g>
<g opacity="0.5" style="mix-blend-mode:overlay">
<path d="M179.342 208.865C186.292 208.281 189.095 202.767 188.219 194.948C186.613 198.507 183.401 200.55 178.875 200.929C171.721 201.542 166.962 197.37 166.348 190.367C165.706 182.898 170.32 177.85 177.941 177.209C187.022 176.45 193.124 182.46 194.059 193.518C195.022 205.043 189.649 213.066 180.16 213.883C176.597 214.175 172.276 213.446 169.21 212.045L171.196 207.26C173.531 208.515 176.597 209.098 179.313 208.865H179.342ZM172.042 189.93C172.393 194.043 175.283 196.407 179.605 196.027C184.51 195.619 187.051 192.176 186.7 188.471C186.496 185.32 183.926 181.906 178.7 182.344C174.378 182.723 171.663 185.524 172.013 189.9L172.042 189.93Z" fill="white"/>
</g>
<path d="M626.354 35.9646C634.063 49.6192 632.69 60.3269 622.558 66.0163C612.368 71.7641 602.498 67.3876 594.79 53.733C587.11 40.1368 588.512 29.4291 598.673 23.7105C608.805 18.0211 618.675 22.3684 626.354 35.9646ZM601.798 49.7942C607.813 60.4436 613.594 63.8281 619.463 60.502C625.274 57.2342 625.361 50.5528 619.346 39.9034C613.331 29.254 607.608 25.9279 601.798 29.1957C595.929 32.4926 595.783 39.1157 601.798 49.7651V49.7942Z" fill="white"/>
<path d="M812.996 253.293C801.784 268.757 789.228 272.667 777.753 264.38C766.219 256.036 766.044 242.877 777.256 227.443C788.41 212.067 800.966 208.128 812.5 216.473C823.946 224.759 824.15 237.917 812.996 253.293ZM785.198 233.162C776.439 245.212 775.65 253.323 782.278 258.137C788.848 262.892 796.294 259.625 805.054 247.546C813.814 235.496 814.544 227.443 807.974 222.687C801.316 217.873 793.929 221.083 785.169 233.162H785.198Z" fill="white"/>
<path d="M320.141 51.7714C313.192 61.3704 305.396 63.792 298.271 58.657C291.117 53.4636 291 45.3234 297.95 35.7243C304.87 26.1836 312.666 23.7328 319.82 28.9262C326.945 34.0904 327.032 42.2307 320.112 51.8005L320.141 51.7714ZM302.884 39.2838C297.453 46.7822 296.957 51.8005 301.074 54.7765C305.162 57.7233 309.775 55.681 315.206 48.2118C320.638 40.7135 321.105 35.7535 317.017 32.7775C312.9 29.8015 308.286 31.7855 302.884 39.2838Z" fill="white"/>
<path d="M556.717 680.849C548.191 700.369 535.431 707.633 520.978 701.331C506.407 694.971 503.078 680.704 511.605 661.185C520.072 641.753 532.832 634.488 547.403 640.819C561.886 647.122 565.214 661.418 556.747 680.849H556.717ZM521.591 665.532C514.933 680.762 516.014 689.778 524.394 693.454C532.716 697.072 540.045 691.703 546.673 676.473C553.33 661.243 552.221 652.315 543.928 648.697C535.548 645.05 528.248 650.302 521.591 665.532Z" fill="white"/>
<path d="M418.953 372.334C414.631 382.225 408.149 385.931 400.791 382.721C393.403 379.512 391.71 372.247 396.031 362.327C400.323 352.465 406.806 348.76 414.193 351.998C421.551 355.208 423.245 362.444 418.923 372.305L418.953 372.334ZM401.141 364.574C397.754 372.305 398.309 376.886 402.572 378.753C406.776 380.591 410.514 377.878 413.901 370.146C417.288 362.414 416.733 357.892 412.5 356.054C408.236 354.187 404.528 356.871 401.17 364.603L401.141 364.574Z" fill="white"/>
<path d="M344.753 399.069C341.657 406.13 337.044 408.756 331.817 406.48C326.561 404.175 325.335 399.011 328.43 391.95C331.496 384.918 336.11 382.293 341.395 384.568C346.621 386.844 347.848 392.037 344.782 399.069H344.753ZM332.051 393.525C329.657 399.04 330.036 402.308 333.073 403.621C336.08 404.933 338.737 402.979 341.132 397.464C343.526 391.95 343.147 388.711 340.139 387.398C337.102 386.085 334.474 387.982 332.051 393.496V393.525Z" fill="white"/>
<path d="M105.729 209.557C102.634 216.618 98.0205 219.244 92.7938 216.968C87.538 214.663 86.3116 209.499 89.4067 202.438C92.4726 195.407 97.0861 192.781 102.371 195.057C107.598 197.332 108.824 202.526 105.758 209.557H105.729ZM93.0274 204.014C90.6331 209.528 91.0127 212.796 94.0494 214.109C97.0569 215.422 99.7141 213.467 102.108 207.953C104.503 202.438 104.123 199.2 101.116 197.887C98.0789 196.574 95.451 198.47 93.0274 203.985V204.014Z" fill="white"/>
<g opacity="0.5" style="mix-blend-mode:overlay">
<path d="M283.905 530.938C275.379 539.311 267.203 540.449 260.984 534.147C254.735 527.787 255.991 519.647 264.488 511.273C272.985 502.928 281.132 501.791 287.409 508.151C293.629 514.453 292.373 522.593 283.905 530.967V530.938ZM268.809 515.62C262.152 522.156 260.809 527.086 264.43 530.734C267.992 534.351 272.956 533.097 279.584 526.561C286.212 520.026 287.526 515.124 283.964 511.506C280.343 507.859 275.438 509.055 268.809 515.62Z" fill="white"/>
</g>
<g opacity="0.5" style="mix-blend-mode:overlay">
<path d="M63.9731 591.915C69.9298 598.713 70.4261 604.928 65.3747 609.333C60.294 613.768 54.1913 612.455 48.2347 605.657C42.3072 598.888 41.8108 592.673 46.8915 588.239C51.943 583.833 58.0457 585.117 63.9731 591.886V591.915ZM51.7386 602.623C56.3813 607.933 60.0312 609.158 62.9803 606.591C65.8711 604.052 65.1411 600.288 60.4984 594.978C55.8557 589.668 52.2058 588.472 49.3151 591.01C46.3951 593.578 47.0959 597.312 51.7386 602.623Z" fill="white"/>
</g>
<path d="M1322.52 118.851C1324.19 113.658 1320.97 109.311 1313.97 107.064C1308.24 105.226 1300.53 106.043 1293.5 109.194L1291.8 99.5073C1300.71 96.152 1310.11 95.3642 1318.49 98.0776C1330.96 102.104 1337.38 111.09 1334.23 120.894C1332.19 127.254 1324.86 132.827 1315.51 137.845L1292.36 149.866L1324.92 160.369L1321.82 169.997L1275.16 154.972L1277.7 147.065L1310.08 129.792C1316.45 126.525 1321.38 122.498 1322.55 118.851H1322.52Z" fill="white"/>
<path d="M1546.08 878.173C1553.49 887.335 1553.06 897.43 1546.02 903.119C1537.75 909.771 1527.45 907.992 1519.8 898.538C1515.8 893.578 1512.94 886.255 1512.35 879.865L1520.15 878.173C1520.18 883.775 1522.02 889.231 1525.11 893.053C1529.7 898.713 1535.21 899.881 1539.71 896.233C1543.86 892.878 1543.65 887.422 1539.19 881.879C1537.08 879.282 1532.29 873.826 1529.61 871.2L1551.04 853.898L1571.74 879.515L1565.61 884.446L1549.99 865.102L1541.2 872.192C1542.69 873.943 1544.85 876.598 1546.11 878.144L1546.08 878.173Z" fill="white"/>
<g opacity="0.5" style="mix-blend-mode:overlay">
<path d="M1661.18 758.571C1673.15 752.181 1684.45 754.836 1689.35 763.998C1695.11 774.764 1690.87 786.026 1678.55 792.62C1672.07 796.092 1663.19 797.755 1655.83 797.026L1655.57 787.864C1661.91 789.031 1668.48 788.127 1673.47 785.443C1680.86 781.504 1683.37 775.523 1680.22 769.629C1677.32 764.202 1671.11 763.269 1663.86 767.149C1660.48 768.958 1653.26 773.218 1649.73 775.668L1634.78 747.776L1668.21 729.891L1672.48 737.856L1647.25 751.335L1653.38 762.773C1655.69 761.46 1659.13 759.592 1661.18 758.513V758.571Z" fill="white"/>
</g>
<path d="M1370.64 727.619C1385.1 719.887 1398.73 723.097 1404.66 734.184C1411.61 747.167 1406.5 760.764 1391.61 768.729C1383.81 772.901 1373.07 774.914 1364.19 774.039L1363.87 763.01C1371.52 764.411 1379.46 763.302 1385.45 760.092C1394.35 755.337 1397.36 748.101 1393.56 741.04C1390.06 734.505 1382.56 733.367 1373.86 738.035C1369.77 740.223 1361.07 745.358 1356.8 748.305L1338.76 714.636L1379.08 693.074L1384.22 702.702L1353.8 718.983L1361.18 732.783C1363.96 731.179 1368.13 728.961 1370.59 727.648L1370.64 727.619Z" fill="white"/>
<g opacity="0.5" style="mix-blend-mode:overlay">
<path d="M1678.58 359.644C1688.36 354.421 1697.59 356.58 1701.62 364.079C1706.32 372.861 1702.87 382.051 1692.8 387.449C1687.51 390.279 1680.24 391.621 1674.23 391.067L1674.02 383.598C1679.19 384.531 1684.56 383.802 1688.62 381.643C1694.64 378.433 1696.68 373.532 1694.14 368.747C1691.78 364.312 1686.7 363.553 1680.8 366.704C1678.02 368.192 1672.13 371.664 1669.26 373.678L1657.06 350.891L1684.36 336.273L1687.83 342.78L1667.25 353.808L1672.24 363.145C1674.11 362.065 1676.94 360.548 1678.61 359.673L1678.58 359.644Z" fill="white"/>
</g>
<path d="M1588.67 613.592C1581.84 617.414 1581.52 624.358 1586.04 631.828C1586.04 627.48 1588.38 623.921 1592.82 621.412C1599.86 617.473 1606.63 619.398 1610.48 626.284C1614.57 633.549 1612.21 640.843 1604.73 645.044C1595.85 650.034 1586.86 646.766 1580.79 635.971C1574.45 624.738 1576.2 614.117 1585.49 608.895C1588.96 606.94 1593.72 605.656 1597.46 605.656L1597.67 611.404C1594.72 611.2 1591.3 612.075 1588.64 613.563L1588.67 613.592ZM1590.6 637.663C1592.26 640.756 1596.5 643.002 1601.58 640.143C1605.84 637.75 1607.33 633.607 1604.94 629.348C1602.69 625.321 1598.6 624.329 1594.34 626.722C1589.58 629.406 1588.5 634.103 1590.6 637.663Z" fill="white"/>
<path d="M1683.6 276.377L1677.44 283.175L1613.32 309.171L1603.86 300.622L1666.43 275.414L1644.04 255.166L1637.26 262.489L1629.32 255.311L1643.28 239.906L1683.57 276.348L1683.6 276.377Z" fill="white"/>
<path d="M1509.08 36.8414L1504.49 46.0903L1443.09 93.9105L1430.24 87.55L1490.21 41.0719L1459.76 26.0461L1454.68 36.0828L1443.87 30.7435L1454.24 9.76562L1509.08 36.8414Z" fill="white"/>
<path d="M1508.75 368.367L1513.07 371.635L1531.73 408.018L1527.18 414.028L1509.07 378.521L1498.3 392.759L1502.97 396.377L1499.15 401.424L1489.34 394.013L1508.72 368.396L1508.75 368.367Z" fill="white"/>
<path d="M1468.34 158.527L1466.42 162.904L1439 186.391L1432.89 183.736L1459.7 160.891L1445.25 154.588L1443.11 159.344L1438 157.098L1442.36 147.148L1468.34 158.527Z" fill="white"/>
<path d="M1629.12 398.161C1629.55 404.522 1626.22 409.92 1620.41 413.012C1628.59 415.201 1634.08 421.007 1634.63 429.001C1635.48 440.876 1626.22 448.87 1610.63 449.979C1595.04 451.088 1584.73 444.552 1583.92 432.794C1583.33 424.712 1588.12 418.089 1596.21 414.734C1589.64 412.341 1585.37 407.294 1584.91 400.846C1584.18 390.488 1592.27 383.427 1605.76 382.465C1619.45 381.502 1628.36 387.454 1629.12 398.161ZM1594.37 430.781C1594.89 438.104 1600.59 441.78 1609.99 441.109C1619.3 440.438 1624.53 435.974 1624.01 428.768C1623.51 421.824 1617.7 418.147 1608.3 418.818C1598.98 419.489 1593.84 423.866 1594.34 430.781H1594.37ZM1594.46 401.196C1594.89 407.381 1599.8 410.649 1607.8 410.065C1615.77 409.511 1620.09 405.572 1619.66 399.387C1619.22 393.201 1614.4 389.934 1606.43 390.488C1598.46 391.042 1594.05 394.981 1594.49 401.167L1594.46 401.196Z" fill="white"/>
<path d="M1492.11 289.946C1488.11 298.553 1479.88 303.163 1470.12 303.017C1479.21 311.741 1482.13 323.236 1477.13 334.032C1469.69 350.079 1451.85 353.843 1430.76 344.068C1409.68 334.294 1400.98 318.422 1408.37 302.492C1413.42 291.58 1424.43 286.387 1437.33 287.816C1430.5 279.968 1428.57 270.34 1432.63 261.616C1439.12 247.611 1454.74 244.227 1472.99 252.688C1491.5 261.266 1498.83 275.416 1492.08 289.946H1492.11ZM1423.41 307.423C1418.82 317.314 1423.58 326.242 1436.31 332.135C1448.9 337.971 1458.91 335.899 1463.47 326.125C1467.82 316.759 1462.91 307.773 1450.21 301.879C1437.63 296.044 1427.79 298.057 1423.43 307.423H1423.41ZM1444.84 268.968C1440.95 277.313 1445.01 285.103 1455.79 290.121C1466.59 295.11 1475.03 293.097 1478.88 284.753C1482.77 276.408 1478.86 268.677 1468.05 263.658C1457.25 258.669 1448.69 260.624 1444.81 268.968H1444.84Z" fill="white"/>
<path d="M1499.15 610.65C1493.83 616.923 1485.89 618.878 1477.77 616.515C1483.35 625.88 1483.15 636.18 1476.49 644.028C1466.56 655.728 1450.79 654.765 1435.43 641.752C1420.08 628.74 1416.45 613.451 1426.29 601.868C1433.04 593.903 1443.43 592.094 1453.89 596.295C1450 588.184 1450.59 579.694 1455.99 573.304C1464.63 563.093 1478.47 563.88 1491.76 575.142C1505.25 586.55 1508.11 600.088 1499.15 610.65ZM1437.71 609.454C1431.61 616.661 1433.54 625.209 1442.79 633.058C1451.96 640.819 1460.81 641.402 1466.85 634.283C1472.63 627.456 1470.62 618.82 1461.36 610.971C1452.19 603.21 1443.52 602.597 1437.71 609.454ZM1464.49 582.262C1459.32 588.359 1460.9 595.799 1468.78 602.452C1476.63 609.104 1484.17 609.366 1489.31 603.269C1494.48 597.171 1492.99 589.818 1485.13 583.166C1477.28 576.514 1469.66 576.164 1464.49 582.262Z" fill="white"/>
<g opacity="0.5" style="mix-blend-mode:overlay">
<path d="M1548.23 207.198C1545.4 211.925 1540.38 214.055 1534.77 213.383C1539.47 218.956 1540.44 225.783 1536.9 231.677C1531.62 240.459 1521.14 241.539 1509.57 234.624C1498.04 227.709 1493.98 218.023 1499.24 209.299C1502.83 203.318 1509.49 200.983 1516.84 202.617C1513.4 197.687 1512.87 191.997 1515.73 187.241C1520.35 179.568 1529.54 178.576 1539.53 184.586C1549.66 190.655 1553.02 199.262 1548.26 207.227L1548.23 207.198ZM1507.59 213.063C1504.35 218.489 1506.54 223.916 1513.51 228.088C1520.41 232.231 1526.3 231.648 1529.52 226.309C1532.61 221.174 1530.33 215.688 1523.35 211.516C1516.46 207.373 1510.68 207.927 1507.59 213.063ZM1522.3 192.231C1519.56 196.811 1521.4 201.538 1527.33 205.097C1533.25 208.628 1538.22 207.986 1540.96 203.434C1543.71 198.854 1541.93 194.156 1536.03 190.626C1530.1 187.095 1525.05 187.679 1522.3 192.26V192.231Z" fill="white"/>
</g>
<g opacity="0.5" style="mix-blend-mode:overlay">
<path d="M1674.61 545.448C1671.78 549.999 1666.87 552.012 1661.41 551.254C1665.88 556.768 1666.73 563.391 1663.19 569.081C1657.94 577.542 1647.69 578.417 1636.56 571.502C1625.44 564.587 1621.67 555.105 1626.9 546.702C1630.49 540.955 1637 538.796 1644.13 540.488C1640.86 535.644 1640.45 530.101 1643.31 525.52C1647.89 518.139 1656.89 517.322 1666.49 523.303C1676.24 529.372 1679.37 537.804 1674.61 545.448ZM1634.99 550.495C1631.75 555.718 1633.79 561.028 1640.51 565.2C1647.13 569.343 1652.89 568.847 1656.1 563.712C1659.16 558.781 1657.06 553.413 1650.35 549.241C1643.72 545.098 1638.08 545.564 1634.99 550.495ZM1649.62 530.48C1646.87 534.886 1648.59 539.525 1654.29 543.055C1659.98 546.586 1664.83 546.031 1667.57 541.655C1670.32 537.249 1668.65 532.668 1662.96 529.109C1657.27 525.579 1652.33 526.075 1649.62 530.48Z" fill="white"/>
</g>
<path d="M1263.66 878.221C1278.49 871.569 1280.39 857.272 1272.45 840.788C1271.63 849.862 1266.17 856.806 1256.5 861.124C1241.23 867.98 1227.57 862.495 1220.85 847.586C1213.7 831.655 1219.92 817.009 1236.18 809.715C1255.51 801.049 1273.59 809.54 1284.21 833.143C1295.25 857.739 1289.62 879.534 1269.38 888.608C1261.79 892.021 1251.74 893.743 1243.92 893.043L1244.59 880.993C1250.69 881.956 1257.85 880.847 1263.69 878.221H1263.66ZM1232.97 842.246C1236.91 851.029 1245.09 853.946 1254.31 849.803C1264.74 845.135 1267.75 835.594 1264.07 827.746C1261.18 821.006 1252.88 815.492 1241.79 820.452C1232.56 824.595 1228.76 832.881 1232.97 842.217V842.246Z" fill="white"/>
<path d="M1610.51 98.1951C1618.22 111.85 1616.85 122.557 1606.72 128.247C1596.53 133.995 1586.66 129.618 1578.95 115.964C1571.27 102.367 1572.67 91.6596 1582.83 85.941C1592.97 80.2516 1602.83 84.5989 1610.51 98.1951ZM1585.96 112.025C1591.97 122.674 1597.75 126.059 1603.62 122.732C1609.43 119.465 1609.52 112.783 1603.51 102.134C1597.49 91.4845 1591.77 88.1584 1585.96 91.4261C1580.09 94.7231 1579.94 101.346 1585.96 111.996V112.025Z" fill="white"/>
<path d="M1482.45 481.018C1471.73 495.81 1459.7 499.574 1448.72 491.609C1437.68 483.614 1437.51 471.01 1448.22 456.247C1458.91 441.513 1470.94 437.778 1481.98 445.743C1492.96 453.679 1493.13 466.284 1482.45 481.018ZM1455.82 461.732C1447.44 473.286 1446.68 481.018 1453.04 485.628C1459.35 490.179 1466.47 487.028 1474.85 475.503C1483.23 463.95 1483.96 456.276 1477.66 451.695C1471.29 447.086 1464.2 450.178 1455.84 461.703L1455.82 461.732Z" fill="white"/>
<path d="M1543.42 719.129C1537.34 733.017 1528.26 738.211 1517.95 733.717C1507.59 729.195 1505.19 719.013 1511.27 705.125C1517.31 691.295 1526.39 686.102 1536.76 690.624C1547.07 695.117 1549.46 705.3 1543.42 719.129ZM1518.39 708.217C1513.66 719.071 1514.42 725.49 1520.38 728.086C1526.3 730.654 1531.53 726.861 1536.26 716.007C1540.99 705.154 1540.2 698.793 1534.31 696.226C1528.32 693.629 1523.12 697.364 1518.39 708.217Z" fill="white"/>
<path d="M1691.19 17.6424C1685.59 23.1567 1680.25 23.8861 1676.16 19.7431C1672.04 15.5709 1672.86 10.2316 1678.46 4.71723C1684.04 -0.767944 1689.41 -1.49735 1693.5 2.67488C1697.59 6.81793 1696.77 12.1572 1691.19 17.6424ZM1681.3 7.57651C1676.92 11.8654 1676.04 15.104 1678.41 17.4965C1680.74 19.889 1683.98 19.0429 1688.36 14.7539C1692.74 10.465 1693.59 7.25557 1691.25 4.8631C1688.89 2.47064 1685.68 3.2584 1681.3 7.54734V7.57651Z" fill="white"/>
</g>
</svg>
