<svg width="669" height="636" viewBox="0 0 669 636" fill="none" xmlns="http://www.w3.org/2000/svg">
<foreignObject x="-659.614" y="0" width="1328.2" height="635.392"><div xmlns="http://www.w3.org/1999/xhtml" style="backdrop-filter:blur(34.43px);clip-path:url(#bgblur_0_1_28_clip_path);height:100%;width:100%"></div></foreignObject><g filter="url(#filter0_f_1_28)" data-figma-bg-blur-radius="68.8657" style="mix-blend-mode:screen">
<path d="M-59.5464 520.75C-131.389 279.636 -949.618 690.844 -309.52 271.341C-239.906 161.123 -47.2319 70.5705 208.18 121.613C463.592 172.655 614.211 303.383 544.597 413.601C438.28 348.022 195.866 571.792 -59.5464 520.75Z" fill="url(#paint0_radial_1_28)"/>
</g>
<defs>
<filter id="filter0_f_1_28" x="-659.614" y="0" width="1328.2" height="635.392" filterUnits="userSpaceOnUse" color-interpolation-filters="sRGB">
<feFlood flood-opacity="0" result="BackgroundImageFix"/>
<feBlend mode="normal" in="SourceGraphic" in2="BackgroundImageFix" result="shape"/>
<feGaussianBlur stdDeviation="53.5" result="effect1_foregroundBlur_1_28"/>
</filter>
<clipPath id="bgblur_0_1_28_clip_path" transform="translate(659.614 0)"><path d="M-59.5464 520.75C-131.389 279.636 -949.618 690.844 -309.52 271.341C-239.906 161.123 -47.2319 70.5705 208.18 121.613C463.592 172.655 614.211 303.383 544.597 413.601C438.28 348.022 195.866 571.792 -59.5464 520.75Z"/>
</clipPath><radialGradient id="paint0_radial_1_28" cx="0" cy="0" r="1" gradientTransform="matrix(-439.52 -87.8349 129.189 -204.543 55.8232 340.203)" gradientUnits="userSpaceOnUse">
<stop stop-color="#3A1D95"/>
<stop offset="1" stop-color="#3A1D95" stop-opacity="0"/>
</radialGradient>
</defs>
</svg>
