<svg width="55" height="55" viewBox="0 0 55 55" fill="none" xmlns="http://www.w3.org/2000/svg">
<rect width="55" height="55" rx="27.5" fill="white"/>
<rect width="55" height="55" rx="27.5" fill="white" fill-opacity="0.1"/>
<mask id="path-2-inside-1_517_5636" fill="white">
<path d="M27.5 11V11.0016H27.4984C18.3859 11.0016 11 18.3875 11 27.5C11 36.6125 18.3875 44 27.5 44C36.6125 44 44 36.6125 44 27.5C44 18.3875 36.6124 11 27.5 11ZM34.2785 14.2952C35.836 15.0941 37.2329 16.163 38.4094 17.4376H38.4062C37.6283 17.7623 36.7828 18.0565 35.8794 18.3104C35.4438 16.8429 34.9069 15.4879 34.2769 14.2952H34.2785ZM20.7219 14.2936H20.7251C20.095 15.4878 19.5565 16.8429 19.1209 18.3104V18.312C18.2176 18.0565 17.3737 17.7623 16.5941 17.4376H16.5925C17.7691 16.1613 19.166 15.0941 20.7219 14.2936ZM26.6819 12.6814H26.6835V19.3858C24.5312 19.336 22.5299 19.0948 20.7202 18.7075H20.7186C21.3953 16.4571 22.3147 14.599 23.3659 13.2441C24.4268 12.9355 25.5358 12.7441 26.6819 12.6814ZM28.3166 12.6814H28.3183V12.683C29.4627 12.744 30.5734 12.9353 31.6343 13.2423H31.6327C32.6855 14.5974 33.605 16.4571 34.2817 18.7057L34.2801 18.7073C32.4702 19.0947 30.469 19.3358 28.3167 19.3856L28.3166 12.6814ZM15.4995 18.7669L15.5011 18.7685C16.4912 19.2025 17.565 19.5819 18.7047 19.9001H18.703C18.2096 22.0186 17.9187 24.3204 17.864 26.6831H12.6816C12.8424 23.732 13.8632 21.0108 15.4995 18.7669ZM20.2958 20.2955V20.2971H20.2991C22.3067 20.7343 24.4687 20.9931 26.6854 21.0446H26.6838V26.6832H19.523C19.5761 24.3606 19.8522 22.2131 20.2958 20.2955ZM34.7014 20.2955L34.7046 20.2971C35.1482 22.2148 35.4247 24.3622 35.4777 26.6835H28.3169V21.0464H28.3153C30.5319 20.9934 32.694 20.7346 34.7017 20.2958L34.7014 20.2955ZM39.4977 18.7669H39.5009V18.7685C41.1373 21.0108 42.1579 23.7319 42.3187 26.6831H37.1364C37.0817 24.3203 36.7908 22.0201 36.2973 19.9018H36.2957C37.4353 19.5819 38.5092 19.2025 39.4977 18.7669ZM19.5259 28.318H26.6839V33.9551L26.6822 33.9567C24.4657 34.0065 22.3036 34.2653 20.2975 34.7041C19.8523 32.7865 19.5758 30.639 19.5228 28.3178L19.5259 28.318ZM28.3166 28.318H35.4791H35.4775C35.4244 30.6375 35.148 32.7864 34.7027 34.7044C32.6951 34.2656 30.5347 34.0068 28.318 33.9554L28.3164 33.957L28.3166 28.318ZM17.8668 28.3164V28.318H17.8636C17.9182 30.6809 18.2092 32.9827 18.7027 35.1011H18.7011C17.563 35.4193 16.4893 35.7987 15.5008 36.2343C13.8644 33.9888 12.8422 31.2676 12.6814 28.318H12.6798L17.8668 28.3164ZM37.1362 28.3164V28.318H37.1378L42.3152 28.3164H42.3184C42.1576 31.2676 41.1369 33.9888 39.499 36.2344H39.4974C38.5105 35.7988 37.4367 35.4194 36.3003 35.1012H36.2971C36.7905 32.981 37.0815 30.6792 37.1362 28.3164ZM35.8776 36.6895V36.6911H35.8808C36.7857 36.945 37.6312 37.2376 38.4092 37.5639H38.4076C37.231 38.8386 35.8326 39.9075 34.275 40.7079C34.905 39.5121 35.4436 38.1586 35.8776 36.6895ZM19.1187 36.6895L19.122 36.6911C19.556 38.1586 20.0944 39.5137 20.7245 40.7079H20.7229C19.167 39.9059 17.7701 38.8385 16.5936 37.5655H16.592C17.3699 37.2376 18.2154 36.945 19.1187 36.6895ZM26.6815 35.6141V35.6157H26.6832V42.3185C25.5403 42.2574 24.4296 42.0662 23.3703 41.7591H23.3687C22.3159 40.4041 21.3964 38.5444 20.7181 36.2958H20.7165C22.5264 35.9052 24.5293 35.6639 26.6815 35.6141ZM28.3163 35.6141V35.6157H28.3179C30.4718 35.6639 32.4748 35.9051 34.2829 36.294H34.2813C33.6046 38.5444 32.6835 40.4041 31.6307 41.7591H31.6275C30.5682 42.0661 29.4591 42.2573 28.3162 42.3184L28.3163 35.6141Z"/>
</mask>
<path d="M27.5 11V11.0016H27.4984C18.3859 11.0016 11 18.3875 11 27.5C11 36.6125 18.3875 44 27.5 44C36.6125 44 44 36.6125 44 27.5C44 18.3875 36.6124 11 27.5 11ZM34.2785 14.2952C35.836 15.0941 37.2329 16.163 38.4094 17.4376H38.4062C37.6283 17.7623 36.7828 18.0565 35.8794 18.3104C35.4438 16.8429 34.9069 15.4879 34.2769 14.2952H34.2785ZM20.7219 14.2936H20.7251C20.095 15.4878 19.5565 16.8429 19.1209 18.3104V18.312C18.2176 18.0565 17.3737 17.7623 16.5941 17.4376H16.5925C17.7691 16.1613 19.166 15.0941 20.7219 14.2936ZM26.6819 12.6814H26.6835V19.3858C24.5312 19.336 22.5299 19.0948 20.7202 18.7075H20.7186C21.3953 16.4571 22.3147 14.599 23.3659 13.2441C24.4268 12.9355 25.5358 12.7441 26.6819 12.6814ZM28.3166 12.6814H28.3183V12.683C29.4627 12.744 30.5734 12.9353 31.6343 13.2423H31.6327C32.6855 14.5974 33.605 16.4571 34.2817 18.7057L34.2801 18.7073C32.4702 19.0947 30.469 19.3358 28.3167 19.3856L28.3166 12.6814ZM15.4995 18.7669L15.5011 18.7685C16.4912 19.2025 17.565 19.5819 18.7047 19.9001H18.703C18.2096 22.0186 17.9187 24.3204 17.864 26.6831H12.6816C12.8424 23.732 13.8632 21.0108 15.4995 18.7669ZM20.2958 20.2955V20.2971H20.2991C22.3067 20.7343 24.4687 20.9931 26.6854 21.0446H26.6838V26.6832H19.523C19.5761 24.3606 19.8522 22.2131 20.2958 20.2955ZM34.7014 20.2955L34.7046 20.2971C35.1482 22.2148 35.4247 24.3622 35.4777 26.6835H28.3169V21.0464H28.3153C30.5319 20.9934 32.694 20.7346 34.7017 20.2958L34.7014 20.2955ZM39.4977 18.7669H39.5009V18.7685C41.1373 21.0108 42.1579 23.7319 42.3187 26.6831H37.1364C37.0817 24.3203 36.7908 22.0201 36.2973 19.9018H36.2957C37.4353 19.5819 38.5092 19.2025 39.4977 18.7669ZM19.5259 28.318H26.6839V33.9551L26.6822 33.9567C24.4657 34.0065 22.3036 34.2653 20.2975 34.7041C19.8523 32.7865 19.5758 30.639 19.5228 28.3178L19.5259 28.318ZM28.3166 28.318H35.4791H35.4775C35.4244 30.6375 35.148 32.7864 34.7027 34.7044C32.6951 34.2656 30.5347 34.0068 28.318 33.9554L28.3164 33.957L28.3166 28.318ZM17.8668 28.3164V28.318H17.8636C17.9182 30.6809 18.2092 32.9827 18.7027 35.1011H18.7011C17.563 35.4193 16.4893 35.7987 15.5008 36.2343C13.8644 33.9888 12.8422 31.2676 12.6814 28.318H12.6798L17.8668 28.3164ZM37.1362 28.3164V28.318H37.1378L42.3152 28.3164H42.3184C42.1576 31.2676 41.1369 33.9888 39.499 36.2344H39.4974C38.5105 35.7988 37.4367 35.4194 36.3003 35.1012H36.2971C36.7905 32.981 37.0815 30.6792 37.1362 28.3164ZM35.8776 36.6895V36.6911H35.8808C36.7857 36.945 37.6312 37.2376 38.4092 37.5639H38.4076C37.231 38.8386 35.8326 39.9075 34.275 40.7079C34.905 39.5121 35.4436 38.1586 35.8776 36.6895ZM19.1187 36.6895L19.122 36.6911C19.556 38.1586 20.0944 39.5137 20.7245 40.7079H20.7229C19.167 39.9059 17.7701 38.8385 16.5936 37.5655H16.592C17.3699 37.2376 18.2154 36.945 19.1187 36.6895ZM26.6815 35.6141V35.6157H26.6832V42.3185C25.5403 42.2574 24.4296 42.0662 23.3703 41.7591H23.3687C22.3159 40.4041 21.3964 38.5444 20.7181 36.2958H20.7165C22.5264 35.9052 24.5293 35.6639 26.6815 35.6141ZM28.3163 35.6141V35.6157H28.3179C30.4718 35.6639 32.4748 35.9051 34.2829 36.294H34.2813C33.6046 38.5444 32.6835 40.4041 31.6307 41.7591H31.6275C30.5682 42.0661 29.4591 42.2573 28.3162 42.3184L28.3163 35.6141Z" fill="black" stroke="white" stroke-width="0.4" mask="url(#path-2-inside-1_517_5636)"/>
</svg>
