<svg width="50" height="50" viewBox="0 0 50 50" fill="none" xmlns="http://www.w3.org/2000/svg">
<rect width="50" height="50" rx="25" fill="white"/>
<rect width="50" height="50" rx="25" fill="white" fill-opacity="0.1"/>
<path d="M35.1447 23.8209L31.3687 27.5955C30.1728 28.7928 28.5791 29.4535 26.8867 29.4535C25.1942 29.4535 23.6005 28.7941 22.4046 27.5955C22.0135 27.2045 22.0135 26.5705 22.4046 26.1794C22.7957 25.787 23.4297 25.7897 23.8208 26.1794C25.4612 27.8198 28.3175 27.8198 29.9552 26.1794L33.7312 22.4048C35.4223 20.7137 35.4223 17.9615 33.7312 16.2691C32.0374 14.5766 29.2865 14.5793 27.5954 16.2691L25.7081 18.1577C25.317 18.5488 24.683 18.5488 24.2919 18.1577C23.9008 17.768 23.9008 17.1326 24.2919 16.7416L26.1792 14.8529C28.6512 12.3837 32.6741 12.381 35.146 14.8529C37.618 17.3262 37.618 21.3477 35.146 23.8196L35.1447 23.8209ZM24.2906 31.844L22.4033 33.7313C20.7121 35.4197 17.9612 35.4224 16.2674 33.7313C14.5763 32.0388 14.5763 29.288 16.2674 27.5955L20.0434 23.8209C21.6812 22.1819 24.5402 22.1819 26.1779 23.8209C26.569 24.212 27.203 24.212 27.5941 23.8209C27.9852 23.4312 27.9852 22.7959 27.5941 22.4048C26.3981 21.2075 24.8045 20.5482 23.112 20.5482C21.4196 20.5482 19.8259 21.2075 18.6299 22.4048L14.854 26.1794C12.382 28.6526 12.382 32.6728 14.854 35.1461C16.0899 36.382 17.7143 37 19.336 37C20.9577 37 22.5848 36.382 23.8194 35.1461L25.7067 33.2588C26.0978 32.8677 26.0978 32.2337 25.7067 31.8426C25.3157 31.4516 24.6817 31.4516 24.2906 31.8426V31.844Z" fill="black"/>
</svg>
