<svg width="50" height="50" viewBox="0 0 50 50" fill="none" xmlns="http://www.w3.org/2000/svg">
<rect width="50" height="50" rx="25" fill="white"/>
<rect width="50" height="50" rx="25" fill="white" fill-opacity="0.1"/>
<g clip-path="url(#clip0_1_642)">
<mask id="mask0_1_642" style="mask-type:luminance" maskUnits="userSpaceOnUse" x="13" y="15" width="25" height="21">
<path d="M38 15H13V36H38V15Z" fill="white"/>
</mask>
<g mask="url(#mask0_1_642)">
<path d="M19.844 22H15.582V35.9993H19.844V22Z" fill="black"/>
<path d="M17.6915 20.1659C18.1947 20.1701 18.6878 20.0222 19.1082 19.7409C19.5286 19.4597 19.8574 19.0578 20.0529 18.5863C20.2484 18.1148 20.3017 17.5948 20.2061 17.0924C20.1105 16.59 19.8703 16.1278 19.516 15.7644C19.1617 15.401 18.7092 15.1528 18.216 15.0513C17.7228 14.9498 17.211 14.9996 16.7456 15.1943C16.2802 15.389 15.8822 15.7199 15.602 16.1449C15.3218 16.57 15.1721 17.0701 15.1719 17.5818C15.1705 17.9197 15.2345 18.2546 15.3603 18.5673C15.4862 18.8801 15.6714 19.1645 15.9053 19.4045C16.1393 19.6444 16.4175 19.8352 16.7239 19.9659C17.0304 20.0965 17.3592 20.1645 17.6915 20.1659Z" fill="black"/>
<path d="M26.6527 28.6511C26.6527 26.6826 27.544 25.51 29.2495 25.51C30.8158 25.51 31.5701 26.6351 31.5701 28.6511V35.9989H35.8093V27.1336C35.8093 23.3845 33.7179 21.5708 30.7995 21.5708C29.9703 21.5591 29.1523 21.7661 28.4252 22.1715C27.6981 22.5769 27.0867 23.167 26.6506 23.8841V21.9985H22.5625V35.9978H26.6506L26.6527 28.6511Z" fill="black"/>
</g>
</g>
<defs>
<clipPath id="clip0_1_642">
<rect width="25" height="21" fill="white" transform="translate(13 15)"/>
</clipPath>
</defs>
</svg>
