<svg width="32" height="32" viewBox="0 0 32 32" fill="none" xmlns="http://www.w3.org/2000/svg">
<g clip-path="url(#clip0_1_673)">
<mask id="mask0_1_673" style="mask-type:luminance" maskUnits="userSpaceOnUse" x="0" y="0" width="32" height="32">
<path d="M32 0H0V32H32V0Z" fill="white"/>
</mask>
<g mask="url(#mask0_1_673)">
<path d="M16 32C24.8366 32 32 24.8366 32 16C32 7.16345 24.8366 0 16 0C7.16345 0 0 7.16345 0 16C0 24.8366 7.16345 32 16 32Z" fill="#F4DD01"/>
<path d="M17.4516 23.7925H10.9609V8.13281H13.4206V21.3317H17.4473L17.4516 23.7925Z" fill="black"/>
<path d="M21.0329 22.6097C21.0348 22.9011 20.9356 23.1842 20.7521 23.4105C20.5687 23.6369 20.3123 23.7926 20.0268 23.8511C19.7414 23.9096 19.4444 23.8672 19.1868 23.7312C18.929 23.5952 18.7265 23.3739 18.6137 23.1052C18.5009 22.8365 18.4849 22.537 18.5683 22.2578C18.6516 21.9786 18.8294 21.737 19.0711 21.5741C19.3127 21.4114 19.6033 21.3374 19.8935 21.365C20.1836 21.3926 20.4551 21.52 20.6617 21.7255C20.7807 21.8397 20.8751 21.977 20.9389 22.1292C21.0028 22.2813 21.0348 22.4448 21.0329 22.6097Z" fill="black"/>
</g>
</g>
<defs>
<clipPath id="clip0_1_673">
<rect width="32" height="32" fill="white"/>
</clipPath>
</defs>
</svg>
