<svg width="50" height="50" viewBox="0 0 50 50" fill="none" xmlns="http://www.w3.org/2000/svg">
<rect width="50" height="50" rx="25" fill="white"/>
<rect width="50" height="50" rx="25" fill="white" fill-opacity="0.1"/>
<path d="M38.637 17.2589C38.4414 16.8956 38.162 16.5883 37.8267 16.3368C37.3237 15.9735 36.7369 15.75 36.0663 15.75H14.551C13.8804 15.75 13.2936 15.9735 12.7907 16.3368C12.4554 16.5883 12.176 16.8956 11.9804 17.2589C11.7289 17.678 11.6171 18.153 11.6171 18.6839V31.1181C11.6171 31.6769 11.7848 32.1799 12.0363 32.6269C12.2598 32.9902 12.5392 33.2696 12.8745 33.5211C13.3495 33.8564 13.9363 34.052 14.551 34.052H36.0663C36.681 34.052 37.2678 33.8564 37.7428 33.5211C38.0781 33.2976 38.3576 32.9902 38.5811 32.6269C38.8605 32.1799 39.0002 31.6769 39.0002 31.1181V18.6839C39.0002 18.1809 38.8605 17.7059 38.637 17.2589ZM14.551 16.9794H36.0663C36.3457 16.9794 36.5972 17.0353 36.8208 17.1471L26.0352 25.5297C25.8396 25.6973 25.5881 25.7811 25.3366 25.7811C25.0851 25.7811 24.8337 25.6973 24.6381 25.5297L13.8525 17.1471C14.0201 17.0353 14.2716 16.9794 14.551 16.9794ZM12.8186 31.146V18.7118C12.8186 18.4883 12.8745 18.2368 12.9583 18.0412L21.0895 24.3561L12.9583 31.8166C12.8745 31.5931 12.8186 31.3695 12.8186 31.146ZM36.0663 32.8505H14.551C14.2716 32.8505 14.0201 32.7946 13.7966 32.6828L22.0395 25.0826L23.8278 26.4797C24.2469 26.7871 24.7498 26.9827 25.2807 26.9827C25.8116 26.9827 26.3146 26.815 26.7337 26.4797L28.522 25.0826L36.7649 32.6828C36.5972 32.7946 36.3457 32.8505 36.0663 32.8505ZM29.5279 24.3282L37.659 18.0133C37.7428 18.2089 37.7987 18.4324 37.7987 18.6839V31.1181C37.7987 31.3416 37.7428 31.5931 37.659 31.7887L29.5279 24.3282Z" fill="black"/>
</svg>
