<svg width="474" height="71" viewBox="0 0 474 71" fill="none" xmlns="http://www.w3.org/2000/svg">
<path d="M26.6006 15.4795C30.1437 15.4237 33.6628 16.0703 36.9521 17.3809C40.2415 18.6915 43.2358 20.64 45.7598 23.1133C48.2838 25.5866 50.2864 28.5357 51.6523 31.7871C53.0182 35.0384 53.7196 38.5273 53.7148 42.0508V67.1084C53.7144 67.5106 53.5533 67.8959 53.2676 68.1797C52.9818 68.4635 52.5947 68.623 52.1914 68.623H44.8389V68.6221C44.6392 68.6222 44.4414 68.5837 44.2568 68.5078C44.0721 68.4319 43.9042 68.3203 43.7627 68.1797C43.6212 68.0391 43.5083 67.8724 43.4316 67.6885C43.3549 67.5045 43.3154 67.3067 43.3154 67.1074V42.3809C43.3218 40.2106 42.8976 38.0601 42.0674 36.0527C41.2373 34.0457 40.0176 32.2208 38.4775 30.6826C36.9372 29.1443 35.1065 27.9226 33.0908 27.0879C31.0753 26.2533 28.9139 25.822 26.7305 25.8184V25.8174C22.4462 25.8925 18.3623 27.6346 15.3555 30.6689C12.3477 33.7043 10.6579 37.7915 10.6475 42.0518V67.1074C10.6477 67.3067 10.6078 67.5044 10.5312 67.6885C10.4547 67.8725 10.3426 68.04 10.2012 68.1807C10.0598 68.3213 9.89162 68.4327 9.70703 68.5088C9.52245 68.5848 9.32472 68.624 9.125 68.624H1.77246C1.36935 68.6239 0.98278 68.4645 0.697266 68.1807C0.411672 67.8967 0.25008 67.5115 0.25 67.1094V42.4746C0.209247 35.44 2.94786 28.6711 7.875 23.623C12.8024 18.5747 19.5257 15.6501 26.5986 15.4795H26.6006Z" fill="white" stroke="white" stroke-width="0.5"/>
<mask id="path-2-outside-1_1_623" maskUnits="userSpaceOnUse" x="58.0469" y="16.7539" width="55" height="54" fill="black">
<rect fill="white" x="58.0469" y="16.7539" width="55" height="54"/>
<path d="M103.388 17.7552H110.739C110.906 17.7552 111.072 17.7879 111.226 17.8516C111.381 17.9152 111.521 18.0085 111.639 18.1261C111.757 18.2437 111.851 18.3833 111.915 18.5369C111.979 18.6906 112.012 18.8552 112.011 19.0214V43.0931C112.052 50.0621 109.339 56.7685 104.458 61.77C99.5762 66.7714 92.9152 69.6684 85.9074 69.8377C82.3972 69.8928 78.9112 69.2525 75.6525 67.954C72.3939 66.6556 69.4279 64.725 66.9277 62.275C64.4274 59.8249 62.4428 56.9045 61.0898 53.6839C59.7367 50.4633 59.0423 47.0071 59.0469 43.5169V19.0202C59.0469 18.8539 59.0798 18.6892 59.1438 18.5356C59.2079 18.382 59.3017 18.2424 59.4199 18.1248C59.5382 18.0072 59.6786 17.9139 59.8332 17.8503C59.9877 17.7867 60.1533 17.7539 60.3206 17.7539H67.6713C67.8385 17.7539 68.0042 17.7867 68.1587 17.8503C68.3132 17.9139 68.4536 18.0072 68.5719 18.1248C68.6902 18.2424 68.784 18.382 68.848 18.5356C68.912 18.6892 68.9449 18.8539 68.9449 19.0202V43.1909C68.9383 45.3933 69.3683 47.5754 70.2102 49.6125C71.0522 51.6496 72.2896 53.5018 73.8519 55.0633C75.4142 56.6247 77.2706 57.8648 79.3151 58.7127C81.3597 59.5606 83.5522 59.9996 85.7675 60.0047C90.1188 59.9309 94.2674 58.1632 97.3221 55.0815C100.377 51.9997 102.094 47.8498 102.104 43.5231V19.0202C102.105 18.6848 102.239 18.3632 102.478 18.126C102.716 17.8889 103.04 17.7555 103.377 17.7552"/>
</mask>
<path d="M103.388 17.7552H110.739C110.906 17.7552 111.072 17.7879 111.226 17.8516C111.381 17.9152 111.521 18.0085 111.639 18.1261C111.757 18.2437 111.851 18.3833 111.915 18.5369C111.979 18.6906 112.012 18.8552 112.011 19.0214V43.0931C112.052 50.0621 109.339 56.7685 104.458 61.77C99.5762 66.7714 92.9152 69.6684 85.9074 69.8377C82.3972 69.8928 78.9112 69.2525 75.6525 67.954C72.3939 66.6556 69.4279 64.725 66.9277 62.275C64.4274 59.8249 62.4428 56.9045 61.0898 53.6839C59.7367 50.4633 59.0423 47.0071 59.0469 43.5169V19.0202C59.0469 18.8539 59.0798 18.6892 59.1438 18.5356C59.2079 18.382 59.3017 18.2424 59.4199 18.1248C59.5382 18.0072 59.6786 17.9139 59.8332 17.8503C59.9877 17.7867 60.1533 17.7539 60.3206 17.7539H67.6713C67.8385 17.7539 68.0042 17.7867 68.1587 17.8503C68.3132 17.9139 68.4536 18.0072 68.5719 18.1248C68.6902 18.2424 68.784 18.382 68.848 18.5356C68.912 18.6892 68.9449 18.8539 68.9449 19.0202V43.1909C68.9383 45.3933 69.3683 47.5754 70.2102 49.6125C71.0522 51.6496 72.2896 53.5018 73.8519 55.0633C75.4142 56.6247 77.2706 57.8648 79.3151 58.7127C81.3597 59.5606 83.5522 59.9996 85.7675 60.0047C90.1188 59.9309 94.2674 58.1632 97.3221 55.0815C100.377 51.9997 102.094 47.8498 102.104 43.5231V19.0202C102.105 18.6848 102.239 18.3632 102.478 18.126C102.716 17.8889 103.04 17.7555 103.377 17.7552" fill="white"/>
<path d="M110.739 17.7552V18.2552V18.2552V17.7552ZM112.011 19.0214L111.511 19.0209V19.0214H112.011ZM112.011 43.0931H111.511L111.511 43.096L112.011 43.0931ZM85.9074 69.8377L85.9153 70.3377L85.9195 70.3376L85.9074 69.8377ZM59.0469 43.5169L59.5469 43.5175V43.5169H59.0469ZM59.0469 19.0202H58.5469H59.0469ZM60.3206 17.7539V17.2539V17.7539ZM68.9449 19.0202H69.4449H68.9449ZM68.9449 43.1909L69.4449 43.1924V43.1909H68.9449ZM85.7675 60.0047L85.7663 60.5048L85.7759 60.5046L85.7675 60.0047ZM102.104 43.5231L102.604 43.5244V43.5231H102.104ZM102.104 19.0202L101.604 19.0197V19.0202H102.104ZM103.388 17.7552V18.2552H110.739V17.7552V17.2552H103.388V17.7552ZM110.739 17.7552V18.2552C110.841 18.2552 110.942 18.2751 111.036 18.3139L111.226 17.8516L111.417 17.3893C111.202 17.3007 110.971 17.2552 110.739 17.2552L110.739 17.7552ZM111.226 17.8516L111.036 18.3139C111.13 18.3526 111.215 18.4093 111.286 18.4805L111.639 18.1261L111.992 17.7717C111.827 17.6078 111.632 17.4779 111.417 17.3893L111.226 17.8516ZM111.639 18.1261L111.286 18.4805C111.358 18.5518 111.415 18.6362 111.453 18.7289L111.915 18.5369L112.377 18.345C112.287 18.1305 112.157 17.9357 111.992 17.7717L111.639 18.1261ZM111.915 18.5369L111.453 18.7289C111.492 18.8216 111.511 18.9208 111.511 19.0209L112.011 19.0214L112.511 19.0219C112.512 18.7896 112.466 18.5595 112.377 18.345L111.915 18.5369ZM112.011 19.0214H111.511V43.0931H112.011H112.511V19.0214H112.011ZM112.011 43.0931L111.511 43.096C111.551 49.9331 108.89 56.5131 104.1 61.4207L104.458 61.77L104.816 62.1192C109.789 57.0239 112.552 50.1911 112.511 43.0902L112.011 43.0931ZM104.458 61.77L104.1 61.4207C99.3099 66.3285 92.7731 69.1716 85.8953 69.3379L85.9074 69.8377L85.9195 70.3376C93.0573 70.1651 99.8425 67.2144 104.816 62.1192L104.458 61.77ZM85.9074 69.8377L85.8996 69.3378C82.4554 69.3919 79.0349 68.7635 75.8376 67.4895L75.6525 67.954L75.4674 68.4185C78.7875 69.7414 82.3391 70.3938 85.9153 70.3377L85.9074 69.8377ZM75.6525 67.954L75.8376 67.4895C72.6404 66.2156 69.7305 64.3215 67.2776 61.9179L66.9277 62.275L66.5777 62.6321C69.1254 65.1286 72.1474 67.0956 75.4674 68.4185L75.6525 67.954ZM66.9277 62.275L67.2776 61.9179C64.8247 59.5143 62.878 56.6493 61.5508 53.4902L61.0898 53.6839L60.6288 53.8775C62.0077 57.1596 64.03 60.1356 66.5777 62.6321L66.9277 62.275ZM61.0898 53.6839L61.5508 53.4902C60.2235 50.3311 59.5424 46.941 59.5469 43.5175L59.0469 43.5169L58.5469 43.5162C58.5422 47.0732 59.2499 50.5955 60.6288 53.8775L61.0898 53.6839ZM59.0469 43.5169H59.5469V19.0202H59.0469H58.5469V43.5169H59.0469ZM59.0469 19.0202H59.5469C59.5469 18.92 59.5667 18.8206 59.6054 18.7279L59.1438 18.5356L58.6823 18.3433C58.5929 18.5578 58.5469 18.7878 58.5469 19.0202H59.0469ZM59.1438 18.5356L59.6054 18.7279C59.644 18.6351 59.7008 18.5507 59.7725 18.4794L59.4199 18.1248L59.0674 17.7702C58.9026 17.9341 58.7717 18.1288 58.6823 18.3433L59.1438 18.5356ZM59.4199 18.1248L59.7725 18.4794C59.8442 18.4081 59.9295 18.3514 60.0235 18.3126L59.8332 17.8503L59.6428 17.388C59.4278 17.4765 59.2323 17.6063 59.0674 17.7702L59.4199 18.1248ZM59.8332 17.8503L60.0235 18.3126C60.1176 18.2739 60.2186 18.2539 60.3206 18.2539V17.7539V17.2539C60.0881 17.2539 59.8577 17.2994 59.6428 17.388L59.8332 17.8503ZM60.3206 17.7539V18.2539H67.6713V17.7539V17.2539H60.3206V17.7539ZM67.6713 17.7539V18.2539C67.7733 18.2539 67.8742 18.2739 67.9683 18.3126L68.1587 17.8503L68.3491 17.388C68.1341 17.2994 67.9038 17.2539 67.6713 17.2539V17.7539ZM68.1587 17.8503L67.9683 18.3126C68.0624 18.3514 68.1477 18.4081 68.2194 18.4794L68.5719 18.1248L68.9244 17.7702C68.7596 17.6063 68.5641 17.4765 68.3491 17.388L68.1587 17.8503ZM68.5719 18.1248L68.2194 18.4794C68.2911 18.5507 68.3478 18.6351 68.3864 18.7279L68.848 18.5356L69.3095 18.3433C69.2202 18.1288 69.0893 17.9341 68.9244 17.7702L68.5719 18.1248ZM68.848 18.5356L68.3864 18.7279C68.4251 18.8206 68.4449 18.92 68.4449 19.0202H68.9449H69.4449C69.4449 18.7878 69.3989 18.5578 69.3095 18.3433L68.848 18.5356ZM68.9449 19.0202H68.4449V43.1909H68.9449H69.4449V19.0202H68.9449ZM68.9449 43.1909L68.4449 43.1894C68.4381 45.4579 68.881 47.7054 69.7481 49.8035L70.2102 49.6125L70.6723 49.4215C69.8555 47.4454 69.4385 45.3287 69.4449 43.1924L68.9449 43.1909ZM70.2102 49.6125L69.7481 49.8035C70.6153 51.9016 71.8897 53.809 73.4984 55.4169L73.8519 55.0633L74.2054 54.7096C72.6896 53.1946 71.4891 51.3977 70.6723 49.4215L70.2102 49.6125ZM73.8519 55.0633L73.4984 55.4169C75.1072 57.0248 77.0187 58.3016 79.1236 59.1746L79.3151 58.7127L79.5067 58.2509C77.5226 57.428 75.7212 56.2247 74.2054 54.7096L73.8519 55.0633ZM79.3151 58.7127L79.1236 59.1746C81.2285 60.0475 83.4858 60.4995 85.7663 60.5047L85.7675 60.0047L85.7686 59.5047C83.6186 59.4998 81.4908 59.0737 79.5067 58.2509L79.3151 58.7127ZM85.7675 60.0047L85.7759 60.5046C90.2572 60.4286 94.5304 58.6081 97.6772 55.4335L97.3221 55.0815L96.967 54.7295C94.0044 57.7183 89.9803 59.4331 85.759 59.5048L85.7675 60.0047ZM97.3221 55.0815L97.6772 55.4335C100.824 52.2587 102.594 47.9829 102.604 43.5244L102.104 43.5231L101.604 43.5219C101.594 47.7167 99.9295 51.7408 96.967 54.7295L97.3221 55.0815ZM102.104 43.5231H102.604V19.0202H102.104H101.604V43.5231H102.104ZM102.104 19.0202L102.604 19.0207C102.605 18.8187 102.685 18.6244 102.83 18.4806L102.478 18.126L102.125 17.7715C101.792 18.102 101.605 18.5509 101.604 19.0197L102.104 19.0202ZM102.478 18.126L102.83 18.4806C102.975 18.3368 103.172 18.2554 103.377 18.2552L103.377 17.7552L103.376 17.2552C102.908 17.2556 102.457 17.441 102.125 17.7715L102.478 18.126Z" fill="white" mask="url(#path-2-outside-1_1_623)"/>
<path d="M128.26 67.1074C128.259 67.5094 128.099 67.8949 127.813 68.1787C127.528 68.4625 127.14 68.6217 126.737 68.6221H119.257C118.854 68.6221 118.466 68.4627 118.181 68.1787C117.895 67.8948 117.735 67.5095 117.734 67.1074V38.3467C117.73 32.3239 120.117 26.5431 124.376 22.2607C128.635 17.9785 134.421 15.5404 140.478 15.4766H140.48C143.832 15.4827 147.139 16.2408 150.154 17.6953C153.077 19.1051 155.65 21.1354 157.699 23.6387C160.619 20.1145 164.552 17.5576 168.976 16.3145C173.498 15.0436 178.307 15.2085 182.73 16.7861C187.154 18.3638 190.972 21.2758 193.65 25.1152C196.329 28.9548 197.735 33.5304 197.672 38.2031V67.1074C197.671 67.5097 197.51 67.8948 197.225 68.1787C196.939 68.4625 196.552 68.6221 196.148 68.6221H188.797C188.597 68.6221 188.399 68.5828 188.215 68.5068C188.03 68.4308 187.862 68.3194 187.721 68.1787C187.579 68.0381 187.467 67.8704 187.391 67.6865C187.314 67.5027 187.275 67.3054 187.275 67.1064V38.0811C187.298 36.486 187.002 34.9018 186.405 33.4209C185.808 31.9401 184.922 30.5919 183.798 29.4531C182.674 28.3143 181.334 27.4075 179.855 26.7861C178.377 26.1649 176.79 25.8411 175.185 25.833C173.579 25.8249 171.989 26.1329 170.504 26.7393C169.019 27.3456 167.67 28.2379 166.534 29.3652C165.399 30.4926 164.5 31.8329 163.888 33.3076C163.276 34.7824 162.963 36.3628 162.969 37.958V67.1074C162.968 67.5094 162.808 67.8949 162.522 68.1787C162.237 68.4624 161.85 68.6216 161.447 68.6221H154.087C153.684 68.6217 153.297 68.4616 153.012 68.1777C152.727 67.8939 152.567 67.5091 152.566 67.1074V38.2256C152.591 35.2419 151.526 32.3503 149.569 30.0869C147.614 27.8248 144.901 26.3421 141.931 25.916V25.917C140.216 25.7061 138.476 25.8601 136.826 26.3691C135.176 26.8782 133.654 27.7305 132.361 28.8691C131.068 30.0078 130.034 31.4072 129.327 32.9736C128.62 34.5399 128.256 36.2375 128.26 37.9541V67.1074Z" fill="white" stroke="white" stroke-width="0.5"/>
<mask id="path-5-outside-2_1_623" maskUnits="userSpaceOnUse" x="204.836" y="16.75" width="55" height="53" fill="black">
<rect fill="white" x="204.836" y="16.75" width="55" height="53"/>
<path d="M254.713 19.0175V26.3255C254.713 26.6614 254.579 26.9835 254.34 27.2209C254.101 27.4584 253.777 27.5918 253.44 27.5918H220.637C219.375 27.5761 218.157 28.0502 217.242 28.9134C216.326 29.7767 215.785 30.9609 215.734 32.2143C215.672 35.4853 218.265 37.065 221.516 37.065H242.794C244.871 37.0283 246.936 37.4009 248.868 38.1612C250.8 38.9215 252.562 40.0545 254.051 41.4949C255.541 42.9353 256.729 44.6546 257.547 46.5537C258.365 48.4528 258.797 50.4941 258.818 52.5599C258.839 54.6258 258.448 56.6752 257.669 58.5902C256.889 60.5052 255.736 62.2478 254.275 63.7176C252.815 65.1874 251.076 66.3552 249.16 67.1539C247.244 67.9525 245.187 68.366 243.109 68.3707H207.11C206.942 68.3709 206.777 68.3383 206.622 68.2748C206.468 68.2113 206.327 68.1181 206.209 68.0007C206.091 67.8832 205.997 67.7437 205.933 67.5901C205.869 67.4365 205.836 67.2719 205.836 67.1057V59.6686C205.836 59.5023 205.869 59.3377 205.933 59.1842C205.997 59.0306 206.091 58.8911 206.209 58.7736C206.327 58.6561 206.468 58.563 206.622 58.4995C206.777 58.436 206.942 58.4034 207.11 58.4035H242.859C244.119 58.4202 245.352 58.0429 246.384 57.325C247.416 56.6071 248.195 55.5849 248.611 54.4029C248.884 53.5416 248.95 52.6286 248.803 51.7374C248.656 50.8463 248.3 50.0019 247.765 49.2722C247.23 48.5426 246.53 47.948 245.722 47.5365C244.913 47.125 244.019 46.9081 243.11 46.9031H220.849C218.876 46.9175 216.919 46.5422 215.093 45.7987C213.267 45.0552 211.608 43.9585 210.212 42.5722C208.816 41.1859 207.71 39.5377 206.96 37.7232C206.21 35.9087 205.83 33.9642 205.842 32.0024C206.016 23.4908 213.015 17.75 221.518 17.75H253.442C253.78 17.7503 254.104 17.8839 254.342 18.1213C254.581 18.3587 254.715 18.6805 254.716 19.0163"/>
</mask>
<path d="M254.713 19.0175V26.3255C254.713 26.6614 254.579 26.9835 254.34 27.2209C254.101 27.4584 253.777 27.5918 253.44 27.5918H220.637C219.375 27.5761 218.157 28.0502 217.242 28.9134C216.326 29.7767 215.785 30.9609 215.734 32.2143C215.672 35.4853 218.265 37.065 221.516 37.065H242.794C244.871 37.0283 246.936 37.4009 248.868 38.1612C250.8 38.9215 252.562 40.0545 254.051 41.4949C255.541 42.9353 256.729 44.6546 257.547 46.5537C258.365 48.4528 258.797 50.4941 258.818 52.5599C258.839 54.6258 258.448 56.6752 257.669 58.5902C256.889 60.5052 255.736 62.2478 254.275 63.7176C252.815 65.1874 251.076 66.3552 249.16 67.1539C247.244 67.9525 245.187 68.366 243.109 68.3707H207.11C206.942 68.3709 206.777 68.3383 206.622 68.2748C206.468 68.2113 206.327 68.1181 206.209 68.0007C206.091 67.8832 205.997 67.7437 205.933 67.5901C205.869 67.4365 205.836 67.2719 205.836 67.1057V59.6686C205.836 59.5023 205.869 59.3377 205.933 59.1842C205.997 59.0306 206.091 58.8911 206.209 58.7736C206.327 58.6561 206.468 58.563 206.622 58.4995C206.777 58.436 206.942 58.4034 207.11 58.4035H242.859C244.119 58.4202 245.352 58.0429 246.384 57.325C247.416 56.6071 248.195 55.5849 248.611 54.4029C248.884 53.5416 248.95 52.6286 248.803 51.7374C248.656 50.8463 248.3 50.0019 247.765 49.2722C247.23 48.5426 246.53 47.948 245.722 47.5365C244.913 47.125 244.019 46.9081 243.11 46.9031H220.849C218.876 46.9175 216.919 46.5422 215.093 45.7987C213.267 45.0552 211.608 43.9585 210.212 42.5722C208.816 41.1859 207.71 39.5377 206.96 37.7232C206.21 35.9087 205.83 33.9642 205.842 32.0024C206.016 23.4908 213.015 17.75 221.518 17.75H253.442C253.78 17.7503 254.104 17.8839 254.342 18.1213C254.581 18.3587 254.715 18.6805 254.716 19.0163" fill="white"/>
<path d="M220.637 27.5918L220.631 28.0918H220.637V27.5918ZM215.734 32.2143L215.234 32.1939L215.234 32.2049L215.734 32.2143ZM242.794 37.065V37.5651L242.803 37.5649L242.794 37.065ZM243.109 68.3707V68.8707L243.11 68.8707L243.109 68.3707ZM207.11 68.3707V67.8707H207.109L207.11 68.3707ZM205.836 67.1057H206.336V67.1057H205.836ZM205.836 59.6686H206.336V59.6686H205.836ZM207.11 58.4035L207.109 58.9035H207.11V58.4035ZM242.859 58.4035L242.866 57.9035H242.859V58.4035ZM248.611 54.4029L249.083 54.5689L249.085 54.5614L249.088 54.5539L248.611 54.4029ZM243.11 46.9031L243.113 46.4031H243.11V46.9031ZM220.849 46.9031V46.403L220.845 46.4031L220.849 46.9031ZM205.842 32.0024L205.342 31.9922L205.342 31.9994L205.842 32.0024ZM253.442 17.75L253.443 17.25H253.442V17.75ZM254.713 19.0175H254.213V26.3255H254.713H255.213V19.0175H254.713ZM254.713 26.3255H254.213C254.213 26.5278 254.132 26.7224 253.988 26.8663L254.34 27.2209L254.693 27.5755C255.026 27.2445 255.213 26.7949 255.213 26.3255H254.713ZM254.34 27.2209L253.988 26.8663C253.843 27.0104 253.646 27.0918 253.44 27.0918V27.5918V28.0918C253.909 28.0918 254.36 27.9064 254.693 27.5755L254.34 27.2209ZM253.44 27.5918V27.0918H220.637V27.5918V28.0918H253.44V27.5918ZM220.637 27.5918L220.643 27.0918C219.252 27.0745 217.909 27.5972 216.899 28.5496L217.242 28.9134L217.585 29.2773C218.405 28.5033 219.498 28.0777 220.631 28.0918L220.637 27.5918ZM217.242 28.9134L216.899 28.5496C215.888 29.5022 215.291 30.8095 215.234 32.1939L215.734 32.2143L216.234 32.2347C216.279 31.1122 216.764 30.0511 217.585 29.2773L217.242 28.9134ZM215.734 32.2143L215.234 32.2049C215.2 33.9915 215.9 35.3579 217.078 36.2629C218.238 37.1535 219.818 37.565 221.516 37.565V37.065V36.565C219.963 36.565 218.621 36.1866 217.687 35.4697C216.772 34.7671 216.206 33.7081 216.234 32.2238L215.734 32.2143ZM221.516 37.065V37.565H242.794V37.065V36.565H221.516V37.065ZM242.794 37.065L242.803 37.5649C244.815 37.5294 246.814 37.8902 248.685 38.6265L248.868 38.1612L249.051 37.6959C247.058 36.9116 244.928 36.5273 242.785 36.5651L242.794 37.065ZM248.868 38.1612L248.685 38.6265C250.556 39.3627 252.262 40.4598 253.704 41.8544L254.051 41.4949L254.399 41.1355C252.862 39.6492 251.044 38.4803 249.051 37.6959L248.868 38.1612ZM254.051 41.4949L253.704 41.8544C255.146 43.2489 256.296 44.9133 257.088 46.7515L257.547 46.5537L258.006 46.3559C257.162 44.396 255.936 42.6218 254.399 41.1355L254.051 41.4949ZM257.547 46.5537L257.088 46.7515C257.88 48.5898 258.298 50.5655 258.318 52.565L258.818 52.5599L259.318 52.5549C259.297 50.4227 258.851 48.3159 258.006 46.3559L257.547 46.5537ZM258.818 52.5599L258.318 52.565C258.338 54.5644 257.96 56.5481 257.205 58.4017L257.669 58.5902L258.132 58.7788C258.936 56.8024 259.34 54.6871 259.318 52.5549L258.818 52.5599ZM257.669 58.5902L257.205 58.4017C256.451 60.2553 255.334 61.9422 253.921 63.3652L254.275 63.7176L254.63 64.07C256.137 62.5534 257.327 60.7552 258.132 58.7788L257.669 58.5902ZM254.275 63.7176L253.921 63.3652C252.507 64.7882 250.823 65.919 248.968 66.6923L249.16 67.1539L249.352 67.6154C251.329 66.7915 253.123 65.5866 254.63 64.07L254.275 63.7176ZM249.16 67.1539L248.968 66.6923C247.112 67.4657 245.12 67.8662 243.108 67.8707L243.109 68.3707L243.11 68.8707C245.254 68.8659 247.375 68.4393 249.352 67.6154L249.16 67.1539ZM243.109 68.3707V67.8707H207.11V68.3707V68.8707H243.109V68.3707ZM207.11 68.3707L207.109 67.8707C207.007 67.8708 206.906 67.851 206.812 67.8123L206.622 68.2748L206.432 68.7373C206.647 68.8256 206.878 68.871 207.11 68.8707L207.11 68.3707ZM206.622 68.2748L206.812 67.8123C206.718 67.7737 206.633 67.7171 206.561 67.6459L206.209 68.0007L205.857 68.3554C206.022 68.5192 206.217 68.6489 206.432 68.7373L206.622 68.2748ZM206.209 68.0007L206.561 67.6459C206.49 67.5747 206.433 67.4904 206.394 67.3977L205.933 67.5901L205.471 67.7825C205.561 67.9969 205.692 68.1916 205.857 68.3554L206.209 68.0007ZM205.933 67.5901L206.394 67.3977C206.356 67.305 206.336 67.2058 206.336 67.1057H205.836H205.336C205.336 67.3381 205.382 67.568 205.471 67.7825L205.933 67.5901ZM205.836 67.1057H206.336V59.6686H205.836H205.336V67.1057H205.836ZM205.836 59.6686H206.336C206.336 59.5685 206.356 59.4692 206.394 59.3766L205.933 59.1842L205.471 58.9918C205.382 59.2062 205.336 59.4362 205.336 59.6686H205.836ZM205.933 59.1842L206.394 59.3766C206.433 59.2839 206.49 59.1995 206.561 59.1284L206.209 58.7736L205.857 58.4189C205.692 58.5827 205.561 58.7773 205.471 58.9918L205.933 59.1842ZM206.209 58.7736L206.561 59.1284C206.633 59.0572 206.718 59.0006 206.812 58.962L206.622 58.4995L206.432 58.037C206.217 58.1254 206.022 58.2551 205.857 58.4189L206.209 58.7736ZM206.622 58.4995L206.812 58.962C206.906 58.9233 207.007 58.9035 207.109 58.9035L207.11 58.4035L207.11 57.9035C206.878 57.9033 206.647 57.9486 206.432 58.037L206.622 58.4995ZM207.11 58.4035V58.9035H242.859V58.4035V57.9035H207.11V58.4035ZM242.859 58.4035L242.853 58.9035C244.216 58.9215 245.551 58.5131 246.669 57.7355L246.384 57.325L246.098 56.9145C245.152 57.5727 244.021 57.9189 242.866 57.9036L242.859 58.4035ZM246.384 57.325L246.669 57.7355C247.787 56.9579 248.632 55.8503 249.083 54.5689L248.611 54.4029L248.139 54.2369C247.758 55.3196 247.045 56.2564 246.098 56.9145L246.384 57.325ZM248.611 54.4029L249.088 54.5539C249.384 53.6176 249.456 52.625 249.296 51.6561L248.803 51.7374L248.309 51.8187C248.443 52.6322 248.383 53.4656 248.134 54.2519L248.611 54.4029ZM248.803 51.7374L249.296 51.6561C249.136 50.6872 248.75 49.7694 248.168 48.9765L247.765 49.2722L247.362 49.5679C247.851 50.2343 248.175 51.0053 248.309 51.8187L248.803 51.7374ZM247.765 49.2722L248.168 48.9765C247.587 48.1836 246.826 47.5378 245.948 47.0909L245.722 47.5365L245.495 47.9822C246.234 48.3583 246.873 48.9015 247.362 49.5679L247.765 49.2722ZM245.722 47.5365L245.948 47.0909C245.07 46.6441 244.099 46.4085 243.113 46.4031L243.11 46.9031L243.108 47.403C243.938 47.4076 244.756 47.606 245.495 47.9822L245.722 47.5365ZM243.11 46.9031V46.4031H220.849V46.9031V47.4031H243.11V46.9031ZM220.849 46.9031L220.845 46.4031C218.938 46.4171 217.047 46.0542 215.282 45.3356L215.093 45.7987L214.905 46.2618C216.792 47.0301 218.814 47.418 220.853 47.403L220.849 46.9031ZM215.093 45.7987L215.282 45.3356C213.517 44.617 211.913 43.557 210.564 42.2174L210.212 42.5722L209.86 42.927C211.303 44.36 213.018 45.4934 214.905 46.2618L215.093 45.7987ZM210.212 42.5722L210.564 42.2174C209.215 40.8778 208.147 39.2852 207.422 37.5322L206.96 37.7232L206.498 37.9142C207.274 39.7902 208.416 41.4941 209.86 42.927L210.212 42.5722ZM206.96 37.7232L207.422 37.5322C206.698 35.7792 206.331 33.9006 206.342 32.0055L205.842 32.0024L205.342 31.9994C205.33 34.0277 205.723 36.0383 206.498 37.9142L206.96 37.7232ZM205.842 32.0024L206.342 32.0127C206.51 23.8209 213.237 18.25 221.518 18.25V17.75V17.25C212.793 17.25 205.523 23.1608 205.342 31.9922L205.842 32.0024ZM221.518 17.75V18.25H253.442V17.75V17.25H221.518V17.75ZM253.442 17.75L253.442 18.25C253.648 18.2502 253.845 18.3318 253.99 18.4758L254.342 18.1213L254.695 17.7667C254.362 17.4359 253.912 17.2505 253.443 17.25L253.442 17.75ZM254.342 18.1213L253.99 18.4758C254.135 18.6198 254.216 18.8144 254.216 19.0168L254.716 19.0163L255.216 19.0158C255.215 18.5467 255.028 18.0975 254.695 17.7667L254.342 18.1213Z" fill="white" mask="url(#path-5-outside-2_1_623)"/>
<path d="M284.694 16.1221C290.619 14.9877 296.755 15.8214 302.157 18.4941C307.559 21.1669 311.928 25.5313 314.591 30.915H314.592C314.707 31.146 314.76 31.4027 314.748 31.6602C314.736 31.9176 314.658 32.1675 314.522 32.3867C314.387 32.6059 314.198 32.7877 313.973 32.9141C313.747 33.0404 313.493 33.1073 313.234 33.1094H304.162C303.932 33.1073 303.705 33.0541 303.498 32.9531C303.292 32.8527 303.112 32.7072 302.97 32.5283C300.783 29.8634 297.82 27.9366 294.488 27.0117C291.156 26.0868 287.618 26.2095 284.358 27.3633C281.099 28.5171 278.279 30.645 276.285 33.4551C274.291 36.2653 273.221 39.6208 273.221 43.0596C273.221 46.4982 274.291 49.8529 276.285 52.6631C278.279 55.4732 281.099 57.6011 284.358 58.7549C287.618 59.9087 291.156 60.0323 294.488 59.1074C297.821 58.1824 300.783 56.254 302.97 53.5889C303.111 53.4101 303.292 53.2654 303.497 53.165C303.704 53.0639 303.931 53.0105 304.161 53.0088H313.233C313.492 53.0107 313.746 53.0777 313.972 53.2041C314.197 53.3305 314.387 53.5129 314.522 53.7324C314.658 53.9519 314.736 54.2024 314.748 54.46C314.757 54.6532 314.728 54.8458 314.665 55.0273L314.59 55.2051C311.734 60.8836 306.983 65.4002 301.15 67.9824C295.317 70.5646 288.763 71.0523 282.608 69.3633C276.454 67.6742 271.079 63.9124 267.404 58.7207C263.729 53.5289 261.981 47.2294 262.46 40.8984C262.921 34.9161 265.348 29.2501 269.365 24.7734C273.383 20.2968 278.769 17.2565 284.694 16.1221Z" fill="white" stroke="white" stroke-width="0.5"/>
<mask id="path-8-outside-3_1_623" maskUnits="userSpaceOnUse" x="377.859" y="16.7539" width="55" height="54" fill="black">
<rect fill="white" x="377.859" y="16.7539" width="55" height="54"/>
<path d="M429.83 17.7539H423.903C423.377 17.7542 422.873 17.9621 422.501 18.3319C422.129 18.7017 421.92 19.2031 421.92 19.726V43.3677C421.894 45.5327 421.439 47.6715 420.582 49.6619C419.725 51.6523 418.482 53.4554 416.923 54.9682C415.365 56.4809 413.523 57.6738 411.501 58.4786C409.479 59.2834 407.318 59.6844 405.14 59.6587C402.962 59.633 400.811 59.1811 398.809 58.3289C396.807 57.4766 394.993 56.2407 393.472 54.6916C391.95 53.1425 390.75 51.3106 389.941 49.3005C389.131 47.2905 388.728 45.1416 388.754 42.9765V19.726C388.753 19.2031 388.544 18.7017 388.172 18.3319C387.8 17.9621 387.296 17.7542 386.77 17.7539H380.843C380.317 17.7539 379.812 17.9617 379.44 18.3315C379.068 18.7014 378.859 19.203 378.859 19.726V43.3677C378.849 50.2462 381.551 56.8548 386.386 61.7748C391.221 66.6948 397.804 69.5342 404.721 69.6835C408.278 69.7234 411.808 69.0585 415.104 67.7277C418.4 66.3969 421.396 64.4269 423.918 61.9325C426.44 59.4381 428.437 56.4694 429.792 53.1995C431.147 49.9296 431.834 46.4241 431.812 42.8875V19.726C431.812 19.203 431.604 18.7014 431.232 18.3315C430.86 17.9617 430.355 17.7539 429.829 17.7539"/>
</mask>
<path d="M429.83 17.7539H423.903C423.377 17.7542 422.873 17.9621 422.501 18.3319C422.129 18.7017 421.92 19.2031 421.92 19.726V43.3677C421.894 45.5327 421.439 47.6715 420.582 49.6619C419.725 51.6523 418.482 53.4554 416.923 54.9682C415.365 56.4809 413.523 57.6738 411.501 58.4786C409.479 59.2834 407.318 59.6844 405.14 59.6587C402.962 59.633 400.811 59.1811 398.809 58.3289C396.807 57.4766 394.993 56.2407 393.472 54.6916C391.95 53.1425 390.75 51.3106 389.941 49.3005C389.131 47.2905 388.728 45.1416 388.754 42.9765V19.726C388.753 19.2031 388.544 18.7017 388.172 18.3319C387.8 17.9621 387.296 17.7542 386.77 17.7539H380.843C380.317 17.7539 379.812 17.9617 379.44 18.3315C379.068 18.7014 378.859 19.203 378.859 19.726V43.3677C378.849 50.2462 381.551 56.8548 386.386 61.7748C391.221 66.6948 397.804 69.5342 404.721 69.6835C408.278 69.7234 411.808 69.0585 415.104 67.7277C418.4 66.3969 421.396 64.4269 423.918 61.9325C426.44 59.4381 428.437 56.4694 429.792 53.1995C431.147 49.9296 431.834 46.4241 431.812 42.8875V19.726C431.812 19.203 431.604 18.7014 431.232 18.3315C430.86 17.9617 430.355 17.7539 429.829 17.7539" fill="white"/>
<path d="M423.903 17.7539V17.2539L423.903 17.2539L423.903 17.7539ZM421.92 19.726L421.42 19.7257V19.726H421.92ZM421.92 43.3677L422.42 43.3736V43.3677H421.92ZM388.754 42.9765L389.254 42.9825V42.9765H388.754ZM388.754 19.726H389.254V19.7257L388.754 19.726ZM386.77 17.7539L386.77 17.2539H386.77V17.7539ZM378.859 43.3677L379.359 43.3684V43.3677H378.859ZM404.721 69.6835L404.71 70.1834L404.716 70.1835L404.721 69.6835ZM431.812 42.8875H431.312L431.312 42.8906L431.812 42.8875ZM429.83 17.7539V17.2539H423.903V17.7539V18.2539H429.83V17.7539ZM423.903 17.7539L423.903 17.2539C423.245 17.2543 422.614 17.5142 422.148 17.9773L422.501 18.3319L422.853 18.6865C423.131 18.4101 423.509 18.2542 423.903 18.2539L423.903 17.7539ZM422.501 18.3319L422.148 17.9773C421.682 18.4406 421.42 19.0693 421.42 19.7257L421.92 19.726L422.42 19.7263C422.42 19.3368 422.575 18.9628 422.853 18.6865L422.501 18.3319ZM421.92 19.726H421.42V43.3677H421.92H422.42V19.726H421.92ZM421.92 43.3677L421.42 43.3617C421.395 45.4607 420.954 47.5343 420.123 49.4642L420.582 49.6619L421.041 49.8597C421.924 47.8087 422.393 45.6047 422.419 43.3736L421.92 43.3677ZM420.582 49.6619L420.123 49.4642C419.292 51.394 418.086 53.1424 416.575 54.6094L416.923 54.9682L417.272 55.3269C418.877 53.7684 420.158 51.9107 421.041 49.8597L420.582 49.6619ZM416.923 54.9682L416.575 54.6094C415.064 56.0765 413.277 57.2334 411.316 58.014L411.501 58.4786L411.686 58.9431C413.768 58.1141 415.666 56.8854 417.272 55.3269L416.923 54.9682ZM411.501 58.4786L411.316 58.014C409.355 58.7946 407.258 59.1836 405.146 59.1587L405.14 59.6587L405.134 60.1586C407.377 60.1851 409.603 59.7721 411.686 58.9431L411.501 58.4786ZM405.14 59.6587L405.146 59.1587C403.033 59.1338 400.947 58.6955 399.005 57.8688L398.809 58.3289L398.613 58.7889C400.675 59.6668 402.891 60.1322 405.134 60.1586L405.14 59.6587ZM398.809 58.3289L399.005 57.8688C397.063 57.0422 395.304 55.8434 393.828 54.3412L393.472 54.6916L393.115 55.0419C394.683 56.6379 396.551 57.9111 398.613 58.7889L398.809 58.3289ZM393.472 54.6916L393.828 54.3412C392.353 52.839 391.189 51.0627 390.404 49.1138L389.941 49.3005L389.477 49.4873C390.311 51.5586 391.547 53.446 393.115 55.0419L393.472 54.6916ZM389.941 49.3005L390.404 49.1138C389.62 47.1649 389.229 45.0815 389.254 42.9825L388.754 42.9765L388.254 42.9705C388.227 45.2017 388.643 47.4161 389.477 49.4873L389.941 49.3005ZM388.754 42.9765H389.254V19.726H388.754H388.254V42.9765H388.754ZM388.754 19.726L389.254 19.7257C389.253 19.0693 388.991 18.4406 388.525 17.9773L388.172 18.3319L387.82 18.6865C388.098 18.9628 388.253 19.3368 388.254 19.7263L388.754 19.726ZM388.172 18.3319L388.525 17.9773C388.059 17.5142 387.428 17.2543 386.77 17.2539L386.77 17.7539L386.77 18.2539C387.164 18.2542 387.542 18.4101 387.82 18.6865L388.172 18.3319ZM386.77 17.7539V17.2539H380.843V17.7539V18.2539H386.77V17.7539ZM380.843 17.7539V17.2539C380.185 17.2539 379.554 17.5137 379.088 17.9769L379.44 18.3315L379.793 18.6861C380.071 18.4097 380.449 18.2539 380.843 18.2539V17.7539ZM379.44 18.3315L379.088 17.9769C378.622 18.4403 378.359 19.0694 378.359 19.726H378.859H379.359C379.359 19.3365 379.515 18.9624 379.793 18.6861L379.44 18.3315ZM378.859 19.726H378.359V43.3677H378.859H379.359V19.726H378.859ZM378.859 43.3677L378.359 43.3669C378.349 50.3773 381.103 57.1118 386.03 62.1253L386.386 61.7748L386.743 61.4243C382 56.5977 379.349 50.1152 379.359 43.3684L378.859 43.3677ZM386.386 61.7748L386.03 62.1253C390.957 67.1386 397.663 70.0313 404.71 70.1834L404.721 69.6835L404.732 69.1836C397.945 69.0372 391.486 66.2511 386.743 61.4243L386.386 61.7748ZM404.721 69.6835L404.716 70.1835C408.339 70.2241 411.934 69.5469 415.291 68.1914L415.104 67.7277L414.916 67.2641C411.682 68.5701 408.218 69.2227 404.727 69.1836L404.721 69.6835ZM415.104 67.7277L415.291 68.1914C418.648 66.8358 421.7 64.829 424.269 62.288L423.918 61.9325L423.566 61.577C421.091 64.0247 418.151 65.958 414.916 67.2641L415.104 67.7277ZM423.918 61.9325L424.269 62.288C426.838 59.7469 428.873 56.7224 430.254 53.391L429.792 53.1995L429.33 53.008C428 56.2163 426.041 59.1293 423.566 61.577L423.918 61.9325ZM429.792 53.1995L430.254 53.391C431.635 50.0595 432.335 46.4878 432.312 42.8844L431.812 42.8875L431.312 42.8906C431.334 46.3604 430.66 49.7998 429.33 53.008L429.792 53.1995ZM431.812 42.8875H432.312V19.726H431.812H431.312V42.8875H431.812ZM431.812 19.726H432.312C432.312 19.0695 432.05 18.4403 431.584 17.9769L431.232 18.3315L430.879 18.6861C431.157 18.9624 431.312 19.3365 431.312 19.726H431.812ZM431.232 18.3315L431.584 17.9769C431.118 17.5137 430.487 17.2539 429.829 17.2539V17.7539V18.2539C430.223 18.2539 430.601 18.4097 430.879 18.6861L431.232 18.3315Z" fill="white" mask="url(#path-8-outside-3_1_623)"/>
<mask id="path-10-outside-4_1_623" maskUnits="userSpaceOnUse" x="436.117" y="-0.5" width="38" height="71" fill="black">
<rect fill="white" x="436.117" y="-0.5" width="38" height="71"/>
<path d="M473.496 25.1634V19.5768C473.496 19.3307 473.448 19.0869 473.353 18.8595C473.258 18.6321 473.119 18.4255 472.944 18.2515C472.769 18.0775 472.561 17.9396 472.333 17.8456C472.104 17.7516 471.859 17.7034 471.611 17.7037H456.915V2.37182C456.915 2.12591 456.866 1.8824 456.771 1.65522C456.676 1.42804 456.538 1.22163 456.363 1.0478C456.188 0.87397 455.98 0.736119 455.751 0.642124C455.523 0.54813 455.278 0.499836 455.031 0.5H448.898C448.399 0.5 447.92 0.69721 447.567 1.04824C447.214 1.39928 447.015 1.87539 447.015 2.37182V17.7037H439.003C438.755 17.7034 438.51 17.7516 438.281 17.8456C438.052 17.9396 437.844 18.0775 437.669 18.2515C437.494 18.4255 437.355 18.6321 437.26 18.8595C437.166 19.0869 437.117 19.3307 437.117 19.5768V25.1634C437.117 25.4096 437.166 25.6534 437.26 25.8809C437.355 26.1084 437.494 26.3151 437.669 26.4892C437.844 26.6632 438.052 26.8013 438.281 26.8954C438.51 26.9896 438.755 27.0379 439.003 27.0378H447.015V47.7244H447.052V51.8328C447.057 56.3723 448.863 60.7266 452.077 63.9507C455.292 67.1748 459.655 69.0086 464.221 69.0541H471.001C471.248 69.0543 471.493 69.006 471.721 68.912C471.95 68.818 472.158 68.6801 472.333 68.5063C472.508 68.3325 472.646 68.1261 472.741 67.8989C472.836 67.6717 472.885 67.4282 472.885 67.1823V61.0804C472.884 60.5838 472.686 60.1077 472.332 59.7567C471.979 59.4057 471.5 59.2085 471.001 59.2085H464.221C462.281 59.1666 460.434 58.3714 459.075 56.9931C457.717 55.6147 456.955 53.7626 456.952 51.8328V32.9428H456.911V27.0378H471.607C472.109 27.0378 472.59 26.8396 472.945 26.4869C473.299 26.1343 473.499 25.6559 473.499 25.1572"/>
</mask>
<path d="M473.496 25.1634V19.5768C473.496 19.3307 473.448 19.0869 473.353 18.8595C473.258 18.6321 473.119 18.4255 472.944 18.2515C472.769 18.0775 472.561 17.9396 472.333 17.8456C472.104 17.7516 471.859 17.7034 471.611 17.7037H456.915V2.37182C456.915 2.12591 456.866 1.8824 456.771 1.65522C456.676 1.42804 456.538 1.22163 456.363 1.0478C456.188 0.87397 455.98 0.736119 455.751 0.642124C455.523 0.54813 455.278 0.499836 455.031 0.5H448.898C448.399 0.5 447.92 0.69721 447.567 1.04824C447.214 1.39928 447.015 1.87539 447.015 2.37182V17.7037H439.003C438.755 17.7034 438.51 17.7516 438.281 17.8456C438.052 17.9396 437.844 18.0775 437.669 18.2515C437.494 18.4255 437.355 18.6321 437.26 18.8595C437.166 19.0869 437.117 19.3307 437.117 19.5768V25.1634C437.117 25.4096 437.166 25.6534 437.26 25.8809C437.355 26.1084 437.494 26.3151 437.669 26.4892C437.844 26.6632 438.052 26.8013 438.281 26.8954C438.51 26.9896 438.755 27.0379 439.003 27.0378H447.015V47.7244H447.052V51.8328C447.057 56.3723 448.863 60.7266 452.077 63.9507C455.292 67.1748 459.655 69.0086 464.221 69.0541H471.001C471.248 69.0543 471.493 69.006 471.721 68.912C471.95 68.818 472.158 68.6801 472.333 68.5063C472.508 68.3325 472.646 68.1261 472.741 67.8989C472.836 67.6717 472.885 67.4282 472.885 67.1823V61.0804C472.884 60.5838 472.686 60.1077 472.332 59.7567C471.979 59.4057 471.5 59.2085 471.001 59.2085H464.221C462.281 59.1666 460.434 58.3714 459.075 56.9931C457.717 55.6147 456.955 53.7626 456.952 51.8328V32.9428H456.911V27.0378H471.607C472.109 27.0378 472.59 26.8396 472.945 26.4869C473.299 26.1343 473.499 25.6559 473.499 25.1572" fill="white"/>
<path d="M473.496 19.5768L472.996 19.5765V19.5768H473.496ZM471.611 17.7037V18.2037L471.612 18.2037L471.611 17.7037ZM456.915 17.7037H456.415V18.2037H456.915V17.7037ZM456.915 2.37182L456.415 2.37182V2.37182H456.915ZM455.031 0.5V1L455.031 1L455.031 0.5ZM448.898 0.5V4.17233e-07V0.5ZM447.015 17.7037V18.2037H447.515V17.7037H447.015ZM439.003 17.7037L439.002 18.2037H439.003V17.7037ZM437.117 19.5768H437.617L437.617 19.5765L437.117 19.5768ZM437.117 25.1634L437.617 25.1638V25.1634H437.117ZM439.003 27.0378V26.5378L439.002 26.5378L439.003 27.0378ZM447.015 27.0378H447.515V26.5378H447.015V27.0378ZM447.015 47.7244H446.515V48.2244H447.015V47.7244ZM447.052 47.7244H447.552V47.2244H447.052V47.7244ZM447.052 51.8328H446.552L446.552 51.8334L447.052 51.8328ZM464.221 69.0541L464.216 69.5541H464.221V69.0541ZM471.001 69.0541L471.001 68.5541H471.001V69.0541ZM472.885 67.1823H472.385V67.1823H472.885ZM472.885 61.0804H473.385V61.08L472.885 61.0804ZM471.001 59.2085V59.7085V59.7085V59.2085ZM464.221 59.2085L464.21 59.7085H464.221V59.2085ZM456.952 51.8328H456.452V51.8335L456.952 51.8328ZM456.952 32.9428H457.452V32.4428H456.952V32.9428ZM456.911 32.9428H456.411V33.4428H456.911V32.9428ZM456.911 27.0378V26.5378H456.411V27.0378H456.911ZM471.607 27.0378V27.5378V27.0378ZM473.496 25.1634H473.996V19.5768H473.496H472.996V25.1634H473.496ZM473.496 19.5768L473.996 19.5771C473.996 19.2649 473.935 18.9557 473.815 18.6673L473.353 18.8595L472.891 19.0517C472.961 19.2181 472.996 19.3964 472.996 19.5765L473.496 19.5768ZM473.353 18.8595L473.815 18.6673C473.695 18.3789 473.519 18.1171 473.297 17.8968L472.944 18.2515L472.592 18.6062C472.72 18.7339 472.822 18.8853 472.891 19.0517L473.353 18.8595ZM472.944 18.2515L473.297 17.8968C473.075 17.6765 472.812 17.502 472.523 17.3831L472.333 17.8456L472.143 18.3081C472.311 18.3772 472.463 18.4786 472.592 18.6062L472.944 18.2515ZM472.333 17.8456L472.523 17.3831C472.233 17.2642 471.923 17.2033 471.61 17.2037L471.611 17.7037L471.612 18.2037C471.794 18.2035 471.974 18.239 472.143 18.3081L472.333 17.8456ZM471.611 17.7037V17.2037H456.915V17.7037V18.2037H471.611V17.7037ZM456.915 17.7037H457.415V2.37182H456.915H456.415V17.7037H456.915ZM456.915 2.37182L457.415 2.37182C457.415 2.05977 457.353 1.75089 457.233 1.46285L456.771 1.65522L456.31 1.84759C456.379 2.01391 456.415 2.19205 456.415 2.37182L456.915 2.37182ZM456.771 1.65522L457.233 1.46285C457.113 1.17483 456.937 0.913281 456.715 0.693102L456.363 1.0478L456.01 1.4025C456.139 1.52998 456.24 1.68124 456.31 1.84759L456.771 1.65522ZM456.363 1.0478L456.715 0.693102C456.494 0.472951 456.231 0.298553 455.942 0.179697L455.751 0.642124L455.561 1.10455C455.729 1.17368 455.882 1.27499 456.01 1.4025L456.363 1.0478ZM455.751 0.642124L455.942 0.179697C455.653 0.0608299 455.343 -0.000207663 455.03 5.36442e-07L455.031 0.5L455.031 1C455.213 0.999879 455.393 1.03543 455.561 1.10455L455.751 0.642124ZM455.031 0.5V4.17233e-07H448.898V0.5V1H455.031V0.5ZM448.898 0.5V4.17233e-07C448.267 4.17233e-07 447.661 0.249181 447.214 0.693663L447.567 1.04824L447.919 1.40283C448.178 1.14524 448.53 1 448.898 1V0.5ZM447.567 1.04824L447.214 0.693663C446.767 1.13822 446.515 1.74181 446.515 2.37182H447.015H447.515C447.515 2.00896 447.66 1.66034 447.919 1.40283L447.567 1.04824ZM447.015 2.37182H446.515V17.7037H447.015H447.515V2.37182H447.015ZM447.015 17.7037V17.2037H439.003V17.7037V18.2037H447.015V17.7037ZM439.003 17.7037L439.003 17.2037C438.69 17.2033 438.38 17.2642 438.091 17.3831L438.281 17.8456L438.471 18.3081C438.639 18.239 438.82 18.2035 439.002 18.2037L439.003 17.7037ZM438.281 17.8456L438.091 17.3831C437.802 17.502 437.538 17.6765 437.317 17.8968L437.669 18.2515L438.022 18.6062C438.15 18.4786 438.303 18.3772 438.471 18.3081L438.281 17.8456ZM437.669 18.2515L437.317 17.8968C437.095 18.1171 436.919 18.3789 436.799 18.6673L437.26 18.8595L437.722 19.0517C437.791 18.8853 437.893 18.7339 438.022 18.6062L437.669 18.2515ZM437.26 18.8595L436.799 18.6673C436.679 18.9556 436.617 19.2648 436.617 19.5771L437.117 19.5768L437.617 19.5765C437.617 19.3965 437.653 19.2182 437.722 19.0517L437.26 18.8595ZM437.117 19.5768H436.617V25.1634H437.117H437.617V19.5768H437.117ZM437.117 25.1634L436.617 25.1631C436.617 25.4755 436.679 25.7847 436.799 26.073L437.26 25.8809L437.722 25.6888C437.653 25.5221 437.617 25.3437 437.617 25.1638L437.117 25.1634ZM437.26 25.8809L436.799 26.073C436.919 26.3614 437.095 26.6233 437.317 26.8437L437.669 26.4892L438.022 26.1346C437.893 26.0068 437.791 25.8553 437.722 25.6888L437.26 25.8809ZM437.669 26.4892L437.317 26.8437C437.538 27.0642 437.801 27.2388 438.091 27.3578L438.281 26.8954L438.471 26.433C438.303 26.3638 438.15 26.2623 438.022 26.1346L437.669 26.4892ZM438.281 26.8954L438.091 27.3578C438.38 27.4768 438.69 27.538 439.003 27.5378L439.003 27.0378L439.002 26.5378C438.82 26.5379 438.639 26.5023 438.471 26.433L438.281 26.8954ZM439.003 27.0378V27.5378H447.015V27.0378V26.5378H439.003V27.0378ZM447.015 27.0378H446.515V47.7244H447.015H447.515V27.0378H447.015ZM447.015 47.7244V48.2244H447.052V47.7244V47.2244H447.015V47.7244ZM447.052 47.7244H446.552V51.8328H447.052H447.552V47.7244H447.052ZM447.052 51.8328L446.552 51.8334C446.557 56.5055 448.416 60.9863 451.723 64.3037L452.077 63.9507L452.432 63.5977C449.31 60.4669 447.557 56.2392 447.552 51.8322L447.052 51.8328ZM452.077 63.9507L451.723 64.3037C455.031 67.621 459.52 69.5072 464.216 69.5541L464.221 69.0541L464.226 68.5541C459.791 68.5099 455.553 66.7286 452.432 63.5977L452.077 63.9507ZM464.221 69.0541V69.5541H471.001V69.0541V68.5541H464.221V69.0541ZM471.001 69.0541L471 69.5541C471.313 69.5543 471.623 69.4933 471.912 69.3744L471.721 68.912L471.531 68.4496C471.363 68.5187 471.183 68.5542 471.001 68.5541L471.001 69.0541ZM471.721 68.912L471.912 69.3744C472.201 69.2556 472.464 69.0812 472.685 68.861L472.333 68.5063L471.98 68.1516C471.852 68.2791 471.699 68.3804 471.531 68.4496L471.721 68.912ZM472.333 68.5063L472.685 68.861C472.907 68.6408 473.083 68.3793 473.203 68.0913L472.741 67.8989L472.28 67.7065C472.21 67.8729 472.109 68.0241 471.98 68.1516L472.333 68.5063ZM472.741 67.8989L473.203 68.0913C473.323 67.8032 473.385 67.4943 473.385 67.1823H472.885H472.385C472.385 67.3621 472.349 67.5402 472.28 67.7065L472.741 67.8989ZM472.885 67.1823H473.385V61.0804H472.885H472.385V67.1823H472.885ZM472.885 61.0804L473.385 61.08C473.384 60.45 473.132 59.8465 472.685 59.402L472.332 59.7567L471.98 60.1114C472.239 60.3689 472.384 60.7176 472.385 61.0807L472.885 61.0804ZM472.332 59.7567L472.685 59.402C472.238 58.9576 471.632 58.7085 471.001 58.7085V59.2085V59.7085C471.368 59.7085 471.721 59.8538 471.98 60.1114L472.332 59.7567ZM471.001 59.2085V58.7085H464.221V59.2085V59.7085H471.001V59.2085ZM464.221 59.2085L464.232 58.7087C462.421 58.6695 460.698 57.9275 459.431 56.6421L459.075 56.9931L458.719 57.344C460.169 58.8154 462.14 59.6637 464.21 59.7084L464.221 59.2085ZM459.075 56.9931L459.431 56.6421C458.165 55.3568 457.455 53.6304 457.452 51.8322L456.952 51.8328L456.452 51.8335C456.455 53.8947 457.269 55.8726 458.719 57.344L459.075 56.9931ZM456.952 51.8328H457.452V32.9428H456.952H456.452V51.8328H456.952ZM456.952 32.9428V32.4428H456.911V32.9428V33.4428H456.952V32.9428ZM456.911 32.9428H457.411V27.0378H456.911H456.411V32.9428H456.911ZM456.911 27.0378V27.5378H471.607V27.0378V26.5378H456.911V27.0378ZM471.607 27.0378V27.5378C472.241 27.5378 472.849 27.2877 473.297 26.8415L472.945 26.4869L472.592 26.1324C472.331 26.3916 471.977 26.5378 471.607 26.5378V27.0378ZM472.945 26.4869L473.297 26.8415C473.746 26.3953 473.999 25.7895 473.999 25.1572H473.499H472.999C472.999 25.5224 472.853 25.8732 472.592 26.1324L472.945 26.4869Z" fill="white" mask="url(#path-10-outside-4_1_623)"/>
<path d="M346.212 17.1797C360.687 17.1797 372.369 28.8618 372.369 43.3369C372.369 57.6854 360.688 69.4941 346.212 69.4941C331.736 69.4941 320.055 57.6854 320.055 43.3369C320.055 28.8618 331.737 17.1797 346.212 17.1797ZM346.212 27.3633C337.421 27.3633 330.238 34.5458 330.238 43.3369C330.238 52.1255 337.418 59.1846 346.212 59.1846C355.006 59.1846 362.186 52.1255 362.186 43.3369C362.186 34.5458 355.003 27.3633 346.212 27.3633Z" fill="white" stroke="white" stroke-width="0.5"/>
</svg>
