<svg width="344" height="52" viewBox="0 0 344 52" fill="none" xmlns="http://www.w3.org/2000/svg">
<path d="M19.4258 11.2949C22.0042 11.2543 24.5652 11.7249 26.959 12.6787C29.3527 13.6324 31.5314 15.0508 33.3682 16.8506C35.2049 18.6504 36.6632 20.796 37.6572 23.1621C38.6512 25.5281 39.1616 28.0677 39.1582 30.6318V48.8027L39.1523 48.918C39.1254 49.1857 39.0063 49.4374 38.8135 49.6289C38.5933 49.8475 38.2949 49.9697 37.9844 49.9697H32.6533C32.4994 49.9699 32.3464 49.9403 32.2041 49.8818C32.062 49.8234 31.9332 49.7371 31.8242 49.6289C31.7152 49.5206 31.6285 49.3918 31.5693 49.25C31.5102 49.1083 31.4795 48.9563 31.4795 48.8027V30.8711C31.484 29.3067 31.1784 27.7566 30.5801 26.3096C29.9815 24.8623 29.1018 23.5457 27.9912 22.4365C26.8806 21.3274 25.5608 20.4466 24.1074 19.8447C22.6548 19.2432 21.097 18.9326 19.5234 18.9297C16.4342 18.9836 13.4893 20.2389 11.3213 22.4268C9.15285 24.6151 7.93426 27.5616 7.92676 30.6328V48.8027C7.92685 48.9562 7.89682 49.1083 7.83789 49.25C7.77891 49.3918 7.69195 49.5205 7.58301 49.6289C7.47413 49.7372 7.34519 49.8233 7.20312 49.8818C7.06088 49.9405 6.9078 49.9707 6.75391 49.9707H1.42285C1.11236 49.9707 0.814718 49.8476 0.594727 49.6289C0.374729 49.4102 0.250072 49.1137 0.25 48.8037V30.9395C0.220472 25.8203 2.21338 20.8942 5.79883 17.2207C9.38455 13.5471 14.2771 11.4201 19.4238 11.2959L19.4258 11.2949Z" fill="white" stroke="white" stroke-width="0.5"/>
<mask id="path-2-outside-1_1_121" maskUnits="userSpaceOnUse" x="41.957" y="12.0117" width="40" height="40" fill="black">
<rect fill="white" x="41.957" y="12.0117" width="40" height="40"/>
<path d="M75.1115 13.0126H80.442C80.5632 13.0126 80.6833 13.0364 80.7953 13.0825C80.9073 13.1287 81.009 13.1964 81.0947 13.2816C81.1804 13.3669 81.2484 13.4681 81.2947 13.5795C81.341 13.6909 81.3648 13.8103 81.3647 13.9309V31.3867C81.394 36.4403 79.4271 41.3035 75.8872 44.9303C72.3472 48.5572 67.5169 50.6579 62.4352 50.7808C59.8898 50.8207 57.3618 50.3563 54.9988 49.4148C52.6357 48.4732 50.4849 47.0732 48.6718 45.2966C46.8587 43.5199 45.4196 41.4021 44.4385 39.0666C43.4573 36.7312 42.9537 34.2249 42.957 31.694V13.93C42.957 13.8094 42.9809 13.69 43.0274 13.5786C43.0738 13.4672 43.1418 13.3659 43.2276 13.2807C43.3133 13.1954 43.4152 13.1278 43.5272 13.0816C43.6393 13.0355 43.7594 13.0117 43.8807 13.0117H49.2111C49.3324 13.0117 49.4525 13.0355 49.5645 13.0816C49.6766 13.1278 49.7784 13.1954 49.8642 13.2807C49.9499 13.3659 50.018 13.4672 50.0644 13.5786C50.1108 13.69 50.1347 13.8094 50.1347 13.93V31.4576C50.1299 33.0546 50.4417 34.637 51.0522 36.1143C51.6628 37.5915 52.5601 38.9346 53.693 40.0669C54.8259 41.1992 56.1721 42.0985 57.6547 42.7133C59.1373 43.3282 60.7273 43.6466 62.3337 43.6503C65.4891 43.5967 68.4975 42.3149 70.7126 40.0801C72.9278 37.8454 74.1729 34.836 74.1806 31.6985V13.93C74.1809 13.6867 74.2781 13.4536 74.4511 13.2816C74.6241 13.1096 74.8587 13.0129 75.1033 13.0126"/>
</mask>
<path d="M75.1115 13.0126H80.442C80.5632 13.0126 80.6833 13.0364 80.7953 13.0825C80.9073 13.1287 81.009 13.1964 81.0947 13.2816C81.1804 13.3669 81.2484 13.4681 81.2947 13.5795C81.341 13.6909 81.3648 13.8103 81.3647 13.9309V31.3867C81.394 36.4403 79.4271 41.3035 75.8872 44.9303C72.3472 48.5572 67.5169 50.6579 62.4352 50.7808C59.8898 50.8207 57.3618 50.3563 54.9988 49.4148C52.6357 48.4732 50.4849 47.0732 48.6718 45.2966C46.8587 43.5199 45.4196 41.4021 44.4385 39.0666C43.4573 36.7312 42.9537 34.2249 42.957 31.694V13.93C42.957 13.8094 42.9809 13.69 43.0274 13.5786C43.0738 13.4672 43.1418 13.3659 43.2276 13.2807C43.3133 13.1954 43.4152 13.1278 43.5272 13.0816C43.6393 13.0355 43.7594 13.0117 43.8807 13.0117H49.2111C49.3324 13.0117 49.4525 13.0355 49.5645 13.0816C49.6766 13.1278 49.7784 13.1954 49.8642 13.2807C49.9499 13.3659 50.018 13.4672 50.0644 13.5786C50.1108 13.69 50.1347 13.8094 50.1347 13.93V31.4576C50.1299 33.0546 50.4417 34.637 51.0522 36.1143C51.6628 37.5915 52.5601 38.9346 53.693 40.0669C54.8259 41.1992 56.1721 42.0985 57.6547 42.7133C59.1373 43.3282 60.7273 43.6466 62.3337 43.6503C65.4891 43.5967 68.4975 42.3149 70.7126 40.0801C72.9278 37.8454 74.1729 34.836 74.1806 31.6985V13.93C74.1809 13.6867 74.2781 13.4536 74.4511 13.2816C74.6241 13.1096 74.8587 13.0129 75.1033 13.0126" fill="white"/>
<path d="M80.442 13.0126V13.5126V13.5126V13.0126ZM81.3647 13.9309L80.8647 13.9304V13.9309H81.3647ZM81.3647 31.3867H80.8647L80.8647 31.3896L81.3647 31.3867ZM62.4352 50.7808L62.443 51.2807L62.4473 51.2806L62.4352 50.7808ZM42.957 31.694L43.457 31.6946V31.694H42.957ZM42.957 13.93H42.457H42.957ZM43.8807 13.0117V12.5117V13.0117ZM50.1347 13.93H50.6347H50.1347ZM50.1347 31.4576L50.6347 31.4591V31.4576H50.1347ZM62.3337 43.6503L62.3325 44.1503L62.3422 44.1502L62.3337 43.6503ZM74.1806 31.6985L74.6806 31.6997V31.6985H74.1806ZM74.1806 13.93L73.6806 13.9295V13.93H74.1806ZM75.1115 13.0126V13.5126H80.442V13.0126V12.5126H75.1115V13.0126ZM80.442 13.0126V13.5126C80.4979 13.5126 80.5533 13.5236 80.6048 13.5448L80.7953 13.0825L80.9858 12.6203C80.8133 12.5492 80.6285 12.5126 80.442 12.5126V13.0126ZM80.7953 13.0825L80.6048 13.5448C80.6563 13.5661 80.7029 13.5971 80.742 13.636L81.0947 13.2816L81.4474 12.9272C81.3152 12.7956 81.1583 12.6913 80.9858 12.6203L80.7953 13.0825ZM81.0947 13.2816L80.742 13.636C80.7812 13.675 80.812 13.721 80.833 13.7715L81.2947 13.5795L81.7564 13.3876C81.6847 13.2153 81.5797 13.0589 81.4474 12.9272L81.0947 13.2816ZM81.2947 13.5795L80.833 13.7715C80.854 13.822 80.8647 13.876 80.8647 13.9304L81.3647 13.9309L81.8647 13.9314C81.8649 13.7447 81.828 13.5599 81.7564 13.3876L81.2947 13.5795ZM81.3647 13.9309H80.8647V31.3867H81.3647H81.8647V13.9309H81.3647ZM81.3647 31.3867L80.8647 31.3896C80.8932 36.3113 78.9777 41.0481 75.5294 44.5811L75.8872 44.9303L76.245 45.2796C79.8765 41.5589 81.8947 36.5693 81.8647 31.3838L81.3647 31.3867ZM75.8872 44.9303L75.5294 44.5811C72.0809 48.1142 67.3748 50.1612 62.4231 50.2809L62.4352 50.7808L62.4473 51.2806C67.6591 51.1546 72.6136 49.0001 76.245 45.2796L75.8872 44.9303ZM62.4352 50.7808L62.4273 50.2808C59.9479 50.3197 57.4855 49.8674 55.1838 48.9503L54.9988 49.4148L54.8137 49.8793C57.2381 50.8453 59.8316 51.3217 62.443 51.2807L62.4352 50.7808ZM54.9988 49.4148L55.1838 48.9503C52.8822 48.0332 50.7875 46.6697 49.0218 44.9394L48.6718 45.2966L48.3219 45.6537C50.1824 47.4768 52.3893 48.9132 54.8137 49.8793L54.9988 49.4148ZM48.6718 45.2966L49.0218 44.9394C47.2561 43.2092 45.8548 41.147 44.8994 38.873L44.4385 39.0666L43.9775 39.2603C44.9845 41.6572 46.4614 43.8306 48.3219 45.6537L48.6718 45.2966ZM44.4385 39.0666L44.8994 38.873C43.9441 36.599 43.4538 34.1588 43.457 31.6946L42.957 31.694L42.457 31.6933C42.4536 34.291 42.9705 36.8634 43.9775 39.2603L44.4385 39.0666ZM42.957 31.694H43.457V13.93H42.957H42.457V31.694H42.957ZM42.957 13.93H43.457C43.457 13.8754 43.4678 13.8214 43.4889 13.7709L43.0274 13.5786L42.5658 13.3863C42.494 13.5586 42.457 13.7433 42.457 13.93H42.957ZM43.0274 13.5786L43.4889 13.7709C43.51 13.7203 43.5409 13.6742 43.5801 13.6352L43.2276 13.2807L42.875 12.9261C42.7427 13.0576 42.6376 13.214 42.5658 13.3863L43.0274 13.5786ZM43.2276 13.2807L43.5801 13.6352C43.6193 13.5963 43.666 13.5652 43.7176 13.5439L43.5272 13.0816L43.3368 12.6193C43.1643 12.6903 43.0074 12.7945 42.875 12.9261L43.2276 13.2807ZM43.5272 13.0816L43.7176 13.5439C43.7692 13.5227 43.8246 13.5117 43.8807 13.5117V13.0117V12.5117C43.6941 12.5117 43.5093 12.5482 43.3368 12.6193L43.5272 13.0816ZM43.8807 13.0117V13.5117H49.2111V13.0117V12.5117H43.8807V13.0117ZM49.2111 13.0117V13.5117C49.2671 13.5117 49.3225 13.5227 49.3741 13.5439L49.5645 13.0816L49.7549 12.6193C49.5824 12.5482 49.3976 12.5117 49.2111 12.5117V13.0117ZM49.5645 13.0816L49.3741 13.5439C49.4258 13.5652 49.4725 13.5963 49.5117 13.6352L49.8642 13.2807L50.2167 12.9261C50.0844 12.7945 49.9274 12.6903 49.7549 12.6193L49.5645 13.0816ZM49.8642 13.2807L49.5117 13.6352C49.5509 13.6742 49.5818 13.7203 49.6029 13.7709L50.0644 13.5786L50.5259 13.3863C50.4542 13.214 50.349 13.0576 50.2167 12.9261L49.8642 13.2807ZM50.0644 13.5786L49.6029 13.7709C49.6239 13.8214 49.6347 13.8754 49.6347 13.93H50.1347H50.6347C50.6347 13.7433 50.5977 13.5586 50.5259 13.3863L50.0644 13.5786ZM50.1347 13.93H49.6347V31.4576H50.1347H50.6347V13.93H50.1347ZM50.1347 31.4576L49.6347 31.4561C49.6297 33.1192 49.9544 34.767 50.5901 36.3052L51.0522 36.1143L51.5143 35.9233C50.929 34.507 50.6301 32.9901 50.6347 31.4591L50.1347 31.4576ZM51.0522 36.1143L50.5901 36.3052C51.2259 37.8434 52.1602 39.2418 53.3396 40.4206L53.693 40.0669L54.0465 39.7133C52.9601 38.6274 52.0997 37.3395 51.5143 35.9233L51.0522 36.1143ZM53.693 40.0669L53.3396 40.4206C54.5189 41.5993 55.9202 42.5353 57.4632 43.1752L57.6547 42.7133L57.8463 42.2515C56.4241 41.6617 55.1329 40.7992 54.0465 39.7133L53.693 40.0669ZM57.6547 42.7133L57.4632 43.1752C59.0062 43.8151 60.6608 44.1464 62.3325 44.1502L62.3337 43.6503L62.3348 43.1503C60.7937 43.1467 59.2685 42.8413 57.8463 42.2515L57.6547 42.7133ZM62.3337 43.6503L62.3422 44.1502C65.6276 44.0944 68.7605 42.7598 71.0677 40.4321L70.7126 40.0801L70.3575 39.7281C68.2345 41.8699 65.3506 43.099 62.3252 43.1503L62.3337 43.6503ZM70.7126 40.0801L71.0677 40.4321C73.3751 38.1043 74.6726 34.9691 74.6806 31.6997L74.1806 31.6985L73.6806 31.6973C73.6733 34.7029 72.4805 37.5864 70.3575 39.7281L70.7126 40.0801ZM74.1806 31.6985H74.6806V13.93H74.1806H73.6806V31.6985H74.1806ZM74.1806 13.93L74.6806 13.9305C74.6807 13.8206 74.7246 13.7147 74.8037 13.6362L74.4511 13.2816L74.0986 12.927C73.8317 13.1924 73.681 13.5529 73.6806 13.9295L74.1806 13.93ZM74.4511 13.2816L74.8037 13.6362C74.8828 13.5575 74.9907 13.5127 75.1038 13.5126L75.1033 13.0126L75.1028 12.5126C74.7267 12.513 74.3655 12.6617 74.0986 12.927L74.4511 13.2816Z" fill="white" mask="url(#path-2-outside-1_1_121)"/>
<path d="M118.385 48.8037L118.379 48.9189C118.352 49.1864 118.233 49.4375 118.041 49.6289C117.821 49.8475 117.523 49.9703 117.213 49.9707H111.875C111.565 49.9703 111.268 49.8475 111.048 49.6289C110.828 49.4101 110.704 49.1136 110.704 48.8037V27.8594C110.722 25.7125 109.956 23.6316 108.548 22.0029C107.14 20.3742 105.185 19.308 103.047 19.002V19.001C101.815 18.8501 100.565 18.9623 99.3789 19.3281C98.1917 19.6944 97.0963 20.3077 96.166 21.127C95.236 21.9461 94.4921 22.9524 93.9834 24.0791C93.4747 25.206 93.2122 26.428 93.2148 27.6631V48.8037L93.209 48.9189C93.1821 49.1864 93.0635 49.4375 92.8711 49.6289C92.6512 49.8475 92.3533 49.9704 92.043 49.9707H86.6182C86.3076 49.9707 86.0091 49.8486 85.7891 49.6299C85.569 49.4111 85.4453 49.1138 85.4453 48.8037V27.9473C85.4423 23.5618 87.1803 19.3525 90.2812 16.2344C93.3824 13.1162 97.596 11.3414 102.006 11.2949H102.009C104.449 11.2994 106.858 11.8519 109.054 12.9111C111.157 13.9259 113.013 15.3818 114.496 17.1758C116.617 14.6424 119.459 12.803 122.653 11.9053C125.946 10.9799 129.448 11.0994 132.669 12.248C135.89 13.3969 138.671 15.5174 140.622 18.3135C142.572 21.1085 143.596 24.4393 143.551 27.8408V48.8037L143.545 48.9199C143.518 49.1873 143.399 49.4386 143.206 49.6299C142.986 49.8485 142.687 49.9706 142.377 49.9707H137.045C136.891 49.9706 136.74 49.9403 136.598 49.8818C136.456 49.8233 136.326 49.7382 136.217 49.6299C136.108 49.5216 136.022 49.3926 135.963 49.251C135.904 49.1093 135.874 48.9571 135.874 48.8037V27.7539C135.89 26.6064 135.676 25.4667 135.247 24.4014C134.818 23.3362 134.181 22.3661 133.372 21.5469C132.563 20.7275 131.599 20.075 130.535 19.6279C129.471 19.1809 128.329 18.9482 127.174 18.9424C126.019 18.9366 124.875 19.1576 123.807 19.5938C122.738 20.03 121.767 20.6723 120.95 21.4834C120.133 22.2945 119.486 23.2593 119.046 24.3203C118.606 25.3813 118.381 26.5184 118.385 27.666V48.8037Z" fill="white" stroke="white" stroke-width="0.5"/>
<mask id="path-5-outside-2_1_121" maskUnits="userSpaceOnUse" x="148.402" y="12.0078" width="40" height="39" fill="black">
<rect fill="white" x="148.402" y="12.0078" width="40" height="39"/>
<path d="M184.846 13.927V19.2264C184.846 19.47 184.749 19.7035 184.576 19.8757C184.402 20.0479 184.168 20.1447 183.923 20.1447H160.135C159.22 20.1333 158.337 20.4771 157.673 21.1031C157.009 21.729 156.617 22.5878 156.58 23.4967C156.535 25.8687 158.415 27.0143 160.773 27.0143H176.203C177.709 26.9877 179.206 27.2578 180.607 27.8092C182.009 28.3605 183.286 29.1821 184.366 30.2266C185.446 31.2712 186.308 32.5179 186.901 33.8951C187.495 35.2722 187.808 36.7525 187.823 38.2505C187.838 39.7486 187.555 41.2348 186.989 42.6235C186.424 44.0121 185.587 45.2758 184.529 46.3416C183.47 47.4074 182.209 48.2543 180.819 48.8334C179.429 49.4126 177.938 49.7125 176.431 49.7159H150.326C150.205 49.716 150.085 49.6923 149.973 49.6463C149.861 49.6003 149.759 49.5327 149.673 49.4475C149.587 49.3623 149.519 49.2611 149.473 49.1498C149.426 49.0384 149.402 48.9191 149.402 48.7985V43.4054C149.402 43.2849 149.426 43.1655 149.473 43.0542C149.519 42.9428 149.587 42.8416 149.673 42.7564C149.759 42.6712 149.861 42.6037 149.973 42.5576C150.085 42.5116 150.205 42.488 150.326 42.4881H176.25C177.164 42.5001 178.058 42.2266 178.806 41.706C179.554 41.1854 180.119 40.4441 180.421 39.587C180.619 38.9624 180.667 38.3003 180.56 37.6541C180.454 37.0079 180.196 36.3955 179.808 35.8664C179.42 35.3373 178.912 34.9062 178.326 34.6078C177.739 34.3094 177.091 34.152 176.432 34.1484H160.289C158.858 34.1589 157.44 33.8867 156.115 33.3476C154.791 32.8084 153.588 32.0131 152.576 31.0078C151.563 30.0026 150.762 28.8073 150.218 27.4915C149.674 26.1758 149.398 24.7656 149.407 23.3431C149.533 17.1708 154.608 13.0078 160.775 13.0078H183.924C184.169 13.0081 184.404 13.1049 184.577 13.277C184.75 13.4492 184.848 13.6826 184.848 13.9261"/>
</mask>
<path d="M184.846 13.927V19.2264C184.846 19.47 184.749 19.7035 184.576 19.8757C184.402 20.0479 184.168 20.1447 183.923 20.1447H160.135C159.22 20.1333 158.337 20.4771 157.673 21.1031C157.009 21.729 156.617 22.5878 156.58 23.4967C156.535 25.8687 158.415 27.0143 160.773 27.0143H176.203C177.709 26.9877 179.206 27.2578 180.607 27.8092C182.009 28.3605 183.286 29.1821 184.366 30.2266C185.446 31.2712 186.308 32.5179 186.901 33.8951C187.495 35.2722 187.808 36.7525 187.823 38.2505C187.838 39.7486 187.555 41.2348 186.989 42.6235C186.424 44.0121 185.587 45.2758 184.529 46.3416C183.47 47.4074 182.209 48.2543 180.819 48.8334C179.429 49.4126 177.938 49.7125 176.431 49.7159H150.326C150.205 49.716 150.085 49.6923 149.973 49.6463C149.861 49.6003 149.759 49.5327 149.673 49.4475C149.587 49.3623 149.519 49.2611 149.473 49.1498C149.426 49.0384 149.402 48.9191 149.402 48.7985V43.4054C149.402 43.2849 149.426 43.1655 149.473 43.0542C149.519 42.9428 149.587 42.8416 149.673 42.7564C149.759 42.6712 149.861 42.6037 149.973 42.5576C150.085 42.5116 150.205 42.488 150.326 42.4881H176.25C177.164 42.5001 178.058 42.2266 178.806 41.706C179.554 41.1854 180.119 40.4441 180.421 39.587C180.619 38.9624 180.667 38.3003 180.56 37.6541C180.454 37.0079 180.196 36.3955 179.808 35.8664C179.42 35.3373 178.912 34.9062 178.326 34.6078C177.739 34.3094 177.091 34.152 176.432 34.1484H160.289C158.858 34.1589 157.44 33.8867 156.115 33.3476C154.791 32.8084 153.588 32.0131 152.576 31.0078C151.563 30.0026 150.762 28.8073 150.218 27.4915C149.674 26.1758 149.398 24.7656 149.407 23.3431C149.533 17.1708 154.608 13.0078 160.775 13.0078H183.924C184.169 13.0081 184.404 13.1049 184.577 13.277C184.75 13.4492 184.848 13.6826 184.848 13.9261" fill="white"/>
<path d="M160.135 20.1447L160.129 20.6447H160.135V20.1447ZM156.58 23.4967L156.08 23.4764L156.08 23.4873L156.58 23.4967ZM176.203 27.0143V27.5143L176.211 27.5142L176.203 27.0143ZM176.431 49.7159V50.2159H176.432L176.431 49.7159ZM150.326 49.7159V49.2159H150.325L150.326 49.7159ZM149.402 48.7985H149.902V48.7985H149.402ZM149.402 43.4054H149.902V43.4054H149.402ZM150.326 42.4881L150.325 42.9881H150.326V42.4881ZM176.25 42.4881L176.257 41.9881H176.25V42.4881ZM180.421 39.587L180.893 39.7529L180.895 39.7455L180.898 39.738L180.421 39.587ZM176.432 34.1484L176.435 33.6484H176.432V34.1484ZM160.289 34.1484V33.6484L160.285 33.6484L160.289 34.1484ZM149.407 23.3431L148.907 23.3329L148.907 23.34L149.407 23.3431ZM183.924 13.0078L183.925 12.5078H183.924V13.0078ZM184.846 13.927H184.346V19.2264H184.846H185.346V13.927H184.846ZM184.846 19.2264H184.346C184.346 19.3364 184.302 19.4425 184.223 19.5212L184.576 19.8757L184.928 20.2303C185.195 19.9646 185.346 19.6035 185.346 19.2264H184.846ZM184.576 19.8757L184.223 19.5212C184.144 19.5999 184.036 19.6447 183.923 19.6447V20.1447V20.6447C184.299 20.6447 184.661 20.496 184.928 20.2303L184.576 19.8757ZM183.923 20.1447V19.6447H160.135V20.1447V20.6447H183.923V20.1447ZM160.135 20.1447L160.142 19.6447C159.097 19.6317 158.089 20.0241 157.33 20.7393L157.673 21.1031L158.016 21.4669C158.586 20.9301 159.344 20.6349 160.129 20.6446L160.135 20.1447ZM157.673 21.1031L157.33 20.7393C156.572 21.4546 156.123 22.4364 156.08 23.4764L156.58 23.4967L157.08 23.5171C157.111 22.7391 157.447 22.0035 158.016 21.4669L157.673 21.1031ZM156.58 23.4967L156.08 23.4873C156.055 24.8244 156.58 25.8575 157.471 26.5416C158.343 27.2113 159.522 27.5143 160.773 27.5143V27.0143V26.5143C159.667 26.5143 158.726 26.2444 158.08 25.7484C157.453 25.2667 157.06 24.541 157.08 23.5062L156.58 23.4967ZM160.773 27.0143V27.5143H176.203V27.0143V26.5143H160.773V27.0143ZM176.203 27.0143L176.211 27.5142C177.653 27.4887 179.084 27.7471 180.424 28.2744L180.607 27.8092L180.791 27.3439C179.328 26.7685 177.766 26.4866 176.194 26.5143L176.203 27.0143ZM180.607 27.8092L180.424 28.2744C181.764 28.8017 182.986 29.5874 184.019 30.5861L184.366 30.2266L184.714 29.8672C183.586 28.7768 182.253 27.9193 180.791 27.3439L180.607 27.8092ZM184.366 30.2266L184.019 30.5861C185.051 31.5847 185.875 32.7766 186.442 34.0929L186.901 33.8951L187.36 33.6973C186.741 32.2593 185.841 30.9576 184.714 29.8672L184.366 30.2266ZM186.901 33.8951L186.442 34.0929C187.009 35.4092 187.308 36.8239 187.323 38.2556L187.823 38.2505L188.323 38.2455C188.307 36.6811 187.98 35.1353 187.36 33.6973L186.901 33.8951ZM187.823 38.2505L187.323 38.2556C187.337 39.6872 187.066 41.1076 186.526 42.4349L186.989 42.6235L187.452 42.812C188.043 41.3619 188.339 39.8099 188.323 38.2455L187.823 38.2505ZM186.989 42.6235L186.526 42.4349C185.986 43.7622 185.186 44.9702 184.174 45.9892L184.529 46.3416L184.883 46.694C185.989 45.5814 186.862 44.2621 187.452 42.812L186.989 42.6235ZM184.529 46.3416L184.174 45.9892C183.161 47.0082 181.956 47.8181 180.627 48.3719L180.819 48.8334L181.011 49.295C182.462 48.6906 183.778 47.8067 184.883 46.694L184.529 46.3416ZM180.819 48.8334L180.627 48.3719C179.298 48.9258 177.871 49.2126 176.43 49.2159L176.431 49.7159L176.432 50.2159C178.005 50.2123 179.561 49.8994 181.011 49.295L180.819 48.8334ZM176.431 49.7159V49.2159H150.326V49.7159V50.2159H176.431V49.7159ZM150.326 49.7159L150.325 49.2159C150.269 49.2159 150.214 49.205 150.163 49.1838L149.973 49.6463L149.783 50.1088C149.955 50.1797 150.14 50.216 150.326 50.2159L150.326 49.7159ZM149.973 49.6463L150.163 49.1838C150.111 49.1626 150.064 49.1316 150.025 49.0927L149.673 49.4475L149.321 49.8023C149.453 49.9338 149.61 50.0379 149.783 50.1088L149.973 49.6463ZM149.673 49.4475L150.025 49.0927C149.986 49.0539 149.955 49.0079 149.934 48.9574L149.473 49.1498L149.011 49.3422C149.083 49.5144 149.188 49.6707 149.321 49.8023L149.673 49.4475ZM149.473 49.1498L149.934 48.9574C149.913 48.9069 149.902 48.853 149.902 48.7985H149.402H148.902C148.902 48.9852 148.939 49.1699 149.011 49.3422L149.473 49.1498ZM149.402 48.7985H149.902V43.4054H149.402H148.902V48.7985H149.402ZM149.402 43.4054H149.902C149.902 43.351 149.913 43.297 149.934 43.2466L149.473 43.0542L149.011 42.8617C148.939 43.034 148.902 43.2188 148.902 43.4054H149.402ZM149.473 43.0542L149.934 43.2466C149.955 43.1961 149.986 43.1501 150.025 43.1112L149.673 42.7564L149.321 42.4017C149.188 42.5332 149.083 42.6895 149.011 42.8617L149.473 43.0542ZM149.673 42.7564L150.025 43.1112C150.064 43.0723 150.111 43.0413 150.163 43.0201L149.973 42.5576L149.783 42.0952C149.61 42.1661 149.453 42.2702 149.321 42.4017L149.673 42.7564ZM149.973 42.5576L150.163 43.0201C150.214 42.9989 150.269 42.988 150.325 42.9881L150.326 42.4881L150.326 41.9881C150.14 41.9879 149.955 42.0243 149.783 42.0952L149.973 42.5576ZM150.326 42.4881V42.9881H176.25V42.4881V41.9881H150.326V42.4881ZM176.25 42.4881L176.244 42.988C177.261 43.0015 178.257 42.6967 179.092 42.1164L178.806 41.706L178.521 41.2955C177.858 41.7564 177.066 41.9988 176.257 41.9881L176.25 42.4881ZM178.806 41.706L179.092 42.1164C179.926 41.5361 180.556 40.7095 180.893 39.7529L180.421 39.587L179.949 39.421C179.683 40.1788 179.183 40.8346 178.521 41.2955L178.806 41.706ZM180.421 39.587L180.898 39.738C181.119 39.0384 181.173 38.2967 181.053 37.5728L180.56 37.6541L180.067 37.7354C180.16 38.3039 180.119 38.8864 179.944 39.4359L180.421 39.587ZM180.56 37.6541L181.053 37.5728C180.934 36.8488 180.645 36.1631 180.211 35.5707L179.808 35.8664L179.405 36.1621C179.746 36.628 179.973 37.1669 180.067 37.7354L180.56 37.6541ZM179.808 35.8664L180.211 35.5707C179.776 34.9783 179.208 34.496 178.553 34.1622L178.326 34.6078L178.099 35.0534C178.616 35.3164 179.063 35.6963 179.405 36.1621L179.808 35.8664ZM178.326 34.6078L178.553 34.1622C177.897 33.8284 177.171 33.6525 176.435 33.6484L176.432 34.1484L176.429 34.6484C177.01 34.6516 177.582 34.7904 178.099 35.0534L178.326 34.6078ZM176.432 34.1484V33.6484H160.289V34.1484V34.6484H176.432V34.1484ZM160.289 34.1484L160.285 33.6484C158.92 33.6584 157.567 33.3987 156.304 32.8845L156.115 33.3476L155.927 33.8106C157.312 34.3746 158.796 34.6594 160.293 34.6484L160.289 34.1484ZM156.115 33.3476L156.304 32.8845C155.041 32.3702 153.893 31.6117 152.928 30.653L152.576 31.0078L152.223 31.3627C153.283 32.4146 154.542 33.2467 155.927 33.8106L156.115 33.3476ZM152.576 31.0078L152.928 30.653C151.962 29.6944 151.198 28.5548 150.68 27.3005L150.218 27.4915L149.756 27.6826C150.325 29.0598 151.164 30.3107 152.223 31.3627L152.576 31.0078ZM150.218 27.4915L150.68 27.3005C150.161 26.0462 149.899 24.7021 149.907 23.3462L149.407 23.3431L148.907 23.34C148.898 24.8292 149.186 26.3053 149.756 27.6826L150.218 27.4915ZM149.407 23.3431L149.907 23.3533C150.026 17.5009 154.83 13.5078 160.775 13.5078V13.0078V12.5078C154.387 12.5078 149.04 16.8408 148.907 23.3329L149.407 23.3431ZM160.775 13.0078V13.5078H183.924V13.0078V12.5078H160.775V13.0078ZM183.924 13.0078L183.924 13.5078C184.037 13.5079 184.145 13.5528 184.225 13.6316L184.577 13.277L184.93 12.9224C184.663 12.657 184.301 12.5082 183.925 12.5078L183.924 13.0078ZM184.577 13.277L184.225 13.6316C184.304 13.7103 184.348 13.8165 184.348 13.9266L184.848 13.9261L185.348 13.9256C185.348 13.5487 185.197 13.188 184.93 12.9224L184.577 13.277Z" fill="white" mask="url(#path-5-outside-2_1_121)"/>
<path d="M206.571 11.7617C210.883 10.9363 215.347 11.5424 219.278 13.4873C223.209 15.4321 226.387 18.6079 228.325 22.5254H228.326C228.415 22.7033 228.456 22.9012 228.446 23.0996C228.437 23.2979 228.377 23.4903 228.272 23.6592C228.168 23.8281 228.022 23.9681 227.849 24.0654C227.675 24.1626 227.48 24.2142 227.281 24.2158H220.701C220.524 24.2142 220.349 24.1734 220.189 24.0957C220.031 24.0184 219.893 23.9062 219.783 23.7686V23.7695C218.207 21.848 216.071 20.458 213.668 19.791C211.265 19.1241 208.713 19.2129 206.363 20.0449C204.013 20.8769 201.98 22.4114 200.542 24.4375C199.104 26.4638 198.332 28.8829 198.332 31.3623C198.332 33.8417 199.104 36.2608 200.542 38.2871C201.98 40.3133 204.013 41.8477 206.363 42.6797C208.713 43.5117 211.265 43.6006 213.668 42.9336C215.921 42.3083 217.939 41.0472 219.481 39.3086L219.783 38.9551C219.892 38.8177 220.031 38.7061 220.188 38.6289C220.348 38.5511 220.523 38.5101 220.7 38.5088H227.279C227.478 38.5103 227.675 38.5618 227.849 38.6592C228.022 38.7565 228.168 38.8965 228.272 39.0654C228.377 39.2345 228.437 39.4275 228.446 39.626C228.455 39.8246 228.413 40.0222 228.324 40.2002V40.2012C226.246 44.3333 222.789 47.6191 218.545 49.498C214.301 51.3769 209.532 51.7328 205.054 50.5039C200.575 49.2749 196.664 46.5375 193.99 42.7598C191.316 38.9818 190.044 34.3971 190.393 29.79L190.428 29.3828C190.839 25.1799 192.585 21.2115 195.417 18.0557C198.34 14.7983 202.26 12.5872 206.571 11.7617Z" fill="white" stroke="white" stroke-width="0.5"/>
<mask id="path-8-outside-3_1_121" maskUnits="userSpaceOnUse" x="273.867" y="12.0117" width="40" height="40" fill="black">
<rect fill="white" x="273.867" y="12.0117" width="40" height="40"/>
<path d="M311.829 13.0117H307.531C307.15 13.012 306.784 13.1627 306.514 13.4309C306.244 13.699 306.093 14.0626 306.093 14.4418V31.5858C306.074 33.1558 305.744 34.7067 305.123 36.1501C304.501 37.5935 303.6 38.901 302.47 39.998C301.34 41.0949 300.004 41.9599 298.537 42.5436C297.071 43.1272 295.504 43.418 293.925 43.3993C292.346 43.3807 290.786 43.053 289.334 42.435C287.882 41.817 286.567 40.9207 285.463 39.7974C284.36 38.6741 283.49 37.3457 282.903 35.888C282.316 34.4304 282.023 32.8721 282.042 31.3021V14.4418C282.042 14.0626 281.89 13.699 281.621 13.4309C281.351 13.1627 280.985 13.012 280.604 13.0117H276.306C275.924 13.0117 275.558 13.1624 275.289 13.4306C275.019 13.6988 274.867 14.0625 274.867 14.4418V31.5858C274.86 36.5738 276.819 41.366 280.325 44.9339C283.832 48.5017 288.605 50.5607 293.621 50.6689C296.201 50.6978 298.76 50.2157 301.15 49.2507C303.54 48.2856 305.713 46.857 307.542 45.0482C309.37 43.2394 310.818 41.0866 311.801 38.7154C312.784 36.3442 313.282 33.8022 313.267 31.2376V14.4418C313.267 14.0625 313.115 13.6988 312.845 13.4306C312.576 13.1624 312.21 13.0117 311.828 13.0117"/>
</mask>
<path d="M311.829 13.0117H307.531C307.15 13.012 306.784 13.1627 306.514 13.4309C306.244 13.699 306.093 14.0626 306.093 14.4418V31.5858C306.074 33.1558 305.744 34.7067 305.123 36.1501C304.501 37.5935 303.6 38.901 302.47 39.998C301.34 41.0949 300.004 41.9599 298.537 42.5436C297.071 43.1272 295.504 43.418 293.925 43.3993C292.346 43.3807 290.786 43.053 289.334 42.435C287.882 41.817 286.567 40.9207 285.463 39.7974C284.36 38.6741 283.49 37.3457 282.903 35.888C282.316 34.4304 282.023 32.8721 282.042 31.3021V14.4418C282.042 14.0626 281.89 13.699 281.621 13.4309C281.351 13.1627 280.985 13.012 280.604 13.0117H276.306C275.924 13.0117 275.558 13.1624 275.289 13.4306C275.019 13.6988 274.867 14.0625 274.867 14.4418V31.5858C274.86 36.5738 276.819 41.366 280.325 44.9339C283.832 48.5017 288.605 50.5607 293.621 50.6689C296.201 50.6978 298.76 50.2157 301.15 49.2507C303.54 48.2856 305.713 46.857 307.542 45.0482C309.37 43.2394 310.818 41.0866 311.801 38.7154C312.784 36.3442 313.282 33.8022 313.267 31.2376V14.4418C313.267 14.0625 313.115 13.6988 312.845 13.4306C312.576 13.1624 312.21 13.0117 311.828 13.0117" fill="white"/>
<path d="M307.531 13.0117V12.5117L307.531 12.5117L307.531 13.0117ZM306.093 14.4418L305.593 14.4415V14.4418H306.093ZM306.093 31.5858L306.593 31.5917V31.5858H306.093ZM282.042 31.3021L282.542 31.3081V31.3021H282.042ZM282.042 14.4418H282.542V14.4415L282.042 14.4418ZM280.604 13.0117L280.604 12.5117H280.604V13.0117ZM274.867 31.5858L275.367 31.5865V31.5858H274.867ZM293.621 50.6689L293.61 51.1688L293.616 51.1689L293.621 50.6689ZM313.267 31.2376H312.767L312.767 31.2406L313.267 31.2376ZM311.829 13.0117V12.5117H307.531V13.0117V13.5117H311.829V13.0117ZM307.531 13.0117L307.531 12.5117C307.018 12.512 306.525 12.7148 306.162 13.0763L306.514 13.4309L306.867 13.7854C307.043 13.6107 307.282 13.5119 307.531 13.5117L307.531 13.0117ZM306.514 13.4309L306.162 13.0763C305.798 13.4379 305.593 13.9289 305.593 14.4415L306.093 14.4418L306.593 14.4421C306.593 14.1964 306.691 13.9601 306.867 13.7854L306.514 13.4309ZM306.093 14.4418H305.593V31.5858H306.093H306.593V14.4418H306.093ZM306.093 31.5858L305.593 31.5798C305.575 33.0837 305.259 34.5695 304.663 35.9523L305.123 36.1501L305.582 36.3479C306.23 34.8439 306.573 33.2278 306.593 31.5917L306.093 31.5858ZM305.123 36.1501L304.663 35.9523C304.068 37.3351 303.204 38.588 302.121 39.6392L302.47 39.998L302.818 40.3567C303.995 39.214 304.934 37.8518 305.582 36.3479L305.123 36.1501ZM302.47 39.998L302.121 39.6392C301.039 40.6905 299.758 41.5196 298.353 42.079L298.537 42.5436L298.722 43.0081C300.249 42.4003 301.641 41.4994 302.818 40.3567L302.47 39.998ZM298.537 42.5436L298.353 42.079C296.947 42.6384 295.445 42.9172 293.931 42.8994L293.925 43.3993L293.919 43.8993C295.563 43.9187 297.195 43.6159 298.722 43.0081L298.537 42.5436ZM293.925 43.3993L293.931 42.8994C292.417 42.8815 290.921 42.5674 289.53 41.975L289.334 42.435L289.138 42.8951C290.65 43.5387 292.274 43.8799 293.919 43.8993L293.925 43.3993ZM289.334 42.435L289.53 41.975C288.138 41.3825 286.877 40.5235 285.82 39.447L285.463 39.7974L285.107 40.1478C286.256 41.3179 287.626 42.2514 289.138 42.8951L289.334 42.435ZM285.463 39.7974L285.82 39.447C284.763 38.3705 283.929 37.0977 283.367 35.7013L282.903 35.888L282.439 36.0748C283.051 37.5936 283.957 38.9776 285.107 40.1478L285.463 39.7974ZM282.903 35.888L283.367 35.7013C282.804 34.3048 282.524 32.812 282.542 31.3081L282.042 31.3021L281.542 31.2961C281.523 32.9322 281.827 34.556 282.439 36.0748L282.903 35.888ZM282.042 31.3021H282.542V14.4418H282.042H281.542V31.3021H282.042ZM282.042 14.4418L282.542 14.4415C282.542 13.9289 282.337 13.4379 281.973 13.0763L281.621 13.4309L281.268 13.7854C281.444 13.9601 281.542 14.1964 281.542 14.4421L282.042 14.4418ZM281.621 13.4309L281.973 13.0763C281.609 12.7148 281.117 12.512 280.604 12.5117L280.604 13.0117L280.603 13.5117C280.853 13.5119 281.092 13.6107 281.268 13.7854L281.621 13.4309ZM280.604 13.0117V12.5117H276.306V13.0117V13.5117H280.604V13.0117ZM276.306 13.0117V12.5117C275.793 12.5117 275.3 12.7144 274.936 13.076L275.289 13.4306L275.641 13.7852C275.817 13.6104 276.056 13.5117 276.306 13.5117V13.0117ZM275.289 13.4306L274.936 13.076C274.572 13.4377 274.367 13.929 274.367 14.4418H274.867H275.367C275.367 14.1961 275.465 13.9598 275.641 13.7852L275.289 13.4306ZM274.867 14.4418H274.367V31.5858H274.867H275.367V14.4418H274.867ZM274.867 31.5858L274.367 31.585C274.359 36.7048 276.371 41.6231 279.969 45.2843L280.325 44.9339L280.682 44.5834C277.268 41.109 275.36 36.4428 275.367 31.5865L274.867 31.5858ZM280.325 44.9339L279.969 45.2843C283.567 48.9454 288.464 51.0578 293.61 51.1688L293.621 50.6689L293.632 50.169C288.746 50.0636 284.097 48.0579 280.682 44.5834L280.325 44.9339ZM293.621 50.6689L293.616 51.1689C296.261 51.1985 298.886 50.7041 301.337 49.7143L301.15 49.2507L300.963 48.787C298.634 49.7273 296.14 50.1971 293.627 50.169L293.621 50.6689ZM301.15 49.2507L301.337 49.7143C303.789 48.7245 306.017 47.2592 307.893 45.4037L307.542 45.0482L307.19 44.6927C305.408 46.4549 303.292 47.8467 300.963 48.787L301.15 49.2507ZM307.542 45.0482L307.893 45.4037C309.769 43.5482 311.255 41.3396 312.263 38.9069L311.801 38.7154L311.34 38.5239C310.382 40.8335 308.972 42.9306 307.19 44.6927L307.542 45.0482ZM311.801 38.7154L312.263 38.9069C313.272 36.4741 313.783 33.8659 313.767 31.2345L313.267 31.2376L312.767 31.2406C312.782 33.7384 312.297 36.2143 311.34 38.5239L311.801 38.7154ZM313.267 31.2376H313.767V14.4418H313.267H312.767V31.2376H313.267ZM313.267 14.4418H313.767C313.767 13.929 313.562 13.4378 313.198 13.076L312.845 13.4306L312.493 13.7852C312.668 13.9598 312.767 14.1961 312.767 14.4418H313.267ZM312.845 13.4306L313.198 13.076C312.834 12.7144 312.341 12.5117 311.828 12.5117V13.0117V13.5117C312.078 13.5117 312.317 13.6104 312.493 13.7852L312.845 13.4306Z" fill="white" mask="url(#path-8-outside-3_1_121)"/>
<mask id="path-10-outside-4_1_121" maskUnits="userSpaceOnUse" x="316.117" y="-0.5" width="28" height="52" fill="black">
<rect fill="white" x="316.117" y="-0.5" width="28" height="52"/>
<path d="M343.498 18.3849V14.3337C343.498 14.1552 343.463 13.9785 343.394 13.8136C343.325 13.6487 343.225 13.4988 343.098 13.3727C342.971 13.2465 342.82 13.1465 342.654 13.0783C342.488 13.0102 342.31 12.9752 342.131 12.9754H331.473V1.85737C331.473 1.67904 331.438 1.50246 331.369 1.33772C331.301 1.17297 331.2 1.0233 331.073 0.897243C330.946 0.771188 330.796 0.671223 330.63 0.603063C330.464 0.534902 330.287 0.499881 330.107 0.5H325.66C325.298 0.5 324.951 0.643008 324.695 0.897564C324.439 1.15212 324.295 1.49737 324.295 1.85737V12.9754H318.484C318.305 12.9752 318.127 13.0102 317.961 13.0783C317.795 13.1465 317.644 13.2465 317.517 13.3727C317.39 13.4988 317.29 13.6487 317.221 13.8136C317.152 13.9785 317.117 14.1552 317.117 14.3337V18.3849C317.117 18.5634 317.152 18.7402 317.221 18.9052C317.29 19.0701 317.39 19.22 317.517 19.3463C317.644 19.4725 317.795 19.5726 317.961 19.6409C318.127 19.7091 318.305 19.7442 318.484 19.7441H324.295V34.7452H324.321V37.7245C324.325 41.0163 325.635 44.1738 327.966 46.5118C330.297 48.8498 333.461 50.1796 336.772 50.2126H341.688C341.867 50.2127 342.045 50.1777 342.211 50.1095C342.377 50.0414 342.527 49.9414 342.654 49.8154C342.781 49.6893 342.882 49.5396 342.95 49.3749C343.019 49.2102 343.054 49.0336 343.054 48.8552V44.4304C343.054 44.0703 342.91 43.7251 342.654 43.4705C342.398 43.216 342.05 43.073 341.688 43.073H336.772C335.365 43.0426 334.025 42.466 333.04 41.4664C332.055 40.4669 331.503 39.1238 331.501 37.7245V24.0262H331.471V19.7441H342.128C342.492 19.7441 342.841 19.6004 343.098 19.3447C343.355 19.0889 343.5 18.742 343.5 18.3804"/>
</mask>
<path d="M343.498 18.3849V14.3337C343.498 14.1552 343.463 13.9785 343.394 13.8136C343.325 13.6487 343.225 13.4988 343.098 13.3727C342.971 13.2465 342.82 13.1465 342.654 13.0783C342.488 13.0102 342.31 12.9752 342.131 12.9754H331.473V1.85737C331.473 1.67904 331.438 1.50246 331.369 1.33772C331.301 1.17297 331.2 1.0233 331.073 0.897243C330.946 0.771188 330.796 0.671223 330.63 0.603063C330.464 0.534902 330.287 0.499881 330.107 0.5H325.66C325.298 0.5 324.951 0.643008 324.695 0.897564C324.439 1.15212 324.295 1.49737 324.295 1.85737V12.9754H318.484C318.305 12.9752 318.127 13.0102 317.961 13.0783C317.795 13.1465 317.644 13.2465 317.517 13.3727C317.39 13.4988 317.29 13.6487 317.221 13.8136C317.152 13.9785 317.117 14.1552 317.117 14.3337V18.3849C317.117 18.5634 317.152 18.7402 317.221 18.9052C317.29 19.0701 317.39 19.22 317.517 19.3463C317.644 19.4725 317.795 19.5726 317.961 19.6409C318.127 19.7091 318.305 19.7442 318.484 19.7441H324.295V34.7452H324.321V37.7245C324.325 41.0163 325.635 44.1738 327.966 46.5118C330.297 48.8498 333.461 50.1796 336.772 50.2126H341.688C341.867 50.2127 342.045 50.1777 342.211 50.1095C342.377 50.0414 342.527 49.9414 342.654 49.8154C342.781 49.6893 342.882 49.5396 342.95 49.3749C343.019 49.2102 343.054 49.0336 343.054 48.8552V44.4304C343.054 44.0703 342.91 43.7251 342.654 43.4705C342.398 43.216 342.05 43.073 341.688 43.073H336.772C335.365 43.0426 334.025 42.466 333.04 41.4664C332.055 40.4669 331.503 39.1238 331.501 37.7245V24.0262H331.471V19.7441H342.128C342.492 19.7441 342.841 19.6004 343.098 19.3447C343.355 19.0889 343.5 18.742 343.5 18.3804" fill="white"/>
<path d="M343.498 14.3337L342.998 14.3334V14.3337H343.498ZM342.131 12.9754V13.4754L342.131 13.4754L342.131 12.9754ZM331.473 12.9754H330.973V13.4754H331.473V12.9754ZM331.473 1.85737L330.973 1.85737V1.85737H331.473ZM330.107 0.5V1L330.108 1L330.107 0.5ZM325.66 0.5V2.98023e-07V0.5ZM324.295 12.9754V13.4754H324.795V12.9754H324.295ZM318.484 12.9754L318.484 13.4754H318.484V12.9754ZM317.117 14.3337H317.617L317.617 14.3334L317.117 14.3337ZM317.117 18.3849L317.617 18.3852V18.3849H317.117ZM318.484 19.7441V19.2441H318.484L318.484 19.7441ZM324.295 19.7441H324.795V19.2441H324.295V19.7441ZM324.295 34.7452H323.795V35.2452H324.295V34.7452ZM324.321 34.7452H324.821V34.2452H324.321V34.7452ZM324.321 37.7245H323.821L323.821 37.725L324.321 37.7245ZM336.772 50.2126L336.767 50.7126H336.772V50.2126ZM341.688 50.2126L341.688 49.7126H341.688V50.2126ZM343.054 48.8552H342.554V48.8552H343.054ZM343.054 44.4304H343.554V44.43L343.054 44.4304ZM341.688 43.073V43.573V43.573V43.073ZM336.772 43.073L336.761 43.573H336.772V43.073ZM331.501 37.7245H331.001V37.7251L331.501 37.7245ZM331.501 24.0262H332.001V23.5262H331.501V24.0262ZM331.471 24.0262H330.971V24.5262H331.471V24.0262ZM331.471 19.7441V19.2441H330.971V19.7441H331.471ZM342.128 19.7441V20.2441V19.7441ZM343.498 18.3849H343.998V14.3337H343.498H342.998V18.3849H343.498ZM343.498 14.3337L343.998 14.334C343.998 14.0895 343.95 13.8473 343.856 13.6213L343.394 13.8136L342.932 14.0058C342.976 14.1097 342.998 14.221 342.998 14.3334L343.498 14.3337ZM343.394 13.8136L343.856 13.6213C343.761 13.3955 343.624 13.1905 343.45 13.018L343.098 13.3727L342.745 13.7274C342.826 13.8072 342.889 13.9018 342.932 14.0058L343.394 13.8136ZM343.098 13.3727L343.45 13.018C343.276 12.8455 343.07 12.7089 342.844 12.6158L342.654 13.0783L342.464 13.5408C342.569 13.5841 342.665 13.6475 342.745 13.7274L343.098 13.3727ZM342.654 13.0783L342.844 12.6158C342.617 12.5228 342.375 12.4751 342.13 12.4754L342.131 12.9754L342.131 13.4754C342.245 13.4753 342.359 13.4975 342.464 13.5408L342.654 13.0783ZM342.131 12.9754V12.4754H331.473V12.9754V13.4754H342.131V12.9754ZM331.473 12.9754H331.973V1.85737H331.473H330.973V12.9754H331.473ZM331.473 1.85737L331.973 1.85737C331.973 1.6129 331.925 1.37095 331.831 1.14534L331.369 1.33772L330.908 1.53009C330.951 1.63397 330.973 1.74518 330.973 1.85737L331.473 1.85737ZM331.369 1.33772L331.831 1.14534C331.737 0.919771 331.599 0.714947 331.426 0.542543L331.073 0.897243L330.721 1.25194C330.801 1.33165 330.865 1.42618 330.908 1.53009L331.369 1.33772ZM331.073 0.897243L331.426 0.542543C331.252 0.370168 331.046 0.233658 330.82 0.140636L330.63 0.603063L330.44 1.06549C330.545 1.10879 330.641 1.17221 330.721 1.25194L331.073 0.897243ZM330.63 0.603063L330.82 0.140636C330.594 0.0476017 330.352 -0.000162482 330.107 4.17233e-07L330.107 0.5L330.108 1C330.222 0.999924 330.335 1.0222 330.44 1.06549L330.63 0.603063ZM330.107 0.5V2.98023e-07H325.66V0.5V1H330.107V0.5ZM325.66 0.5V2.98023e-07C325.166 2.98023e-07 324.692 0.19498 324.342 0.542983L324.695 0.897564L325.047 1.25215C325.209 1.09104 325.43 1 325.66 1V0.5ZM324.695 0.897564L324.342 0.542983C323.992 0.891063 323.795 1.3638 323.795 1.85737H324.295H324.795C324.795 1.63095 324.885 1.41318 325.047 1.25215L324.695 0.897564ZM324.295 1.85737H323.795V12.9754H324.295H324.795V1.85737H324.295ZM324.295 12.9754V12.4754H318.484V12.9754V13.4754H324.295V12.9754ZM318.484 12.9754L318.485 12.4754C318.24 12.4751 317.998 12.5228 317.771 12.6158L317.961 13.0783L318.151 13.5408C318.256 13.4975 318.37 13.4753 318.484 13.4754L318.484 12.9754ZM317.961 13.0783L317.771 12.6158C317.545 12.7089 317.339 12.8455 317.165 13.018L317.517 13.3727L317.87 13.7274C317.95 13.6475 318.046 13.5841 318.151 13.5408L317.961 13.0783ZM317.517 13.3727L317.165 13.018C316.991 13.1905 316.854 13.3955 316.759 13.6213L317.221 13.8136L317.683 14.0058C317.726 13.9018 317.789 13.8072 317.87 13.7274L317.517 13.3727ZM317.221 13.8136L316.759 13.6213C316.665 13.8472 316.617 14.0893 316.617 14.334L317.117 14.3337L317.617 14.3334C317.617 14.2211 317.639 14.1098 317.683 14.0058L317.221 13.8136ZM317.117 14.3337H316.617V18.3849H317.117H317.617V14.3337H317.117ZM317.117 18.3849L316.617 18.3846C316.617 18.6293 316.665 18.8715 316.759 19.0973L317.221 18.9052L317.683 18.713C317.639 18.6089 317.617 18.4975 317.617 18.3852L317.117 18.3849ZM317.221 18.9052L316.759 19.0973C316.853 19.3232 316.991 19.5283 317.165 19.7008L317.517 19.3463L317.87 18.9917C317.79 18.9118 317.726 18.8171 317.683 18.713L317.221 18.9052ZM317.517 19.3463L317.165 19.7008C317.338 19.8734 317.544 20.0101 317.771 20.1033L317.961 19.6409L318.151 19.1785C318.046 19.1351 317.95 19.0716 317.87 18.9917L317.517 19.3463ZM317.961 19.6409L317.771 20.1033C317.997 20.1964 318.24 20.2443 318.485 20.2441L318.484 19.7441L318.484 19.2441C318.37 19.2442 318.257 19.2218 318.151 19.1785L317.961 19.6409ZM318.484 19.7441V20.2441H324.295V19.7441V19.2441H318.484V19.7441ZM324.295 19.7441H323.795V34.7452H324.295H324.795V19.7441H324.295ZM324.295 34.7452V35.2452H324.321V34.7452V34.2452H324.295V34.7452ZM324.321 34.7452H323.821V37.7245H324.321H324.821V34.7452H324.321ZM324.321 37.7245L323.821 37.725C323.825 41.1495 325.188 44.4336 327.612 46.8648L327.966 46.5118L328.32 46.1588C326.082 43.9141 324.825 40.8831 324.821 37.7239L324.321 37.7245ZM327.966 46.5118L327.612 46.8648C330.035 49.296 333.325 50.6783 336.767 50.7126L336.772 50.2126L336.777 49.7126C333.597 49.6809 330.558 48.4036 328.32 46.1588L327.966 46.5118ZM336.772 50.2126V50.7126H341.688V50.2126V49.7126H336.772V50.2126ZM341.688 50.2126L341.688 50.7126C341.932 50.7128 342.175 50.665 342.401 50.572L342.211 50.1095L342.021 49.6471C341.915 49.6904 341.802 49.7127 341.688 49.7126L341.688 50.2126ZM342.211 50.1095L342.401 50.572C342.627 50.479 342.833 50.3424 343.006 50.1701L342.654 49.8154L342.302 49.4607C342.221 49.5404 342.126 49.6038 342.021 49.6471L342.211 50.1095ZM342.654 49.8154L343.006 50.1701C343.18 49.9977 343.318 49.7928 343.412 49.5673L342.95 49.3749L342.489 49.1825C342.445 49.2864 342.382 49.381 342.302 49.4607L342.654 49.8154ZM342.95 49.3749L343.412 49.5673C343.506 49.3417 343.554 49.0997 343.554 48.8552H343.054H342.554C342.554 48.9674 342.532 49.0786 342.489 49.1825L342.95 49.3749ZM343.054 48.8552H343.554V44.4304H343.054H342.554V48.8552H343.054ZM343.054 44.4304L343.554 44.43C343.554 43.9365 343.356 43.4638 343.006 43.1158L342.654 43.4705L342.301 43.8252C342.463 43.9863 342.554 44.2041 342.554 44.4307L343.054 44.4304ZM342.654 43.4705L343.006 43.1158C342.656 42.7679 342.182 42.573 341.688 42.573V43.073V43.573C341.919 43.573 342.139 43.6641 342.301 43.8252L342.654 43.4705ZM341.688 43.073V42.573H336.772V43.073V43.573H341.688V43.073ZM336.772 43.073L336.783 42.5731C335.505 42.5455 334.29 42.022 333.396 41.1155L333.04 41.4664L332.684 41.8174C333.761 42.9099 335.224 43.5397 336.761 43.5729L336.772 43.073ZM333.04 41.4664L333.396 41.1155C332.503 40.209 332.002 38.9916 332.001 37.7238L331.501 37.7245L331.001 37.7251C331.003 39.256 331.607 40.7248 332.684 41.8174L333.04 41.4664ZM331.501 37.7245H332.001V24.0262H331.501H331.001V37.7245H331.501ZM331.501 24.0262V23.5262H331.471V24.0262V24.5262H331.501V24.0262ZM331.471 24.0262H331.971V19.7441H331.471H330.971V24.0262H331.471ZM331.471 19.7441V20.2441H342.128V19.7441V19.2441H331.471V19.7441ZM342.128 19.7441V20.2441C342.623 20.2441 343.099 20.0484 343.45 19.6992L343.098 19.3447L342.745 18.9901C342.582 19.1524 342.36 19.2441 342.128 19.2441V19.7441ZM343.098 19.3447L343.45 19.6992C343.802 19.3499 344 18.8756 344 18.3804H343.5H343C343 18.6085 342.908 18.8279 342.745 18.9901L343.098 19.3447Z" fill="white" mask="url(#path-10-outside-4_1_121)"/>
<path d="M251.201 12.5234C261.736 12.5236 270.237 21.026 270.237 31.5605C270.237 42.003 261.736 50.5965 251.201 50.5967C240.666 50.5967 232.164 42.0031 232.164 31.5605C232.164 21.0259 240.667 12.5234 251.201 12.5234ZM251.201 20.0459C244.864 20.0459 239.687 25.2235 239.687 31.5605C239.687 37.8949 244.862 42.9834 251.201 42.9834C257.541 42.9833 262.716 37.8948 262.716 31.5605C262.716 25.2236 257.538 20.046 251.201 20.0459Z" fill="white" stroke="white" stroke-width="0.5"/>
</svg>
