<svg width="1308" height="628" viewBox="0 0 1308 628" fill="none" xmlns="http://www.w3.org/2000/svg">
<foreignObject x="0" y="0" width="1307.81" height="627.683"><div xmlns="http://www.w3.org/1999/xhtml" style="backdrop-filter:blur(34.43px);clip-path:url(#bgblur_0_537_250_clip_path);height:100%;width:100%"></div></foreignObject><g filter="url(#filter0_f_537_250)" data-figma-bg-blur-radius="68.8657" style="mix-blend-mode:screen">
<path d="M591.046 513.179C520.518 276.477 -282.74 680.161 345.645 268.334C413.986 160.132 603.135 71.2369 853.874 121.345C1104.61 171.453 1252.48 299.789 1184.13 407.991C1079.76 343.612 841.784 563.287 591.046 513.179Z" fill="url(#paint0_radial_537_250)"/>
</g>
<defs>
<filter id="filter0_f_537_250" x="0" y="0" width="1307.81" height="627.683" filterUnits="userSpaceOnUse" color-interpolation-filters="sRGB">
<feFlood flood-opacity="0" result="BackgroundImageFix"/>
<feBlend mode="normal" in="SourceGraphic" in2="BackgroundImageFix" result="shape"/>
<feGaussianBlur stdDeviation="53.5" result="effect1_foregroundBlur_537_250"/>
</filter>
<clipPath id="bgblur_0_537_250_clip_path" transform="translate(0 0)"><path d="M591.046 513.179C520.518 276.477 -282.74 680.161 345.645 268.334C413.986 160.132 603.135 71.2369 853.874 121.345C1104.61 171.453 1252.48 299.789 1184.13 407.991C1079.76 343.612 841.784 563.287 591.046 513.179Z"/>
</clipPath><radialGradient id="paint0_radial_537_250" cx="0" cy="0" r="1" gradientTransform="matrix(-431.478 -86.2278 126.826 -200.8 704.304 335.936)" gradientUnits="userSpaceOnUse">
<stop stop-color="#3A1D95"/>
<stop offset="1" stop-color="#3A1D95" stop-opacity="0"/>
</radialGradient>
</defs>
</svg>
