<svg width="317" height="409" viewBox="0 0 317 409" fill="none" xmlns="http://www.w3.org/2000/svg">
<g clip-path="url(#clip0_1_32)">
<path d="M152.579 122.121C151.702 120.66 151.117 119.018 150.966 117.224C150.734 114.474 151.54 112.308 152.75 109.961C153.99 107.563 155.271 104.46 155.412 101.649C155.583 98.204 153.89 95.9976 152.599 93.207C153.708 95.5846 154.414 98.7681 153.718 101.418C153.355 102.798 153.002 103.997 152.347 105.256C151.178 107.503 149.554 109.376 148.425 111.643C147.558 113.406 146.943 114.998 146.741 117.003C146.55 118.816 147.094 120.761 147.971 122.322" stroke="white" stroke-width="1.36" stroke-linecap="round" stroke-linejoin="round"/>
<path d="M149.737 155.99C150.514 157.37 151.028 158.901 151.169 160.563C151.391 163.314 150.594 165.48 149.385 167.827C148.145 170.225 146.864 173.328 146.723 176.138C146.552 179.584 148.245 181.79 149.536 184.581C148.427 182.203 147.721 179.02 148.417 176.37C148.78 174.99 149.133 173.791 149.788 172.532C150.957 170.285 152.581 168.411 153.71 166.145C154.577 164.382 155.192 162.79 155.393 160.785C155.575 159.082 155.101 157.269 154.315 155.758" stroke="white" stroke-width="1.36" stroke-linecap="round" stroke-linejoin="round"/>
<path d="M168.014 140.316C169.435 139.49 171.018 138.945 172.742 138.804C175.495 138.573 177.662 139.379 180.011 140.588C182.411 141.827 185.516 143.106 188.329 143.247C191.777 143.419 193.985 141.726 196.778 140.436C194.398 141.545 191.212 142.25 188.561 141.555C187.18 141.192 185.98 140.839 184.72 140.185C182.471 139.016 180.596 137.394 178.328 136.266C176.563 135.399 174.97 134.785 172.964 134.583C171.19 134.402 169.314 134.916 167.762 135.742" stroke="white" stroke-width="1.36" stroke-linecap="round" stroke-linejoin="round"/>
<path d="M134.129 137.473C132.708 138.299 131.115 138.853 129.391 138.994C126.638 139.226 124.471 138.42 122.122 137.211C119.722 135.972 116.617 134.692 113.804 134.551C110.356 134.38 108.148 136.072 105.355 137.362C107.735 136.254 110.921 135.548 113.572 136.244C114.953 136.606 116.153 136.959 117.413 137.614C119.662 138.782 121.537 140.404 123.805 141.533C125.57 142.399 127.163 143.014 129.169 143.215C130.923 143.396 132.788 142.893 134.321 142.077" stroke="white" stroke-width="1.36" stroke-linecap="round" stroke-linejoin="round"/>
<path d="M164.024 128.042C164.437 126.41 165.183 124.859 166.323 123.509C168.107 121.403 170.204 120.436 172.715 119.63C175.285 118.804 178.391 117.525 180.478 115.631C183.038 113.324 183.401 110.563 184.46 107.672C183.553 110.14 181.808 112.89 179.439 114.271C178.209 114.996 177.11 115.59 175.749 116.024C173.33 116.779 170.859 116.961 168.46 117.777C166.605 118.411 165.042 119.106 163.469 120.376C162.058 121.514 161.08 123.257 160.586 124.97" stroke="white" stroke-width="1.36" stroke-linecap="round" stroke-linejoin="round"/>
<path d="M138.04 149.984C137.616 151.526 136.89 152.997 135.801 154.276C134.017 156.382 131.92 157.349 129.41 158.155C126.839 158.981 123.733 160.26 121.646 162.154C119.086 164.461 118.723 167.222 117.664 170.113C118.571 167.645 120.316 164.895 122.685 163.514C123.915 162.789 125.014 162.195 126.375 161.761C128.795 161.006 131.265 160.824 133.664 160.008C135.519 159.374 137.082 158.679 138.655 157.409C139.996 156.321 140.943 154.699 141.457 153.067" stroke="white" stroke-width="1.36" stroke-linecap="round" stroke-linejoin="round"/>
<path d="M162.18 151.91C163.722 152.333 165.184 153.058 166.465 154.146C168.572 155.929 169.54 158.025 170.346 160.533C171.173 163.102 172.453 166.205 174.349 168.291C176.657 170.85 179.42 171.212 182.313 172.27C179.843 171.363 177.091 169.621 175.71 167.253C174.984 166.024 174.389 164.926 173.955 163.566C173.199 161.148 173.018 158.68 172.201 156.282C171.576 154.418 170.87 152.867 169.6 151.295C168.501 149.945 166.858 148.988 165.214 148.484" stroke="white" stroke-width="1.36" stroke-linecap="round" stroke-linejoin="round"/>
<path d="M140.22 125.947C138.587 125.534 137.024 124.788 135.673 123.64C133.566 121.856 132.598 119.761 131.792 117.252C130.965 114.683 129.684 111.58 127.789 109.495C125.48 106.936 122.718 106.573 119.824 105.516C122.294 106.422 125.047 108.165 126.428 110.533C127.144 111.762 127.749 112.86 128.182 114.22C128.938 116.638 129.12 119.106 129.936 121.504C130.572 123.368 131.267 124.919 132.538 126.491C133.667 127.891 135.401 128.868 137.105 129.362" stroke="white" stroke-width="1.36" stroke-linecap="round" stroke-linejoin="round"/>
<path d="M166.312 146.573C167.916 146.351 169.569 146.442 171.192 146.956C173.834 147.782 175.537 149.333 177.251 151.338C179.006 153.383 181.405 155.741 183.956 156.929C187.081 158.38 189.763 157.645 192.838 157.494C190.217 157.625 187.001 157.091 184.803 155.448C183.653 154.592 182.676 153.816 181.758 152.738C180.115 150.804 178.996 148.598 177.312 146.714C176.011 145.243 174.751 144.085 172.977 143.138C171.424 142.311 169.508 142.08 167.774 142.261" stroke="white" stroke-width="1.36" stroke-linecap="round" stroke-linejoin="round"/>
<path d="M135.974 131.197C134.321 131.449 132.617 131.369 130.933 130.835C128.292 130.009 126.588 128.457 124.874 126.452C123.12 124.407 120.72 122.05 118.16 120.861C115.034 119.41 112.352 120.146 109.277 120.297C111.899 120.166 115.115 120.7 117.313 122.342C118.462 123.198 119.44 123.974 120.357 125.052C122.001 126.986 123.12 129.193 124.804 131.087C126.104 132.557 127.364 133.716 129.139 134.663C130.712 135.499 132.647 135.731 134.391 135.539" stroke="white" stroke-width="1.36" stroke-linecap="round" stroke-linejoin="round"/>
<path d="M167.137 133.492C168.115 132.142 169.365 130.994 170.908 130.158C173.338 128.848 175.646 128.727 178.278 128.899C180.97 129.08 184.327 129.019 186.968 128.022C190.195 126.813 191.546 124.375 193.592 122.078C191.848 124.043 189.217 125.957 186.505 126.38C185.093 126.602 183.853 126.753 182.431 126.652C179.901 126.471 177.542 125.735 175.011 125.604C173.045 125.514 171.341 125.594 169.416 126.199C167.702 126.743 166.159 127.982 165.07 129.382" stroke="white" stroke-width="1.36" stroke-linecap="round" stroke-linejoin="round"/>
<path d="M134.916 144.395C133.948 145.694 132.728 146.812 131.216 147.618C128.786 148.928 126.477 149.049 123.846 148.878C121.154 148.696 117.797 148.757 115.155 149.754C111.929 150.963 110.578 153.401 108.531 155.698C110.275 153.734 112.907 151.819 115.619 151.396C117.03 151.175 118.27 151.024 119.692 151.124C122.223 151.306 124.582 152.041 127.112 152.172C129.078 152.263 130.782 152.182 132.708 151.578C134.361 151.054 135.853 149.875 136.932 148.535" stroke="white" stroke-width="1.36" stroke-linecap="round" stroke-linejoin="round"/>
<path d="M160.455 153.23C161.755 154.329 162.895 155.83 163.379 157.482C163.943 159.416 163.994 161.129 163.863 163.083C163.691 165.612 162.895 167.959 162.663 170.478C162.532 171.888 162.663 173.138 162.854 174.548C163.217 177.268 165.093 179.938 167.018 181.721C164.76 179.636 162.35 178.235 161.211 174.981C160.273 172.322 160.284 168.967 160.515 166.277C160.737 163.647 160.657 161.34 159.406 158.882C158.65 157.401 157.592 156.182 156.352 155.195" stroke="white" stroke-width="1.36" stroke-linecap="round" stroke-linejoin="round"/>
<path d="M141.892 124.741C140.501 123.622 139.261 122.041 138.757 120.298C138.192 118.363 138.142 116.651 138.273 114.696C138.444 112.168 139.241 109.82 139.473 107.302C139.604 105.891 139.473 104.642 139.281 103.232C138.918 100.511 137.043 97.8418 135.117 96.0586C137.376 98.144 139.785 99.5444 140.924 102.798C141.862 105.458 141.852 108.813 141.62 111.503C141.398 114.132 141.479 116.439 142.729 118.897C143.546 120.489 144.705 121.779 146.066 122.796" stroke="white" stroke-width="1.36" stroke-linecap="round" stroke-linejoin="round"/>
<path d="M143.446 154.238C143.647 155.81 143.556 157.432 143.062 159.034C142.246 161.673 140.693 163.376 138.697 165.099C136.65 166.862 134.301 169.259 133.122 171.818C131.67 174.941 132.416 177.621 132.577 180.694C132.446 178.074 132.97 174.861 134.604 172.654C135.461 171.506 136.227 170.529 137.306 169.602C139.231 167.95 141.439 166.821 143.325 165.139C144.786 163.829 145.946 162.58 146.894 160.797C147.7 159.286 147.932 157.422 147.771 155.729" stroke="white" stroke-width="1.36" stroke-linecap="round" stroke-linejoin="round"/>
<path d="M158.74 123.882C158.468 122.199 158.538 120.466 159.073 118.754C159.889 116.114 161.442 114.412 163.438 112.689C165.485 110.926 167.834 108.528 169.014 105.969C170.465 102.846 169.719 100.156 169.558 97.0938C169.689 99.7131 169.165 102.927 167.531 105.133C166.674 106.282 165.908 107.259 164.829 108.186C162.904 109.838 160.696 110.966 158.811 112.649C157.349 113.958 156.189 115.208 155.242 116.991C154.385 118.603 154.163 120.597 154.395 122.371" stroke="white" stroke-width="1.36" stroke-linecap="round" stroke-linejoin="round"/>
<path d="M134.128 137.477C134.077 138 134.047 138.524 134.047 139.058C134.047 140.096 134.158 141.093 134.329 142.081" stroke="white" stroke-width="1.36" stroke-linecap="round" stroke-linejoin="round"/>
<path d="M136.942 148.535C136.085 147.266 135.41 145.875 134.926 144.395" stroke="white" stroke-width="1.36" stroke-linecap="round" stroke-linejoin="round"/>
<path d="M134.332 142.07C134.473 142.866 134.665 143.642 134.917 144.398" stroke="white" stroke-width="1.36" stroke-linecap="round" stroke-linejoin="round"/>
<path d="M141.448 153.067C140.178 152.201 139.039 151.153 138.051 149.984" stroke="white" stroke-width="1.36" stroke-linecap="round" stroke-linejoin="round"/>
<path d="M138.043 149.984C137.649 149.521 137.276 149.037 136.934 148.523" stroke="white" stroke-width="1.36" stroke-linecap="round" stroke-linejoin="round"/>
<path d="M140.219 125.947C140.753 125.504 141.308 125.111 141.892 124.738" stroke="white" stroke-width="1.36" stroke-linecap="round" stroke-linejoin="round"/>
<path d="M135.977 131.195C136.309 130.55 136.682 129.936 137.096 129.352" stroke="white" stroke-width="1.36" stroke-linecap="round" stroke-linejoin="round"/>
<path d="M140.217 125.949C139.027 126.937 137.979 128.085 137.102 129.354" stroke="white" stroke-width="1.36" stroke-linecap="round" stroke-linejoin="round"/>
<path d="M143.445 154.239C142.75 153.896 142.084 153.514 141.449 153.07" stroke="white" stroke-width="1.36" stroke-linecap="round" stroke-linejoin="round"/>
<path d="M134.129 137.475C134.189 136.82 134.28 136.185 134.411 135.551" stroke="white" stroke-width="1.36" stroke-linecap="round" stroke-linejoin="round"/>
<path d="M160.603 124.972C160.009 124.57 159.384 124.217 158.738 123.895" stroke="white" stroke-width="1.36" stroke-linecap="round" stroke-linejoin="round"/>
<path d="M165.214 148.496C164.357 149.765 163.339 150.914 162.18 151.911" stroke="white" stroke-width="1.36" stroke-linecap="round" stroke-linejoin="round"/>
<path d="M167.774 142.242C167.482 143.774 166.988 145.214 166.312 146.574" stroke="white" stroke-width="1.36" stroke-linecap="round" stroke-linejoin="round"/>
<path d="M162.177 151.91C161.633 152.384 161.058 152.827 160.453 153.23" stroke="white" stroke-width="1.36" stroke-linecap="round" stroke-linejoin="round"/>
<path d="M167.137 133.496C166.633 132.036 165.937 130.655 165.07 129.406" stroke="white" stroke-width="1.36" stroke-linecap="round" stroke-linejoin="round"/>
<path d="M166.31 146.57C165.977 147.235 165.624 147.88 165.211 148.495" stroke="white" stroke-width="1.36" stroke-linecap="round" stroke-linejoin="round"/>
<path d="M135.977 131.195C135.271 132.545 134.737 134.006 134.414 135.547" stroke="white" stroke-width="1.36" stroke-linecap="round" stroke-linejoin="round"/>
<path d="M152.578 122.121C153.183 122.171 153.788 122.252 154.383 122.373" stroke="white" stroke-width="1.36" stroke-linecap="round" stroke-linejoin="round"/>
<path d="M149.734 155.992C150.178 156.022 150.611 156.062 151.065 156.062C152.174 156.062 153.253 155.951 154.312 155.75" stroke="white" stroke-width="1.36" stroke-linecap="round" stroke-linejoin="round"/>
<path d="M164.023 128.045C163.025 126.877 161.876 125.839 160.605 124.973" stroke="white" stroke-width="1.36" stroke-linecap="round" stroke-linejoin="round"/>
<path d="M160.453 153.23C159.193 154.067 157.812 154.732 156.34 155.215" stroke="white" stroke-width="1.36" stroke-linecap="round" stroke-linejoin="round"/>
<path d="M164.023 128.047C164.396 128.48 164.749 128.933 165.072 129.407" stroke="white" stroke-width="1.36" stroke-linecap="round" stroke-linejoin="round"/>
<path d="M146.066 122.797C146.681 122.606 147.317 122.465 147.962 122.344" stroke="white" stroke-width="1.36" stroke-linecap="round" stroke-linejoin="round"/>
<path d="M149.737 155.99C149.072 155.94 148.416 155.859 147.781 155.738" stroke="white" stroke-width="1.36" stroke-linecap="round" stroke-linejoin="round"/>
<path d="M141.891 124.74C143.181 123.913 144.572 123.249 146.075 122.785" stroke="white" stroke-width="1.36" stroke-linecap="round" stroke-linejoin="round"/>
<path d="M152.58 122.12C152.076 122.079 151.572 122.039 151.068 122.039C150.009 122.039 148.981 122.15 147.973 122.331" stroke="white" stroke-width="1.36" stroke-linecap="round" stroke-linejoin="round"/>
<path d="M147.781 155.729C146.248 155.427 144.796 154.913 143.445 154.238" stroke="white" stroke-width="1.36" stroke-linecap="round" stroke-linejoin="round"/>
<path d="M154.305 155.739C155 155.608 155.676 155.426 156.341 155.215" stroke="white" stroke-width="1.36" stroke-linecap="round" stroke-linejoin="round"/>
<path d="M168.014 140.316C168.045 139.903 168.075 139.48 168.075 139.057C168.075 137.918 167.954 136.82 167.742 135.742" stroke="white" stroke-width="1.36" stroke-linecap="round" stroke-linejoin="round"/>
<path d="M167.773 142.237C167.894 141.602 167.975 140.967 168.015 140.312" stroke="white" stroke-width="1.36" stroke-linecap="round" stroke-linejoin="round"/>
<path d="M154.383 122.375C155.925 122.677 157.377 123.201 158.738 123.886" stroke="white" stroke-width="1.36" stroke-linecap="round" stroke-linejoin="round"/>
<path d="M167.752 135.739C167.6 134.973 167.389 134.228 167.137 133.492" stroke="white" stroke-width="1.36" stroke-linecap="round" stroke-linejoin="round"/>
<path d="M239.336 157.636C221.309 139.814 199.401 121.337 174.862 103.828C98.4405 49.2851 25.6387 24.7639 12.26 49.0635C4.59769 62.9763 17.0187 82.5005 24.4188 93.7335C48.8575 130.848 84.9005 167.952 123.535 190.327" stroke="white" stroke-width="1.2" stroke-linecap="round" stroke-linejoin="round"/>
<path d="M256.029 175.203C270.084 191.04 290.127 213.345 291.104 235.892C292.304 263.717 247.46 250.056 232.841 243.991C221.69 239.367 209.35 233.766 201.062 226.643" stroke="white" stroke-width="1.2" stroke-linecap="round" stroke-linejoin="round"/>
<path d="M105.246 233.827C125.602 220.136 148.78 202.808 172.694 183.082C203.525 157.634 230.202 132.639 249.267 111.977" stroke="white" stroke-width="1.8" stroke-linecap="round" stroke-linejoin="round"/>
<path d="M187.688 109.156C235.032 74.7917 272.507 55.3682 279.111 63.3572C283.063 68.1325 275.259 81.9143 259.239 100.743" stroke="white" stroke-width="1.8" stroke-linecap="round" stroke-linejoin="round"/>
<path d="M83.1052 247.949C57.4869 263.293 39.3394 270.173 34.9336 264.844" stroke="white" stroke-width="1.2" stroke-linecap="round" stroke-linejoin="round"/>
<path d="M105.245 233.828C107.544 239.198 106.163 245.635 101.384 249.474C95.8289 253.937 87.8137 253.191 83.1055 247.963" stroke="white" stroke-width="1.2" stroke-linecap="round" stroke-linejoin="round"/>
<path d="M105.245 233.827C104.771 232.729 104.207 231.661 103.42 230.684C98.7929 224.932 90.3744 224.015 84.6176 228.639C78.8608 233.263 77.9434 241.675 82.571 247.428C82.7323 247.629 82.9239 247.77 83.0953 247.962" stroke="white" stroke-width="1.2" stroke-linecap="round" stroke-linejoin="round"/>
<path d="M249.277 111.965C251.979 114.171 255.942 114.282 258.764 112.005C262.011 109.406 262.525 104.661 259.914 101.427C259.712 101.175 259.47 100.964 259.238 100.742" stroke="white" stroke-width="1.8" stroke-linecap="round" stroke-linejoin="round"/>
<path d="M259.236 100.743C256.544 98.1534 252.31 97.8713 249.315 100.269C246.069 102.878 245.555 107.613 248.166 110.847C248.499 111.26 248.872 111.633 249.265 111.955" stroke="white" stroke-width="1.8" stroke-linecap="round" stroke-linejoin="round"/>
<path d="M80.0412 50.1966L95.2145 46.9124L80.0412 44.5953C78.0651 44.3938 76.5024 42.8322 76.3008 40.8576L74.0223 18.4219L70.6952 40.8576C70.4936 42.8322 68.9309 44.3938 66.9548 44.5953L48.1016 47.3254L66.9548 50.1866C68.9309 50.388 70.4936 51.9496 70.6952 53.9242L73.5383 74.9394L76.2907 53.9242C76.4923 51.9496 78.055 50.388 80.0311 50.1866L80.0412 50.1966Z" fill="white"/>
<path d="M149.02 277.991L157.499 276.158L149.02 274.868C147.911 274.757 147.044 273.881 146.933 272.783L145.663 260.25L143.808 272.783C143.697 273.891 142.82 274.757 141.721 274.868L131.195 276.399L141.721 278.001C142.83 278.112 143.697 278.988 143.808 280.087L145.401 291.823L146.943 280.087C147.054 278.978 147.931 278.112 149.03 278.001L149.02 277.991Z" fill="white"/>
<path d="M303.042 135.54L316.925 132.537L303.042 130.422C301.238 130.241 299.806 128.81 299.614 126.997L297.528 106.465L294.483 126.997C294.301 128.8 292.87 130.23 291.055 130.422L273.805 132.92L291.055 135.54C292.86 135.721 294.291 137.152 294.483 138.965L297.084 158.197L299.604 138.965C299.786 137.162 301.218 135.731 303.032 135.54H303.042Z" fill="white"/>
<path d="M36.1438 191.13L59.0198 188.622L38.3518 187.372L54.0897 168.634L33.9762 186.445L31.9195 152.414L29.9636 184.834L15.1129 173.107L26.7575 187.141L0 189.025L28.6832 191.432L9.18466 214.06L30.1753 195.996L32.8168 217.011L34.077 194.616L50.0367 209.304L36.1438 191.13Z" fill="white"/>
<path d="M289.622 218.822L302.083 217.452L290.822 216.777L299.402 206.562L288.442 216.274L287.323 197.727L286.255 215.387L278.159 209L284.5 216.646L269.922 217.674L285.549 218.984L274.923 231.315L286.355 221.472L287.797 232.927L288.483 220.726L297.183 228.726L289.612 218.822H289.622Z" fill="white"/>
<path d="M204.682 21.9201L217.154 20.55L205.892 19.875L214.472 9.6595L203.513 19.3712L202.394 0.824219L201.325 18.4847L193.229 12.0975L199.571 19.744L184.992 20.7716L200.619 22.0813L189.993 34.4124L201.426 24.5697L202.867 36.0243L203.553 23.8241L212.254 31.8232L204.682 21.9201Z" fill="white"/>
<path d="M109.34 125.546C93.6325 130.15 78.4188 136.084 64.294 144.597C50.5826 152.868 27.9788 167.617 33.5441 186.749C39.8251 208.328 70.0306 212.872 89.1259 213.627C127.336 215.128 166.172 210.786 203.244 201.538C226.674 195.685 249.55 187.474 268.887 172.634C284.665 160.515 300.776 141.202 293.658 119.955C288.517 104.612 271.256 94.7086 257.071 89.1676C228.721 78.0858 197.829 76.0709 167.705 77.7533C152.602 78.5996 137.65 80.5339 122.648 82.4379C108.735 84.2009 96.1832 88.6035 83.1271 93.6407" stroke="white" stroke-width="1.2" stroke-linecap="round" stroke-linejoin="round"/>
<path d="M85.5577 156.082C78.7826 158.308 67.8336 161.552 73.0964 170.035C76.3428 175.263 83.2993 177.5 89.0763 178.749C115.219 184.401 144.124 180.794 170.528 177.903C192.225 175.525 224.366 170.73 238.531 152.374C254.693 131.44 209.989 124.841 193.515 123.007C192.174 122.856 191.025 122.745 190.108 122.645" stroke="white" stroke-width="1.32" stroke-linecap="round" stroke-linejoin="round"/>
<path d="M209.514 76.3099C209.514 83.3318 203.818 89.034 196.78 89.034C189.743 89.034 184.047 83.3419 184.047 76.3099C184.047 69.278 189.743 63.5859 196.78 63.5859C203.818 63.5859 209.514 69.278 209.514 76.3099Z" fill="white"/>
<path d="M202.175 203.126C202.175 206.108 199.755 208.526 196.771 208.526C193.787 208.526 191.367 206.108 191.367 203.126C191.367 200.144 193.787 197.727 196.771 197.727C199.755 197.727 202.175 200.144 202.175 203.126Z" fill="white"/>
<path d="M257.802 174.387C262.826 169.367 262.826 161.227 257.802 156.207C252.778 151.187 244.632 151.187 239.608 156.207C234.584 161.227 234.584 169.367 239.608 174.387C244.632 179.407 252.778 179.407 257.802 174.387Z" stroke="white" stroke-width="1.2" stroke-linecap="round" stroke-linejoin="round"/>
<path d="M115.459 84.1595C115.459 86.7587 113.352 88.8542 110.761 88.8542C108.17 88.8542 106.062 86.7487 106.062 84.1595C106.062 81.5704 108.17 79.4648 110.761 79.4648C113.352 79.4648 115.459 81.5704 115.459 84.1595Z" fill="white"/>
<path d="M176.214 250.297C176.214 251.596 175.165 252.644 173.865 252.644C172.564 252.644 171.516 251.596 171.516 250.297C171.516 248.997 172.564 247.949 173.865 247.949C175.165 247.949 176.214 248.997 176.214 250.297Z" fill="white"/>
<path d="M28.2294 142.73C28.2294 144.03 27.1809 145.078 25.8803 145.078C24.5798 145.078 23.5312 144.03 23.5312 142.73C23.5312 141.431 24.5798 140.383 25.8803 140.383C27.1809 140.383 28.2294 141.431 28.2294 142.73Z" fill="white"/>
<path d="M231.37 37.3317C231.37 38.6313 230.322 39.6791 229.021 39.6791C227.72 39.6791 226.672 38.6313 226.672 37.3317C226.672 36.0321 227.72 34.9844 229.021 34.9844C230.322 34.9844 231.37 36.0321 231.37 37.3317Z" fill="white"/>
<path d="M158.257 10.2223C158.257 11.5219 157.208 12.5697 155.908 12.5697C154.607 12.5697 153.559 11.5219 153.559 10.2223C153.559 8.92274 154.607 7.875 155.908 7.875C157.208 7.875 158.257 8.92274 158.257 10.2223Z" fill="white"/>
</g>
<defs>
<clipPath id="clip0_1_32">
<rect width="316.926" height="408.374" fill="white"/>
</clipPath>
</defs>
</svg>
