<svg width="19" height="25" viewBox="0 0 19 25" fill="none" xmlns="http://www.w3.org/2000/svg">
<path d="M0.000149493 23.2323C0.000149493 24.208 0.810688 24.9987 1.81091 25H17.1892C18.1895 24.9987 19 24.208 19 23.2323V20.5489C19.0014 19.0035 18.607 17.4821 17.851 16.1245H17.8497L17.7419 15.9409C16.8181 14.3808 15.4521 13.1123 13.8064 12.2924C13.7873 12.2831 13.7682 12.2724 13.7491 12.2618C13.5157 12.1473 13.2783 12.0422 13.0354 11.9476L12.3722 11.6881L12.9699 11.3034C13.9333 10.6845 14.7056 9.81925 15.2009 8.80234C15.6976 7.78539 15.8982 6.65532 15.7822 5.53458C15.7618 5.33891 15.7318 5.14458 15.6922 4.95158C15.6826 4.90765 15.6703 4.86506 15.6608 4.82114C15.6253 4.6654 15.5857 4.51099 15.538 4.35924C15.5271 4.32597 15.5162 4.29402 15.5052 4.26207C15.4466 4.08637 15.3811 3.91202 15.3047 3.74031L15.3006 3.72966H15.2992C15.2132 3.53799 15.1177 3.3503 15.0126 3.16796L14.8953 2.96564L14.8966 2.96431C13.8869 1.33908 12.1648 0.259571 10.2286 0.0399544C9.98437 0.013333 9.7374 2.12929e-05 9.49176 2.12929e-05C7.94026 -0.00397167 6.44334 0.553747 5.29182 1.56804C3.83039 2.84188 3.05807 4.70536 3.20269 6.6129C3.34733 8.52034 4.39256 10.2535 6.03141 11.3037L6.62907 11.6884L5.96592 11.948H5.96455C4.20018 12.6321 2.68827 13.8181 1.62384 15.3528C0.559484 16.8862 -0.00544484 18.6965 3.95564e-05 20.5494L0.000149493 23.2323Z" fill="black"/>
</svg>
