<svg width="50" height="50" viewBox="0 0 50 50" fill="none" xmlns="http://www.w3.org/2000/svg">
<rect width="50" height="50" rx="25" fill="white"/>
<rect width="50" height="50" rx="25" fill="white" fill-opacity="0.1"/>
<g clip-path="url(#clip0_1_653)">
<mask id="mask0_1_653" style="mask-type:luminance" maskUnits="userSpaceOnUse" x="11" y="13" width="29" height="24">
<path d="M40 13H11V37H40V13Z" fill="white"/>
</mask>
<g mask="url(#mask0_1_653)">
<path d="M32.8943 27.7019C32.7309 27.4882 32.508 27.3278 32.2538 27.2408L32.0734 27.1537C32.0558 27.1537 30.1241 26.1987 29.756 26.0648C29.5431 25.9506 29.2951 25.9209 29.0614 25.9818C28.8277 26.0427 28.6255 26.1896 28.4951 26.3932C28.3072 26.6838 27.7386 27.3419 27.4725 27.6412C27.4498 27.6678 27.4322 27.6791 27.4322 27.6817C27.373 27.6722 27.3161 27.6516 27.2645 27.621C27.2065 27.592 27.122 27.5579 27.0237 27.5137C26.1646 27.1659 25.3705 26.6752 24.6747 26.0623C23.9815 25.4288 23.3865 24.6953 22.9094 23.8859L22.8691 23.8391C22.8989 23.8035 22.9309 23.7697 22.9649 23.7381C23.0809 23.6244 23.2058 23.4741 23.3243 23.3314L23.492 23.1343C23.6322 22.9682 23.7493 22.7838 23.84 22.5861L23.8828 22.4964C23.959 22.3454 23.9965 22.1778 23.9919 22.0086C23.9873 21.8395 23.9407 21.6742 23.8564 21.5276C23.8047 21.4265 23.4592 20.5991 23.207 19.9953L22.8388 19.1111C22.5287 18.3772 22.129 18.2838 21.7583 18.2812H21.0459C20.8175 18.285 20.5923 18.3359 20.3844 18.4309C20.1766 18.5259 19.9905 18.6629 19.838 18.8332L19.7774 18.8964C19.3835 19.2838 19.0726 19.7476 18.8638 20.2596C18.655 20.7715 18.5527 21.3207 18.5632 21.8737C18.6684 23.2127 19.1732 24.489 20.012 25.5368L20.0611 25.6088C21.5289 27.7723 23.5404 29.5095 25.8927 30.645C26.5278 30.9155 27.1768 31.1521 27.8369 31.3537C28.2974 31.4971 28.777 31.5695 29.2592 31.5684C29.5501 31.568 29.8406 31.5448 30.1279 31.4989C30.6689 31.3956 31.1814 31.1775 31.6312 30.8592C32.081 30.5408 32.4575 30.1297 32.7354 29.6534C33.0064 29.0429 33.0615 28.3581 32.8918 27.712L32.8943 27.7019ZM31.9209 29.344C31.4721 30.0014 30.789 30.4616 30.0119 30.6299C29.3738 30.7362 28.7199 30.6965 28.0992 30.5137C27.4672 30.3191 26.8457 30.0923 26.2369 29.8341C24.0321 28.7631 22.1485 27.1283 20.7761 25.0947C20.7445 25.048 20.7206 25.0164 20.7042 24.9962C19.9873 24.0949 19.5456 23.0053 19.432 21.8585C19.4235 21.4156 19.5066 20.9758 19.6761 20.5667C19.8455 20.1575 20.0977 19.788 20.4167 19.4812L20.486 19.4092C20.5589 19.3263 20.6479 19.2593 20.7477 19.2124C20.8475 19.1654 20.9559 19.1396 21.0661 19.1364H21.7847C21.878 19.1364 21.9323 19.1364 22.0571 19.4269C22.1504 19.6442 22.2866 19.9663 22.4278 20.2972C22.8061 21.2092 23.0418 21.7714 23.0998 21.8876C23.1578 22.0038 23.1465 22.0354 23.1288 22.0707L23.0797 22.1642C23.0238 22.2969 22.9476 22.42 22.854 22.5292L22.6774 22.7414C22.5866 22.8596 22.4898 22.973 22.3875 23.0812C22.2082 23.2192 22.0868 23.4192 22.0472 23.6422C22.0075 23.8651 22.0524 24.0948 22.1731 24.2863C22.6978 25.175 23.3532 25.9794 24.1174 26.6724C24.8817 27.3501 25.7541 27.8946 26.6984 28.2829L26.8988 28.3701C27.0927 28.4947 27.325 28.5448 27.5528 28.5111C27.7807 28.4775 27.9886 28.3623 28.1383 28.1869C28.306 27.9987 28.9843 27.2143 29.2302 26.8518C29.2529 26.8164 29.2705 26.8 29.2731 26.7937C29.3426 26.8058 29.4106 26.8252 29.4761 26.8518C29.7371 26.9452 31.2778 27.6905 31.7128 27.9027L31.9007 27.9962C31.9902 28.0366 32.0949 28.0897 32.1529 28.1225C32.1561 28.5412 32.0764 28.9564 31.9184 29.344H31.9209Z" fill="black"/>
<path d="M29.2488 31.6907C28.7571 31.6907 28.2682 31.6162 27.7988 31.4697C27.1349 31.2669 26.4821 31.0291 25.8432 30.7573C23.4701 29.6125 21.4404 27.861 19.9587 25.6794L19.9083 25.6049C19.0562 24.5338 18.5441 23.2314 18.4381 21.8659C18.4284 21.2965 18.5342 20.731 18.7492 20.2038C18.9642 19.6766 19.2839 19.1986 19.6889 18.799L19.7469 18.7383C19.9111 18.5563 20.1109 18.41 20.3338 18.3086C20.5568 18.2071 20.7982 18.1526 21.0431 18.1484H21.758C22.1615 18.1484 22.6179 18.2621 22.9533 19.0554L23.3694 20.0571C23.6014 20.6129 23.9191 21.3746 23.9658 21.4655C24.0592 21.6287 24.1108 21.8125 24.1158 22.0006C24.1209 22.1886 24.0793 22.375 23.9948 22.543L23.9494 22.6364C23.8545 22.8437 23.7319 23.037 23.585 23.2112L23.3946 23.436C23.2811 23.5724 23.1626 23.7139 23.0491 23.8238L23.0289 23.8427C23.4987 24.6323 24.0825 25.3478 24.7614 25.9661C25.4462 26.5693 26.2281 27.0519 27.0738 27.3935L27.1608 27.4314C27.2239 27.4592 27.2793 27.4832 27.3222 27.5046H27.3298C27.3501 27.5169 27.3717 27.5271 27.3941 27.535C27.7474 27.1459 28.0807 26.7391 28.3927 26.316C28.4815 26.1669 28.6072 26.0433 28.7576 25.957C28.908 25.8707 29.078 25.8247 29.2513 25.8234C29.4386 25.8297 29.6234 25.8685 29.7973 25.9383C30.0596 26.0331 31.0758 26.5257 31.6823 26.8225L32.0984 27.0234L32.2976 27.1194C32.573 27.2158 32.8138 27.3916 32.9898 27.6246L33.0264 27.6726V27.6954C33.1813 28.3639 33.1209 29.0643 32.8536 29.6962C32.5697 30.1956 32.1803 30.6268 31.7127 30.9597C31.2451 31.2927 30.7106 31.5193 30.1465 31.6238C29.8546 31.6703 29.5595 31.6939 29.2639 31.6945L29.2488 31.6907ZM19.8276 19.0137C19.4583 19.3892 19.1678 19.8348 18.9729 20.3244C18.778 20.814 18.6828 21.3377 18.6928 21.8647C18.7976 23.1778 19.2915 24.4296 20.1113 25.4596L20.1643 25.5366C21.619 27.6798 23.6116 29.4011 25.9415 30.5274C26.5726 30.7958 27.2174 31.0307 27.8732 31.231C28.3186 31.3699 28.7823 31.4406 29.2488 31.4406H29.2589C29.5435 31.4401 29.8277 31.4173 30.1087 31.3724C30.6277 31.2708 31.1194 31.0608 31.5519 30.7561C31.9845 30.4514 32.3481 30.0589 32.6191 29.604C32.8746 29.0277 32.9331 28.383 32.7856 27.7699L32.7578 27.7244C32.6134 27.5529 32.4251 27.4241 32.2131 27.3518H32.1993L32.0202 27.2646C31.9698 27.2432 31.8588 27.1901 31.5751 27.0524C31.0128 26.7796 29.965 26.2731 29.7141 26.1821C29.5672 26.1224 29.411 26.0886 29.2526 26.0823C29.1206 26.0831 28.9911 26.1185 28.8769 26.185C28.7628 26.2515 28.668 26.3467 28.602 26.4613C28.3965 26.7771 27.7597 27.5059 27.5693 27.7244L27.558 27.7371V27.8078H27.418C27.3447 27.7961 27.2741 27.7708 27.21 27.7333C27.1722 27.7143 27.1217 27.6929 27.0637 27.6676L26.9742 27.6284C26.1045 27.276 25.3006 26.7789 24.5962 26.1581C23.8942 25.519 23.2912 24.7787 22.807 23.9615L22.7036 23.844L22.7717 23.7619C22.8047 23.7223 22.84 23.6847 22.8776 23.6495C22.9798 23.5497 23.0932 23.4133 23.2029 23.2819L23.3946 23.0558C23.5273 22.8985 23.638 22.7238 23.7237 22.5366L23.7691 22.4419C23.8364 22.3096 23.8695 22.1624 23.8656 22.014C23.8616 21.8655 23.8206 21.7204 23.7464 21.5918C23.6959 21.4945 23.4526 20.9122 23.1386 20.1607L22.7225 19.1602C22.4313 18.4693 22.0707 18.4099 21.7567 18.4023H21.0443C20.8337 18.4055 20.626 18.452 20.434 18.5389C20.2421 18.6258 20.07 18.7513 19.9285 18.9076L19.8276 19.0137ZM29.3081 30.8091C28.8872 30.8091 28.4686 30.7487 28.0649 30.6297C27.4282 30.4336 26.802 30.2051 26.1887 29.9451C23.9623 28.8654 22.0602 27.2156 20.6749 25.1627C20.6522 25.1299 20.6257 25.092 20.6093 25.0731V25.0655C19.8697 24.1467 19.4187 23.0289 19.3132 21.8533C19.3053 21.3936 19.3922 20.9373 19.5683 20.5129C19.7445 20.0884 20.0062 19.7049 20.337 19.3863L20.4026 19.3169C20.4865 19.2224 20.5889 19.146 20.7034 19.0926C20.8179 19.0392 20.942 19.0097 21.0683 19.0061H21.7908C21.9711 19.0061 22.0543 19.0844 22.1779 19.3724L22.2812 19.6162L22.5485 20.2478C22.9041 21.1017 23.1601 21.7169 23.2181 21.8318C23.2557 21.8942 23.2749 21.9661 23.2735 22.039C23.2699 22.069 23.261 22.098 23.2471 22.1249L23.2004 22.2133C23.1397 22.3569 23.0572 22.4903 22.9558 22.6087L22.7806 22.8196C22.6881 22.9395 22.5896 23.0546 22.4855 23.1644L22.4704 23.1771C22.3159 23.2959 22.2113 23.4682 22.1771 23.6603C22.1428 23.8523 22.1813 24.0503 22.285 24.2154C22.8038 25.0944 23.452 25.8899 24.2078 26.575C24.9611 27.2434 25.8213 27.7802 26.7523 28.1627L26.9717 28.26C27.1402 28.3686 27.3423 28.4123 27.5405 28.383C27.7387 28.3537 27.9196 28.2535 28.0497 28.1009C28.259 27.8659 28.9021 27.1181 29.1341 26.7771C29.1466 26.7583 29.1601 26.7402 29.1744 26.7227L29.2034 26.743L29.2854 26.7619L29.3018 26.6672C29.3799 26.6809 29.4565 26.7029 29.53 26.7329C29.8339 26.8415 31.7554 27.7775 31.7743 27.7876L31.9635 27.8811C32.0555 27.9228 32.1614 27.9758 32.2257 28.0074L32.1639 28.1148H32.29C32.29 28.1316 32.29 28.1489 32.29 28.1665V28.3308C32.2745 28.6081 32.2236 28.8823 32.1387 29.1468L32.1324 29.1644C32.1089 29.2377 32.0824 29.3101 32.053 29.3817C31.5876 30.0823 30.8672 30.5728 30.0457 30.7484C29.8023 30.7888 29.556 30.8087 29.3093 30.8078L29.3081 30.8091ZM20.801 24.9139C20.8199 24.9367 20.8413 24.9657 20.8779 25.0187C22.2363 27.0331 24.1013 28.6527 26.2845 29.7139C26.8896 29.9702 27.5074 30.1953 28.1355 30.3884C28.7374 30.565 29.3714 30.6035 29.9902 30.5009C30.7073 30.3375 31.3434 29.9249 31.7857 29.3362L31.8046 29.2908C31.9471 28.9412 32.0233 28.5681 32.029 28.1905C31.9748 28.1628 31.9029 28.1299 31.8475 28.1021L31.6558 28.0074C31.1515 27.7636 29.6775 27.0499 29.4329 26.9627C29.3975 26.9483 29.3613 26.9361 29.3245 26.9261C29.0584 27.3139 28.3586 28.1185 28.23 28.2625C28.062 28.4577 27.8298 28.5863 27.5755 28.6249C27.3211 28.6636 27.0614 28.6099 26.8431 28.4735L26.6527 28.3901C25.6962 27.9968 24.8127 27.4451 24.0389 26.7581C23.2653 26.0568 22.6018 25.2426 22.0707 24.343C21.9359 24.1267 21.8856 23.8681 21.9296 23.617C21.9736 23.3659 22.1087 23.1399 22.309 22.9825C22.4061 22.8802 22.4981 22.7716 22.5839 22.6592L22.7642 22.4432C22.8074 22.3929 22.8466 22.3392 22.8814 22.2827L23.0264 22.0086C23.0193 21.9841 23.0096 21.9604 22.9974 21.9379C22.9394 21.8204 22.7251 21.3063 22.3216 20.34C22.2258 20.1177 22.1337 19.8992 22.0543 19.7084L21.9509 19.4659C21.8702 19.2777 21.8336 19.255 21.8248 19.2537C21.8122 19.2527 21.7996 19.2527 21.787 19.2537H21.0708C20.9781 19.2566 20.887 19.2786 20.8031 19.3181C20.7192 19.3576 20.6442 19.414 20.5828 19.4836L20.5097 19.5606C20.2025 19.8558 19.9596 20.2114 19.796 20.605C19.6324 20.9986 19.5517 21.4219 19.559 21.8482C19.6631 22.9705 20.0956 24.0369 20.8022 24.9139H20.801Z" fill="black"/>
<path d="M17.1838 16.6021C15.2818 18.4476 14.0644 20.8875 13.7325 23.5193C13.4006 26.1512 13.974 28.8177 15.3581 31.0792L13.7795 36.1962C13.7568 36.272 13.755 36.3525 13.7743 36.4293C13.7936 36.506 13.8333 36.5761 13.8892 36.632C13.9441 36.6881 14.0134 36.728 14.0894 36.7474C14.1655 36.7668 14.2454 36.7649 14.3204 36.7419L19.5353 35.1781C21.835 36.5434 24.5208 37.1083 27.1743 36.7847C29.8278 36.4612 32.2999 35.2675 34.2056 33.3895C35.3218 32.2968 36.2087 30.9916 36.8143 29.5505C37.4198 28.1095 37.7318 26.5618 37.7318 24.9983C37.7318 23.4348 37.4198 21.8871 36.8143 20.4461C36.2087 19.0051 35.3218 17.6999 34.2056 16.6072C31.9317 14.3775 28.8765 13.1289 25.6947 13.1289C22.5129 13.1289 19.4577 14.3775 17.1838 16.6072V16.6021ZM33.5903 32.7579C31.7977 34.5264 29.4651 35.6419 26.9653 35.926C24.4654 36.2102 21.9427 35.6467 19.8001 34.3255C19.7323 34.2837 19.6541 34.2618 19.5744 34.2623C19.5039 34.2627 19.4344 34.2796 19.3714 34.3116L14.8525 35.6695L16.2256 31.232C16.2644 31.1651 16.2849 31.089 16.2849 31.0116C16.2849 30.9342 16.2644 30.8581 16.2256 30.7912C14.8868 28.6941 14.3121 26.1982 14.5986 23.7255C14.8851 21.2528 16.0152 18.9552 17.7979 17.2211C19.9088 15.1548 22.7428 13.998 25.6941 13.998C28.6453 13.998 31.4794 15.1548 33.5903 17.2211C34.6234 18.2328 35.4444 19.4412 36.0049 20.7752C36.5654 22.1093 36.8541 23.5421 36.8541 24.9895C36.8541 26.4369 36.5654 27.8697 36.0049 29.2037C35.4444 30.5378 34.6234 31.7462 33.5903 32.7579Z" fill="black"/>
<path d="M25.7018 13C28.9172 12.9932 32.006 14.2552 34.2996 16.5129C35.4276 17.6172 36.3239 18.9363 36.9359 20.3926C37.5478 21.8489 37.863 23.413 37.863 24.9931C37.863 26.5731 37.5478 28.1373 36.9359 29.5936C36.3239 31.0499 35.4276 32.3689 34.2996 33.4733C32.3813 35.3654 29.8938 36.5711 27.2223 36.9036C24.5508 37.2361 21.8444 36.6768 19.5222 35.3125L14.359 36.8611C14.3067 36.877 14.2523 36.8851 14.1976 36.8851C14.1103 36.8844 14.0243 36.8634 13.9465 36.8237C13.8687 36.784 13.8011 36.7268 13.7491 36.6565C13.6972 36.5861 13.6622 36.5047 13.6471 36.4186C13.6319 36.3324 13.6369 36.2439 13.6617 36.16L15.2302 31.096C13.85 28.8167 13.2816 26.136 13.6177 23.4914C13.9539 20.8468 15.1748 18.3944 17.0812 16.5343L17.1039 16.5129C19.3975 14.2552 22.4863 12.9932 25.7018 13ZM25.7131 36.7474C28.8611 36.7473 31.8827 35.5068 34.1256 33.2939C35.2299 32.2129 36.1073 30.9216 36.7064 29.496C37.3054 28.0704 37.614 26.5392 37.614 24.9925C37.614 23.4457 37.3054 21.9145 36.7064 20.4889C36.1073 19.0633 35.2299 17.772 34.1256 16.691C31.8828 14.4923 28.8718 13.2574 25.7338 13.2494C22.5958 13.2414 19.5786 14.4608 17.3245 16.648L17.2791 16.6922C15.3976 18.5181 14.1934 20.9318 13.8652 23.5353C13.537 26.1389 14.1043 28.7768 15.4736 31.0139L15.5026 31.0619L13.9013 36.2333C13.8856 36.2871 13.8846 36.344 13.8984 36.3983C13.9122 36.4526 13.9402 36.5021 13.9796 36.5418C14.019 36.5816 14.0683 36.61 14.1224 36.6242C14.1765 36.6383 14.2333 36.6377 14.2871 36.6223L19.555 35.0421L19.6017 35.0699C21.4514 36.168 23.5617 36.7478 25.7118 36.7487L25.7131 36.7474ZM25.6967 13.8842C28.682 13.8776 31.55 15.0483 33.6805 17.1432C34.7257 18.1667 35.5562 19.3891 36.1232 20.7387C36.6902 22.0882 36.9823 23.5377 36.9823 25.0019C36.9823 26.4662 36.6902 27.9156 36.1232 29.2652C35.5562 30.6147 34.7257 31.8372 33.6805 32.8607L33.4372 33.0994V33.0906C31.6149 34.7847 29.2888 35.8341 26.8148 36.0782C24.3407 36.3223 21.855 35.7476 19.7378 34.4421C19.6916 34.415 19.6393 34.4 19.5858 34.3984C19.5322 34.3969 19.4792 34.4089 19.4315 34.4333L19.4113 34.4421L14.6654 35.8619L16.1116 31.1882L16.1191 31.1756C16.1469 31.1276 16.1616 31.0732 16.1616 31.0177C16.1616 30.9623 16.1469 30.9078 16.1191 30.8598C14.7668 28.7386 14.1868 26.2148 14.4771 23.7147C14.7675 21.2146 15.9105 18.8916 17.7129 17.1381C19.8431 15.0434 22.7106 13.8727 25.6955 13.8792L25.6967 13.8842ZM33.6717 32.5082C34.6574 31.5001 35.4349 30.3071 35.96 28.9977C36.4851 27.6882 36.7473 26.2879 36.7317 24.8768C36.7161 23.4657 36.4231 22.0715 35.8692 20.774C35.3154 19.4765 34.5117 18.3011 33.504 17.315C31.4165 15.2718 28.6139 14.1279 25.6955 14.1279C22.777 14.1279 19.9744 15.2718 17.8869 17.315C16.1248 19.0287 15.0076 21.2995 14.7241 23.7434C14.4405 26.1873 15.0082 28.6543 16.331 30.7272C16.3806 30.8115 16.4076 30.9072 16.4094 31.005C16.4111 31.1029 16.3876 31.1995 16.3411 31.2855L15.0436 35.488L19.3306 34.1996C19.4092 34.1615 19.4954 34.1416 19.5828 34.1415C19.686 34.1409 19.7874 34.1694 19.8753 34.2236C21.9941 35.5303 24.4889 36.0877 26.9611 35.8067C29.4333 35.5257 31.7401 34.4226 33.5128 32.6737L33.6717 32.5082Z" fill="black"/>
</g>
</g>
<defs>
<clipPath id="clip0_1_653">
<rect width="29" height="24" fill="white" transform="translate(11 13)"/>
</clipPath>
</defs>
</svg>
